<?xml version="1.0" standalone="no"?><!DOCTYPE svg PUBLIC "-//W3C//DTD SVG 1.1//EN" "http://www.w3.org/Graphics/SVG/1.1/DTD/svg11.dtd"><svg width="100%" height="100%" viewBox="0 0 200 200" version="1.1" xmlns="http://www.w3.org/2000/svg" xmlns:xlink="http://www.w3.org/1999/xlink" xml:space="preserve" style="fill-rule:evenodd;clip-rule:evenodd;stroke-linejoin:round;stroke-miterlimit:1.41421;"><path id="path21513-7" d="M64.07,89.929c-0.387,0 -0.782,0.356 -0.892,0.797l-4.616,19.289l12.59,0.014c0.335,0 0.893,-0.014 1.249,-0.017c0.168,-0.014 3.583,-0.014 5.004,-0.332c1.874,-0.419 2.708,-0.825 3.748,-1.589c0.929,-0.683 1.533,-1.493 1.945,-2.416l0.014,-0.047c-0.238,1.609 0.387,2.809 1.902,3.621c0.593,0.343 1.342,0.562 2.211,0.653c0.856,0.092 4.034,0.116 4.163,0.127l1.185,0l12.358,-0.014l2.214,-9.106c0.948,-3.715 -0.219,-5.789 -3.418,-6.726c-0.678,-0.161 -1.375,-0.27 -2.067,-0.318c-0.691,-0.05 -3.109,-0.071 -3.208,-0.072l-1.19,0l-8.938,0c-0.599,0 -0.942,0.379 -1.052,0.86l-0.442,1.877c-0.071,0.354 -0.022,0.556 0.121,0.728c0.097,0.108 0.277,0.172 0.429,0.172l11.196,0c2.206,0 2.754,0.907 2.383,2.106c-0.147,0.46 -0.365,0.556 -0.75,0.556l-6.648,0c-2.42,0 -4.213,0.141 -5.314,0.418c-1.246,0.299 -2.348,0.888 -3.283,1.747c-0.677,0.628 -1.175,1.333 -1.497,2.098c-0.019,-2.361 -2.91,-3.978 -3.178,-4.124c-0.065,-0.037 -0.096,-0.088 -0.093,-0.144c0,-0.115 0.126,-0.264 0.326,-0.382c0.014,0 0.789,-0.454 1.846,-1.354c1.014,-0.85 1.691,-1.861 1.99,-3.039c0.224,-0.935 0.154,-1.717 -0.18,-2.397c-0.517,-1.082 -1.399,-1.927 -2.908,-2.38c-1.729,-0.528 -3.88,-0.601 -5.157,-0.601l-12.043,0l0,-0.005l0,0ZM156.922,90.042c-0.376,0 -0.76,0.375 -0.867,0.858l-4.58,19.115l6.302,0l4.564,-19.076c0.071,-0.282 0.028,-0.553 -0.113,-0.719c-0.097,-0.117 -0.233,-0.178 -0.385,-0.178l-4.921,0ZM184.331,90.042c-0.372,0 -0.74,0.243 -0.855,0.714l-0.576,2.453c-0.076,0.283 -0.058,0.555 0.084,0.725c0.091,0.115 0.229,0.177 0.376,0.177l2.262,0c0.09,0 0.215,0.048 0.276,0.119c0.114,0.129 0.093,0.327 0.036,0.565l-3.631,15.22l6.623,0l3.626,-15.187c0.098,-0.464 0.361,-0.717 0.639,-0.717l5.364,0c0.365,0 0.76,-0.384 0.867,-0.861l0.539,-2.305c0.066,-0.289 0.056,-0.546 -0.086,-0.72c-0.095,-0.106 -0.268,-0.183 -0.415,-0.183l-15.129,0l0,0ZM111.394,90.057c-0.425,0 -0.765,0.377 -0.88,0.858l-4.57,19.103c0,0 10.074,0.014 13.183,0.014c4.159,0 8.57,-0.448 9.812,-4.866c0.225,-0.832 1.002,-4.306 1.002,-4.306c0.941,-3.596 -0.088,-5.729 -3.341,-6.726c-0.675,-0.207 -1.361,-0.269 -2.065,-0.318c-0.689,-0.05 -3.108,-0.073 -3.208,-0.073l-1.19,0l-4.08,0l0.665,-2.781c0.065,-0.287 0.02,-0.558 -0.122,-0.728c-0.089,-0.108 -0.228,-0.172 -0.374,-0.172l-4.832,0l0,-0.005l0,0ZM70.607,93.649l3.933,0c1.741,0 3.774,0.282 3.261,2.101c-0.222,0.806 -0.767,1.488 -1.863,1.962c-0.445,0.176 -0.9,0.304 -1.354,0.371c-0.453,0.067 -1.517,0.074 -1.527,0.073l-3.574,0c-0.112,0 -0.207,-0.044 -0.271,-0.122c-0.101,-0.119 -0.13,-0.295 -0.083,-0.49l0.777,-3.269c0.085,-0.356 0.407,-0.625 0.701,-0.625l0,-0.001l0,0ZM142.529,93.713c-3.766,0 -6.83,-0.001 -8.688,1.331c-2.069,1.481 -2.258,3.071 -2.674,4.825c0,0 -0.712,2.864 -1.279,5.25c-0.558,2.344 1.104,4.924 7.396,4.924l3.795,0.014c3.133,0.046 6.185,0.092 8.073,-1.093c1.621,-1.011 2.209,-2.577 2.544,-3.822c0.202,-0.748 1.254,-5.267 1.254,-5.267c0.416,-1.76 0.257,-2.931 -0.825,-4.105c-1.422,-1.548 -2.716,-2.054 -9.366,-2.054l-0.23,0l0,-0.003l0,0ZM164.727,93.791c-0.599,0 -0.945,0.379 -1.055,0.861l-0.44,1.876c-0.072,0.355 -0.02,0.556 0.122,0.728c0.097,0.108 0.281,0.172 0.426,0.172l11.354,0c2.202,0 2.758,0.907 2.378,2.106c-0.141,0.461 -0.358,0.557 -0.748,0.557l-6.803,0c-2.418,0 -4.204,0.14 -5.311,0.417c-1.248,0.3 -2.352,0.888 -3.28,1.747c-0.927,0.859 -1.527,1.856 -1.786,2.962c-0.419,1.821 0.191,3.152 1.83,4.032c0.592,0.344 1.337,0.563 2.217,0.653c0.85,0.093 4.029,0.117 4.166,0.128l13.537,-0.014l2.134,-9.106c0.987,-3.524 -0.14,-5.789 -3.333,-6.726c-0.678,-0.161 -1.379,-0.271 -2.07,-0.318c-0.696,-0.05 -3.119,-0.071 -3.216,-0.073l-10.122,0l0,-0.002l0,0ZM140.539,98.103l1.489,0c3.459,0 4.023,0.212 4.783,1.046c0.646,0.718 0.453,1.485 0.202,2.55l-0.056,0.263l-0.09,0.395c-0.236,1.077 -0.408,1.852 -1.542,2.566c-0.962,0.602 -2.308,0.58 -3.936,0.556l-0.877,-0.014c-1.991,0 -3.427,0.014 -4.263,-0.728c-0.793,-0.706 -0.756,-1.221 -0.29,-2.909c0.499,-1.837 0.522,-2.339 1.608,-3.116c0.709,-0.505 1.695,-0.598 2.972,-0.612l0,0.003ZM115.011,98.117l4.357,0c0.051,0 1.112,0.014 1.423,0.036c0.308,0.022 0.616,0.071 0.91,0.144c1.41,0.428 1.914,1.461 1.473,3.069c0,0.019 -0.342,1.583 -0.446,1.962c-0.547,2.018 -2.487,2.22 -4.326,2.22l-5.132,0l1.741,-7.426l0,-0.005l0,0ZM68.65,101.881l3.211,0c0.753,0 2.086,-0.025 3.033,0.41c0.814,0.369 1.116,0.964 0.925,1.741c-0.202,0.813 -0.812,1.498 -1.902,1.957c-0.434,0.197 -0.914,0.293 -1.378,0.351c-0.459,0.057 -1.517,0.042 -1.528,0.042c-0.352,0.014 -3.509,0.014 -3.509,0.014c-0.112,0 -0.208,-0.044 -0.272,-0.128c-0.1,-0.115 -0.126,-0.288 -0.083,-0.49l0.783,-3.26c0.085,-0.354 0.358,-0.631 0.72,-0.631l0,-0.006l0,0ZM92.664,103.733l6.966,0c0.088,0 0.168,0.04 0.225,0.111c0.112,0.124 0.14,0.338 0.09,0.575l-0.31,1.315c-0.092,0.393 -0.406,0.725 -0.686,0.725l-6.706,0c-1.168,0 -1.709,-0.031 -2.137,-0.235c-0.406,-0.188 -0.572,-0.589 -0.462,-1.079c0.103,-0.427 0.348,-0.81 0.791,-1.063c0.448,-0.252 0.93,-0.349 2.228,-0.349l0.001,0ZM169.067,103.733l6.961,0c0.098,0 0.173,0.04 0.235,0.111c0.106,0.124 0.14,0.338 0.087,0.575l-0.31,1.315c-0.087,0.393 -0.41,0.725 -0.684,0.725l-6.704,0c-1.172,0 -1.716,-0.031 -2.145,-0.235c-0.404,-0.188 -0.574,-0.589 -0.462,-1.079c0.099,-0.427 0.358,-0.81 0.797,-1.063c0.45,-0.252 0.925,-0.349 2.225,-0.349ZM192.258,108.339l-0.055,0.26l0.584,0l-0.31,1.423l0.374,0l0.307,-1.423l0.59,0l0.058,-0.26l-1.548,0l0,0ZM194.121,108.339l-0.501,1.683l0.349,0l0.191,-0.676c0.064,-0.228 0.135,-0.497 0.191,-0.717c0.014,0.21 0.034,0.439 0.067,0.654l0.116,0.719l0.285,0l0.459,-0.728c0.136,-0.21 0.271,-0.441 0.382,-0.645l0.014,0c-0.051,0.228 -0.092,0.491 -0.127,0.709l-0.108,0.684l0.365,0l0.244,-1.683l-0.484,0l-0.429,0.675c-0.122,0.197 -0.239,0.404 -0.333,0.587l-0.014,0c-0.014,-0.188 -0.032,-0.387 -0.061,-0.584l-0.122,-0.678l-0.489,0l0.005,0Z" style="fill:#fff;fill-rule:nonzero;"/><path id="path21513-9-4" d="M38.445,84.285c-1.507,0 -5.758,0.148 -9.203,3.574c-3.119,2.988 -6.708,6.395 -7.985,7.608l31.949,0l5.544,-11.182l-20.305,0ZM15.84,100.647l-15.84,15.051c0,0 36.685,0.015 37.025,0.015c0.34,0 6.024,0.215 8.057,-3.889c1.938,-3.911 4.762,-9.596 5.547,-11.174l-34.789,0l0,-0.003l0,0ZM45.221,113.899l-0.05,0.241l0.542,0l-0.29,1.32l0.351,0l0.283,-1.32l0.545,0l0.055,-0.241l-1.436,0l0,0ZM46.95,113.899l-0.464,1.561l0.323,0l0.177,-0.628c0.061,-0.214 0.128,-0.46 0.18,-0.664c0.015,0.193 0.032,0.407 0.064,0.606l0.108,0.667l0.266,0l0.423,-0.675c0.128,-0.197 0.252,-0.409 0.354,-0.598l0.015,0c-0.05,0.211 -0.087,0.454 -0.12,0.656l-0.104,0.636l0.34,0l0.227,-1.561l-0.451,0l-0.396,0.626c-0.112,0.184 -0.219,0.372 -0.304,0.542l-0.015,0c-0.014,-0.173 -0.029,-0.359 -0.058,-0.539l-0.11,-0.629l-0.457,0l0.002,0Z" style="fill:#fff;fill-rule:nonzero;"/></svg>