<?xml version="1.0" standalone="no"?><!DOCTYPE svg PUBLIC "-//W3C//DTD SVG 1.1//EN" "http://www.w3.org/Graphics/SVG/1.1/DTD/svg11.dtd"><svg width="100%" height="100%" viewBox="0 0 200 200" version="1.1" xmlns="http://www.w3.org/2000/svg" xmlns:xlink="http://www.w3.org/1999/xlink" xml:space="preserve" style="fill-rule:evenodd;clip-rule:evenodd;stroke-linejoin:round;stroke-miterlimit:1.41421;"><path d="M184.76,85.303c-6.186,0 -11.2,5.014 -11.2,11.199l0,14.561l5.6,0l0,-14.561c0,-3.092 2.507,-5.599 5.6,-5.599c3.091,0 5.599,2.507 5.599,5.599l0,4.34l-9.617,0l0.841,4.852l8.776,0l0,5.369l5.6,0l0,-14.561c0,-6.185 -5.013,-11.199 -11.199,-11.199M132.492,85.303c-6.185,0 -11.198,5.014 -11.198,11.199l0,14.561l5.6,0l0,-14.561c0,-3.092 2.507,-5.599 5.598,-5.599c3.094,0 5.601,2.507 5.601,5.599l0,4.34l-9.619,0l0.842,4.852l8.777,0l0,5.369l5.601,0l0,-14.561c0,-6.185 -5.015,-11.199 -11.202,-11.199" style="fill:#fff;fill-rule:nonzero;"/><path d="M93.668,100.235c0,6.188 -5.014,11.201 -11.201,11.201c-6.185,0 -11.2,-5.013 -11.2,-11.201l0,-14.56l5.601,0l0,14.56c0,3.094 2.507,5.602 5.599,5.602c3.093,0 5.6,-2.508 5.6,-5.602l0,-14.56l5.601,0l0,14.56" style="fill:#fff;fill-rule:nonzero;"/><path d="M169.826,111.063l-5.598,0l0,-14.56c0,-3.093 -2.509,-5.6 -5.602,-5.6c-3.091,0 -5.599,2.507 -5.599,5.6l0,14.56l-5.6,0l0,-14.56c0,-6.186 5.014,-11.199 11.199,-11.199c6.187,0 11.2,5.013 11.2,11.199l0,14.56" style="fill:#fff;fill-rule:nonzero;"/><path d="M110.949,111.063l-14.482,0l0.043,0l0.908,-5.226l13.34,0c1.384,0 2.511,-1.123 2.511,-2.511c0,-1.385 -1.127,-2.508 -2.511,-2.508l-6.72,0.001c-4.18,0 -7.571,-3.389 -7.571,-7.572c0,-4.18 3.391,-7.572 7.571,-7.572l11.494,0l0.908,5.228l-12.214,0c-1.193,0 -2.16,0.966 -2.16,2.159c0,1.192 0.967,2.16 2.16,2.16l6.723,-0.004c4.375,0 7.922,3.548 7.922,7.922c0,4.373 -3.547,7.923 -7.922,7.923" style="fill:#fff;fill-rule:nonzero;"/><path d="M71.269,116.475l0.955,0l0,2.724l4.123,0l0,-2.724l0.955,0l0,6.763l-0.955,0l0,-3.148l-4.123,0l0,3.148l-0.955,0l0,-6.763Z" style="fill:#fff;fill-rule:nonzero;"/><path d="M80.918,116.475l5.378,0l0,0.862l-4.423,0l0,1.994l4.151,0l0,0.891l-4.151,0l0,2.108l4.488,0l0,0.908l-5.443,0l0,-6.763Z" style="fill:#fff;fill-rule:nonzero;"/><path d="M93.499,120.429l-1.292,-2.887l-1.368,2.887l2.66,0ZM91.739,116.475l1.001,0l3.006,6.763l-0.992,0l-0.862,-1.931l-3.456,0l-0.9,1.931l-1.011,0l3.214,-6.763Z" style="fill:#fff;fill-rule:nonzero;"/><path d="M98.792,116.475l0.956,0l0,5.855l4.14,0l0,0.908l-5.096,0l0,-6.763Z" style="fill:#fff;fill-rule:nonzero;"/><path d="M107.842,123.237l-0.956,0l0,-5.881l-2.567,0l0,-0.881l6.098,0l0,0.881l-2.575,0l0,5.881Z" style="fill:#fff;fill-rule:nonzero;"/><path d="M113.396,116.475l0.956,0l0,2.724l4.122,0l0,-2.724l0.955,0l0,6.763l-0.955,0l0,-3.148l-4.122,0l0,3.148l-0.956,0l0,-6.763Z" style="fill:#fff;fill-rule:nonzero;"/><path d="M129.303,120.952c0.038,1.068 0.731,1.573 2.127,1.573c1.217,0 1.872,-0.43 1.872,-1.143c0,-0.56 -0.364,-0.813 -1.159,-0.954l-1.679,-0.3c-1.321,-0.233 -1.956,-0.769 -1.956,-1.79c0,-1.275 0.983,-2.041 2.856,-2.041c1.733,0 2.679,0.766 2.699,2.146l-0.956,0c-0.066,-0.871 -0.646,-1.265 -1.818,-1.265c-1.17,0 -1.77,0.394 -1.77,1.076c0,0.553 0.384,0.759 1.198,0.919l1.49,0.29c1.424,0.27 2.099,0.703 2.099,1.837c0,1.31 -1.031,2.115 -2.932,2.115c-2.024,0 -3.054,-0.833 -3.082,-2.463l1.011,0" style="fill:#fff;fill-rule:nonzero;"/><path d="M141.023,123.415c-2.305,0 -3.701,-1.404 -3.701,-3.557c0,-2.157 1.396,-3.562 3.71,-3.562c1.893,0 3.204,1.067 3.344,2.634l-0.992,0c-0.188,-1.078 -1.068,-1.735 -2.361,-1.735c-1.715,0 -2.707,1.003 -2.707,2.663c0,1.655 1.002,2.66 2.716,2.66c1.33,0 2.267,-0.761 2.426,-1.894l0.994,0c-0.18,1.684 -1.509,2.791 -3.429,2.791" style="fill:#fff;fill-rule:nonzero;"/><rect x="147.88" y="116.474" width="0.956" height="6.763" style="fill:#fff;"/><path d="M152.892,116.475l5.376,0l0,0.862l-4.42,0l0,1.994l4.149,0l0,0.891l-4.149,0l0,2.108l4.487,0l0,0.908l-5.443,0l0,-6.763Z" style="fill:#fff;fill-rule:nonzero;"/><path d="M161.707,116.475l1.293,0l4.262,5.77l0,-5.77l0.928,0l0,6.763l-1.293,0l-4.252,-5.77l0,5.77l-0.938,0l0,-6.763Z" style="fill:#fff;fill-rule:nonzero;"/><path d="M175.141,123.415c-2.304,0 -3.7,-1.404 -3.7,-3.557c0,-2.157 1.396,-3.562 3.709,-3.562c1.893,0 3.204,1.067 3.344,2.634l-0.992,0c-0.188,-1.078 -1.068,-1.735 -2.361,-1.735c-1.715,0 -2.707,1.003 -2.707,2.663c0,1.655 1.001,2.66 2.716,2.66c1.33,0 2.267,-0.761 2.427,-1.894l0.994,0c-0.179,1.684 -1.51,2.791 -3.43,2.791" style="fill:#fff;fill-rule:nonzero;"/><path d="M181.932,116.475l5.379,0l0,0.862l-4.423,0l0,1.994l4.15,0l0,0.891l-4.15,0l0,2.108l4.487,0l0,0.908l-5.443,0l0,-6.763l0,0Z" style="fill:#fff;fill-rule:nonzero;"/><path d="M191.356,120.952c0.037,1.068 0.73,1.573 2.127,1.573c1.217,0 1.874,-0.43 1.874,-1.143c0,-0.56 -0.366,-0.813 -1.162,-0.954l-1.677,-0.3c-1.32,-0.235 -1.958,-0.769 -1.958,-1.79c0,-1.275 0.984,-2.041 2.857,-2.041c1.732,0 2.681,0.766 2.698,2.146l-0.956,0c-0.064,-0.871 -0.646,-1.265 -1.817,-1.265c-1.171,0 -1.769,0.394 -1.769,1.076c0,0.553 0.383,0.759 1.198,0.919l1.489,0.29c1.424,0.27 2.099,0.701 2.099,1.837c0,1.31 -1.03,2.115 -2.932,2.115c-2.023,0 -3.053,-0.833 -3.081,-2.463l1.01,0" style="fill:#fff;fill-rule:nonzero;"/><path d="M12.82,75.364c0.498,-0.277 1.033,-0.527 1.552,-0.775c1.35,-0.647 1.931,-1.056 2.89,-1.999c0.149,-0.149 0.857,-0.667 0.671,-0.923c-0.322,-0.314 -3.942,2.051 -5.479,3.241c-0.687,0.426 -1.494,1.088 -2.072,1.611c-0.211,0.192 -0.431,0.397 -0.347,0.672c0.443,0.185 1.726,-1.235 2.785,-1.827" style="fill:#fff;fill-rule:nonzero;"/><path d="M3.116,87.684c0.105,-0.312 0.234,-0.655 0.313,-0.993c0.073,-0.308 0.195,-0.751 0.03,-0.896c-0.532,-0.076 -1.737,3.251 -1.37,3.516c0.3,0.054 0.818,-1.001 1.027,-1.627" style="fill:#fff;fill-rule:nonzero;"/><path d="M6.016,88.743c0.344,-0.086 0.397,-0.689 0.458,-0.96c0.275,-1.207 0.521,-1.707 1.141,-2.513c0.208,-0.268 0.795,-0.935 0.776,-1.413c-0.016,-0.392 -0.664,-0.788 -0.729,-1.324c-0.089,-0.705 0.295,-1.377 0.593,-1.735c0.535,-0.648 1.655,-1.196 2.099,-0.275c0.498,1.034 -0.138,1.338 -0.547,2.102c-0.176,0.327 -0.362,0.88 -0.275,1.413c0.23,1.38 2.101,1.631 2.283,3.151c0.139,1.148 -0.151,2.493 -0.182,3.7c-0.03,1.139 0.112,2.3 0.73,3.149c0.834,1.143 2.843,1.461 4.886,1.368c1.069,-0.047 3.224,-0.015 3.834,-0.639c0.442,-0.453 0.227,-1.5 0,-2.055c-0.321,-0.784 -0.908,-1.663 -1.552,-2.328c-0.566,-0.58 -1.421,-1.006 -2.009,-1.688c-1.131,-1.313 -1.157,-2.826 -0.822,-4.931c0.087,-0.543 0.327,-1.91 -0.274,-2.192c-0.871,-0.406 -1.443,0.729 -1.78,1.141c-0.377,0.46 -1.11,1.317 -1.918,1.097c-0.466,-0.126 -0.558,-0.916 -0.502,-1.643c0.108,-1.409 0.722,-2.98 1.368,-3.926c0.228,-0.33 0.487,-0.889 0.915,-0.714c0.332,0.173 -0.036,0.804 -0.216,1.208c-0.438,0.985 -1.137,1.958 -0.652,2.337c0.48,0.227 1.142,-0.973 1.643,-1.555c0.79,-0.911 1.562,-1.43 2.741,-2.099c0.522,-0.297 1.527,-0.802 1.596,-1.369c0.074,-0.583 -0.396,-0.881 -0.363,-1.46c0.057,-1.065 1.808,-1.976 2.6,-1.323c1.155,0.946 -0.081,1.757 0.366,2.601c0.385,0.582 1.92,-0.666 2.556,-1.143c0.716,-0.535 2.157,-1.415 1.963,-1.963c-0.33,-0.689 -1.639,-0.538 -2.464,-0.776c-1.347,-0.387 -2.869,-0.851 -4.246,-0.227c-0.942,0.426 -1.252,1.278 -1.917,2.055c-0.802,0.933 -2.063,1.327 -3.287,1.826c-1.619,0.657 -3.05,1.628 -4.429,2.602c-0.913,0.644 -1.785,1.376 -2.648,2.008c-0.564,0.411 -1.205,0.743 -1.69,1.193c-0.69,0.641 -0.442,1.49 -0.446,1.689c-0.009,0.56 -0.678,1.137 -1.06,1.865c-0.573,1.094 -0.45,2.046 0.32,2.878c0.165,0.177 0.572,1.007 1.14,0.868" style="fill:#fff;fill-rule:nonzero;"/><path d="M25.511,71.393c0.983,0.187 2.183,0.419 3.24,0.366c1.348,-0.068 2.217,-0.764 3.334,-1.094c0.231,-0.072 1.104,-0.232 1.188,0.136c0.054,0.24 -0.485,0.548 -0.549,0.592c-0.299,0.207 -0.538,0.347 -0.731,0.458c-1.521,0.862 -3.078,1.779 -4.336,2.693c-1.776,1.289 -3.386,3.482 -3.56,5.797c-0.133,1.743 1.105,1.663 2.098,2.373c0.327,0.233 0.592,0.528 0.823,0.822c0.622,0.799 1.002,2.418 2.192,2.511c1.223,0.097 1.743,-1.142 2.146,-2.009c0.259,-0.559 0.627,-1.23 0.821,-1.78c0.428,-1.218 0.413,-2.8 0.41,-4.565c-0.002,-1.622 0.018,-3.51 0.776,-4.154c0.737,-0.626 1.376,-0.084 1.461,0.821c0.126,1.335 -0.355,3.66 0.685,3.972c0.698,0.211 2.291,-0.931 3.875,-0.756c0.775,0.085 1.263,0.927 1.695,1.168c0.745,0.415 2.004,0.388 2.922,0.866c0.683,0.357 2.22,1.476 2.328,0.457c0.031,-1.091 -0.534,-1.975 -1.233,-2.784c-0.725,-0.84 -1.945,-1.456 -2.464,-2.329c-0.357,-0.598 -0.389,-1.342 -0.732,-1.918c-0.346,-0.58 -1.166,-1.322 -2.008,-1.002c-0.351,0.145 -0.436,0.563 -0.429,1.111c0.024,1.663 3.259,4.161 2.926,4.469c-0.333,0.309 -2.999,-1.784 -3.615,-2.497c-0.614,-0.713 -1.276,-2.207 -1.375,-3.162c-0.155,-1.442 -0.607,-1.917 -2.001,-1.498c-0.914,0.276 -1.936,0.216 -2.067,-0.571c-0.121,-0.712 1.119,-0.499 1.083,-0.913c-0.129,-0.37 -2.785,-0.43 -3.836,0c-0.329,0.135 -0.655,0.507 -1.004,0.639c-1.382,0.526 -3.11,0.251 -4.664,0.35c-0.741,0.045 -1.992,0.137 -2.047,0.518c-0.04,0.477 1.622,0.716 2.648,0.913" style="fill:#fff;fill-rule:nonzero;"/><path d="M37.165,69.591c0.52,0.11 1.101,0.211 1.496,0.295c2.796,0.602 5.018,1.953 6.663,3.745c1.598,1.74 2.996,4.034 3.835,6.573c0.246,0.742 0.68,2.165 0.228,2.875c-0.769,1.215 -3.218,-0.356 -3.925,-0.775c-2.103,-1.24 -3.569,-2.621 -6.346,-3.013c-1.413,-0.2 -3.234,-0.185 -3.699,0.821c-0.313,0.681 -0.043,1.782 0.184,2.513c0.26,0.843 0.512,1.401 0.776,2.191c0.478,1.423 1.034,3.091 2.191,3.744c0.479,0.269 1.221,0.303 1.506,0.09c0.617,-0.455 0.266,-1.943 0.367,-2.966c0.138,-1.423 1.307,-2.681 2.829,-2.558c1.472,0.12 2.149,1.9 1.736,3.425c-0.344,1.261 -1.771,2.302 -0.823,3.697c1.352,0.113 2.267,-0.779 3.058,-1.462c0.817,-0.7 1.586,-1.502 2.284,-2.372c1.014,-1.266 2.042,-2.685 2.419,-4.568c0.141,-0.704 -0.017,-1.642 0.64,-1.686c0.712,-0.05 1.024,1.174 1.049,1.597c0.03,0.499 -0.06,1.205 -0.228,1.689c-0.816,2.349 -2.774,4.421 -3.972,6.574c-0.431,0.773 -0.954,1.685 -1.051,2.465c-0.169,1.39 0.751,2.49 1.691,2.693c1.525,0.33 2.327,-1.285 3.012,-2.327c0.631,-0.958 1.287,-2.168 2.283,-2.33c1.158,-0.187 1.796,1.183 2.243,1.908c0.38,0.617 0.926,2.211 1.456,2.066c0.54,-0.046 0.369,-1.709 0.318,-2.65c-0.05,-0.937 -0.204,-1.896 -0.776,-2.19c-0.785,-0.293 -1.92,0.506 -2.806,-1.149c-0.325,-0.608 -0.145,-1.375 -0.39,-2.002c-0.26,-0.668 -1.667,-1.821 -0.894,-2.66c0.233,-0.253 1.022,0.024 1.214,-0.398c0.165,-0.386 -0.785,-1.928 -1.369,-2.739c-0.567,-0.788 -1.166,-1.566 -2.009,-2.1c-1.587,-1.007 -4.162,-1.528 -4.474,-3.744c-0.038,-0.284 0.096,-0.658 0,-0.912c-0.209,-0.56 -1.23,-0.516 -1.78,-1.05c-0.24,-0.234 -0.18,-0.563 -0.457,-0.823c-0.394,-0.37 -1.36,-0.764 -2.054,-1.05c-1.654,-0.681 -4.168,-1.575 -6.027,-1.859c-0.605,-0.094 -1.371,-0.238 -1.552,-0.059c-0.123,0.17 0.46,0.334 1.154,0.481" style="fill:#fff;fill-rule:nonzero;"/><path d="M3.771,111.656c0.298,-0.226 -0.072,-1.715 -0.418,-1.878c-0.283,-0.135 -1.018,0.167 -1.03,0.65c-0.016,0.586 1.062,1.522 1.448,1.228" style="fill:#fff;fill-rule:nonzero;"/><path d="M34.915,89.884c-0.412,-1.376 -0.93,-3.463 -2.465,-3.38c-1.555,0.085 -1.741,2.378 -3.332,2.374c-1.947,-0.003 -2.338,-2.795 -3.973,-3.287c-0.257,-0.077 -0.468,-0.065 -0.593,-0.045c-1.527,0.233 -0.535,2.862 -0.273,3.652c0.71,2.144 1.614,3.514 2.19,5.524c0.283,0.981 0.596,2.126 0.457,3.425c-0.146,1.381 -1.134,2.78 -1.916,3.832c-0.677,0.912 -2.111,3.347 -2.958,4.799c-0.992,1.708 0.101,1.649 0.596,1.462c1.93,-0.74 3.765,-1.589 5.166,-3.242c1.086,-1.28 2.162,-1.237 2.429,-1.903c0.265,-0.664 -0.971,-0.887 -1.534,-2.127c-0.821,-1.812 -0.169,-3.039 0.871,-3.553c0.99,-0.489 2.925,-0.344 4.129,1.275c0.714,0.958 0.905,2.629 0.313,3.56c-0.146,0.228 -0.693,1.401 0.25,4.192c1.115,3.304 2.136,1.027 2.267,0.398c0.507,-2.4 0.917,-4.865 0.705,-7.644c-0.287,-3.77 -1.396,-6.21 -2.329,-9.312" style="fill:#fff;fill-rule:nonzero;"/><path d="M15.417,115.3c-0.563,0.693 0.366,2.513 0.887,3.735c0.832,1.949 1.594,2.759 2.64,1.807c3.861,-3.51 3.314,-4.446 4.494,-5.92c0.772,-0.964 2.655,-1.134 3.678,-2.156c1.078,-1.078 2.125,-3.856 1.838,-4.629c-0.193,-0.522 -0.84,-0.117 -0.868,-0.1c-3.839,2.857 -6.059,2.69 -9.146,3.785c-0.597,0.209 -1.217,0.397 -1.804,0.651c-0.437,0.189 -1.045,0.451 -0.979,1.162c0.059,0.641 -0.12,1.164 -0.74,1.665" style="fill:#fff;fill-rule:nonzero;"/><path d="M3.956,106.893c0.3,-0.174 0.745,-0.222 1.251,-0.364c0.721,-0.202 0.417,-1.325 0.926,-2.023c0.724,-0.998 1.802,-0.786 2.309,-0.404c0.581,0.436 0.831,1.505 0.396,2.203c-0.731,1.181 -1.804,0.983 -2.051,1.159c-0.248,0.174 -0.072,0.762 -0.072,0.762c0,0 0.418,1.543 0.574,1.994c1.027,2.968 3.245,4.508 4.878,5.652c0.557,0.391 1.238,0.381 1.016,-0.61c-0.16,-0.718 -0.421,-1.452 -0.785,-2.224c-0.377,-0.796 -0.682,-1.232 -1.215,-2.106c-0.121,-0.2 -0.869,-1.079 -0.442,-1.505c0.428,-0.427 1.284,0.098 1.871,0.735c0.412,0.446 0.673,0.836 1.386,1.099c0.713,0.261 2.356,-0.47 3.33,-0.879c1.577,-0.659 1.943,-1.938 2.482,-3.538c0.881,-2.62 2.074,-6.163 2.231,-6.643c0.232,-0.704 0.224,-1.62 -0.228,-1.873c-0.774,-0.433 -2.078,0.202 -2.648,0.412c-0.481,0.179 -1.03,0.399 -1.598,0.637c-0.705,0.3 -2.786,0.801 -2.785,1.644c0.001,0.557 1.595,0.354 1.689,1.069c0.025,0.522 -1.605,0.54 -2.009,0.532c-1.225,-0.033 -1.018,-1.672 -1.871,-1.735c-0.271,-0.022 -0.745,0.154 -0.959,0.273c-0.334,0.184 -0.878,0.614 -0.796,1.214c0.071,0.523 1.331,0.406 1.308,1.141c0,0.477 -1.514,0.529 -2.019,0.43c-1.243,-0.248 -0.598,-2.579 -0.729,-4.064c-0.07,-0.782 -0.485,-1.014 -0.822,-1.553c-0.726,-1.158 -0.772,-2.607 -1.142,-4.2c-0.22,-0.953 -0.61,-1.778 -1.05,-2.51c-0.45,-0.755 -0.938,-1.581 -1.506,-2.056c-0.197,-0.162 -0.6,-0.42 -0.776,-0.456c-1.219,-0.235 -1.911,1.617 -1.644,2.832c0.153,0.695 0.664,1.461 1.005,2.19c0.306,0.659 0.776,1.471 0.958,2.237c0.289,1.21 -0.08,2.911 0,4.201c0.085,1.347 2.018,1.31 1.963,2.007c-0.087,0.636 -2.275,0.636 -2.751,0.395c-0.46,-0.229 -0.524,-0.728 -0.582,-1.488c-0.069,-0.914 0.03,-2.02 -0.09,-3.107c-0.086,-0.774 -0.368,-2.199 -1.051,-2.145c-0.422,0.035 -0.636,0.932 -0.73,1.279c-0.07,0.257 -0.109,0.513 -0.16,0.748c-0.066,0.309 -0.096,0.794 -0.342,0.761c-0.229,-0.046 -0.183,-0.633 -0.179,-0.94c0.016,-1.148 0.815,-2.217 1,-3.4c0.111,-0.708 -0.028,-1.391 -0.502,-1.323c-0.336,0.046 -0.452,0.942 -0.547,1.46c-0.431,2.333 -0.549,5.042 -0.362,7.545l-0.014,0c0.022,0.296 0.055,0.593 0.093,0.896c0.105,0.989 0.26,1.931 0.465,2.791c0.091,0.381 0.235,1.101 0.457,1.53c0.222,0.427 0.554,1.299 1.314,0.649c0.454,-0.384 1.023,-1.024 1.555,-1.331" style="fill:#fff;fill-rule:nonzero;"/><path d="M52.057,77.075c0.487,0.365 1.379,1.142 1.622,0.938c0.208,-0.344 -0.909,-1.042 -1.416,-1.506c-0.537,-0.494 -1.07,-0.997 -1.686,-1.375c-0.161,-0.1 -0.597,-0.346 -0.686,-0.224c-0.165,0.218 0.02,0.464 0.119,0.573c0.593,0.646 1.349,1.072 2.047,1.594" style="fill:#fff;fill-rule:nonzero;"/><path d="M57.103,84.769c-0.301,0.264 -1.252,-0.783 -1.735,-0.41c-0.42,0.698 0.618,1.09 1.187,1.279c0.645,0.211 1.296,0.451 1.735,0.913c0.809,0.848 1.269,2.714 2.19,2.418c0.341,-0.131 -0.283,-1.584 -0.592,-2.282c-0.338,-0.763 -0.838,-1.565 -1.279,-2.328c-0.908,-1.575 -2.782,-4.271 -3.196,-4.018c-0.348,0.222 0.504,1.705 0.868,2.328c0.383,0.653 1.234,1.816 0.822,2.1" style="fill:#fff;fill-rule:nonzero;"/><path d="M59.987,105.221c-0.839,-0.208 -3.603,-1.933 -3.28,-2.663c0.489,-1.112 2.308,0.326 2.98,0.506c1.648,0.444 3.297,-2.551 2.894,-6.607c-0.091,-0.923 -0.137,-2.619 -0.593,-2.602c-0.458,0.016 -0.489,1.814 -0.686,2.875c-0.234,1.261 -0.663,2.668 -1.642,3.196c-0.739,0.399 -1.873,0.308 -2.877,0.501c-0.956,0.186 -1.962,0.432 -2.327,1.053c-0.578,0.976 0.156,2.603 0.501,3.377c0.446,1 1.1,2.143 0.959,3.196c-0.095,0.715 -0.648,1.132 -1.232,1.461c-0.258,0.143 -1.442,0.799 -1.644,0.184c-0.133,-0.405 0.443,-0.867 0.594,-1.006c0.329,-0.303 0.681,-0.529 0.775,-0.867c0.149,-0.529 -0.016,-1.093 -0.181,-1.46c-0.689,-1.527 -2.444,-2.531 -2.741,-4.52c-0.208,-1.408 0.802,-2.596 1.553,-3.152c1.182,-0.874 3.797,-1.329 3.926,-2.921c0.062,-0.761 -0.462,-1.697 -1.142,-1.828c-1.2,-0.227 -2.247,1.104 -2.829,1.738c-0.533,0.577 -1.505,2.07 -2.467,2.1c-0.758,0.021 -1.264,-0.758 -1.733,-1.37c-0.367,-0.479 -0.818,-1.471 -1.645,-1.462c-0.567,0.007 -1.046,0.537 -1.323,1.05c-1.033,1.904 -0.201,5.094 0.365,6.895c0.486,1.544 1.143,2.661 2.054,3.787c0.829,1.028 1.753,1.893 2.648,3.151c0.388,0.543 0.84,1.128 1.279,1.646c0.412,0.483 1.018,1.153 1.004,1.917c-0.019,1.004 -0.932,1.259 -1.233,2.101c-0.628,1.744 0.724,3.929 1.964,4.792c1.083,0.625 2.22,-0.978 2.967,-2.01c1.188,-1.642 2.11,-3.167 2.969,-5.113c0.206,-0.472 1.301,-2.569 0.591,-3.013c-0.581,-0.365 -1.192,0.313 -1.46,0.731c-0.906,1.407 -1.309,4.007 -2.419,4.791c-0.246,0.175 -2.135,0.832 -2.193,0.093c-0.035,-0.452 1.252,-0.775 1.461,-0.959c0.551,-0.483 0.791,-1.512 1.005,-2.51c0.447,-2.091 0.528,-4.566 2.693,-4.793c0.839,-0.09 1.717,0.188 2.146,-0.139c0.263,-0.197 1.051,-2.748 0.838,-3.05c-0.474,-0.681 -1.235,1.22 -2.519,0.904" style="fill:#fff;fill-rule:nonzero;"/><path d="M50.392,115.951c-0.299,-0.587 -0.83,-1.276 -1.507,-1.234c-0.467,0.03 -0.8,0.45 -0.822,0.823c-0.03,0.542 0.444,1.144 0.639,1.644c0.127,0.324 0.558,1.509 0,1.733c-0.571,0.231 -1.266,-0.518 -1.505,-0.728c-0.821,-0.726 -1.642,-1.56 -2.284,-2.465c-0.304,-0.434 -0.762,-1.071 -0.593,-1.781c0.148,-0.627 1.024,-0.759 1.416,-0.913c0.475,-0.188 1.169,-0.497 1.232,-1.096c0.077,-0.74 -0.712,-1.501 -1.187,-1.916c-0.662,-0.583 -1.743,-1.423 -2.602,-1.601c-1.81,-0.37 -2.518,2.242 -2.923,3.564c-0.384,1.258 -0.684,2.675 -0.957,3.833c-0.313,1.32 -0.395,2.844 -0.184,4.245c0.335,2.232 0.981,4.542 -0.09,6.299c-0.279,0.461 -1.565,1.375 -1.324,2.24c0.225,0.809 1.936,0.288 2.601,0.092c1.684,-0.501 2.753,0.165 4.292,-0.323c0.988,-0.347 1.773,-0.866 2.647,-1.369c0.686,-0.394 1.972,-0.853 1.781,-1.414c-0.119,-0.509 -1.165,-0.012 -2.328,-0.409c-0.691,-0.241 -1.388,-0.849 -1.917,-1.28c-0.418,-0.34 -1.626,-1.057 -1.461,-1.736c0.09,-0.373 0.7,-0.439 1.278,-0.227c1.21,0.443 2.02,1.749 3.469,1.825c0.881,0.047 2.813,-0.259 3.242,-0.774c0.389,-0.47 0.217,-1.883 0.137,-2.694c-0.171,-1.722 -0.421,-3.103 -1.05,-4.338" style="fill:#fff;fill-rule:nonzero;"/><path d="M8.027,116.583c-2.585,-1.236 -2.797,-2.168 -3.98,-3.379c-0.474,-0.482 -0.784,0.064 -0.554,0.643c0.291,0.732 0.637,1.452 1.03,2.126c0.533,0.916 1.637,2.348 2.843,3.848c1.037,1.292 1.543,0.641 1.694,0.168c0.234,-0.718 0.435,-1.429 0.443,-1.749c0.02,-0.76 -0.43,-1.155 -1.476,-1.657" style="fill:#fff;fill-rule:nonzero;"/><path d="M36.422,128.734c-0.047,-0.399 0.219,-0.754 0.3,-1.133c0.388,-1.829 -0.088,-4.783 -0.21,-5.624c-0.266,-1.853 -0.847,-3.227 -1.119,-4.886c-0.246,-1.714 -0.273,-3.095 -0.254,-4.198c0.03,-1.808 -1.255,-0.772 -1.873,0.189c-2.156,3.361 -4.143,3.515 -5.009,4.948c-2.029,3.359 -5.199,5.323 -6.844,6.246c-0.926,0.517 -3.789,2.081 -5.679,1.06c-1.76,-0.952 -2.241,-4.297 -2.217,-5.447c0.029,-1.353 -1.204,-0.595 -1.587,-0.021c-0.201,0.3 -0.534,0.69 -0.791,1.152c-0.944,1.701 0.58,2.937 1.049,3.487c1.93,2.255 4.172,3.024 5.273,3.531c1.103,0.508 4.519,1.542 6.792,-1.081c1.061,-1.224 1.113,-1.821 1.675,-2.437c1.159,-1.263 2.361,-0.711 3.14,-1.449c0.286,-0.269 0.115,-1.189 0.326,-1.754c0.203,-0.547 1.108,-1.399 2.206,-0.933c1.026,0.432 1.079,1.739 0.716,2.465c-0.778,1.546 -1.897,0.758 -2.359,1.937c-0.11,0.681 -0.372,3.333 0.699,3.484c0.569,0.081 2.61,-0.855 2.903,-0.264c0.403,0.814 -3.168,2.346 -3.979,2.066c-0.961,-0.331 -1.142,-2.215 -1.61,-2.35c-0.228,-0.068 -0.636,0.344 -1.162,1.031c-1.18,1.54 1.386,2.324 1.946,2.413c1.672,0.199 3.253,0.178 4.427,0.125c1.049,-0.048 3.907,-0.23 3.972,-1.233c0.044,-0.686 -0.654,-0.672 -0.731,-1.324" style="fill:#fff;fill-rule:nonzero;"/><path d="M198.705,109.606c0.181,0 0.341,-0.017 0.341,-0.229c0,-0.178 -0.175,-0.2 -0.32,-0.2l-0.292,0l0,0.429l0.271,0ZM198.434,110.443l-0.242,0l0,-1.473l0.56,0c0.355,0 0.535,0.124 0.535,0.424c0,0.267 -0.163,0.376 -0.383,0.401l0.413,0.648l-0.275,0l-0.38,-0.629l-0.228,0l0,0.629ZM198.699,108.583c-0.577,0 -1.026,0.451 -1.026,1.099c0,0.603 0.39,1.098 1.026,1.098c0.567,0 1.016,-0.448 1.016,-1.098c0,-0.648 -0.449,-1.099 -1.016,-1.099M198.699,111.012c-0.767,0 -1.31,-0.573 -1.31,-1.33c0,-0.8 0.605,-1.33 1.31,-1.33c0.696,0 1.301,0.53 1.301,1.33c0,0.798 -0.605,1.33 -1.301,1.33" style="fill:#fff;fill-rule:nonzero;"/></svg>