<?xml version="1.0" standalone="no"?><!DOCTYPE svg PUBLIC "-//W3C//DTD SVG 1.1//EN" "http://www.w3.org/Graphics/SVG/1.1/DTD/svg11.dtd"><svg width="100%" height="100%" viewBox="0 0 140 140" version="1.1" xmlns="http://www.w3.org/2000/svg" xmlns:xlink="http://www.w3.org/1999/xlink" xml:space="preserve" style="fill-rule:evenodd;clip-rule:evenodd;stroke-linejoin:round;stroke-miterlimit:1.41421;"><rect x="0" y="0" width="140" height="140" style="fill:#727272;"/><g><text x="53.2px" y="101.928px" style="font-family:Avenir Next Condensed;font-size:15px;font-weight:600;font-stretch:condensed;fill:#fff;">NEWS</text><g><path d="M80.458,77.606l-3.737,0c-1.582,-0.213 -2.817,-1.238 -3.699,-3.981c7.157,-1.448 12.244,-7.98 12.244,-16.326c0,-0.995 -0.804,-1.799 -1.8,-1.799c-0.995,0 -1.799,0.804 -1.799,1.799c0,7.429 -5.017,13.03 -11.668,13.03c-6.649,0 -11.665,-5.601 -11.665,-13.03c0,-0.995 -0.806,-1.799 -1.799,-1.799c-0.995,0 -1.801,0.804 -1.801,1.799c0,8.262 4.988,14.75 12.03,16.282c-0.887,2.78 -2.124,3.81 -3.716,4.025l-3.734,0c-1.402,0 -2.549,1.147 -2.549,2.552l0,1.25c0,0.56 0.457,1.021 1.02,1.021l24.203,0c0.561,0 1.018,-0.461 1.018,-1.021l0,-1.25c0,-1.405 -1.146,-2.552 -2.548,-2.552Z" style="fill:#fff;fill-rule:nonzero;"/><path d="M70.515,35.584l-1.033,-0.002c-4.856,0 -8.83,3.974 -8.83,8.831l0,13.605c0,4.856 3.974,8.83 8.83,8.83l1.033,-0.002c4.857,0.003 8.832,-3.972 8.832,-8.828l0,-13.607c0,-4.855 -3.975,-8.831 -8.832,-8.827ZM75.847,58.018c0,1.413 -0.556,2.748 -1.568,3.76c-1.011,1.011 -2.346,1.568 -3.758,1.568l-1.039,0.002c-2.938,0 -5.33,-2.391 -5.33,-5.33l0,-13.605c0,-2.94 2.392,-5.331 5.33,-5.331l1.028,0.002c2.949,0 5.337,2.389 5.337,5.327l0,13.607Z" style="fill:#fff;fill-rule:nonzero;"/></g></g></svg>