<?xml version="1.0" standalone="no"?><!DOCTYPE svg PUBLIC "-//W3C//DTD SVG 1.1//EN" "http://www.w3.org/Graphics/SVG/1.1/DTD/svg11.dtd"><svg width="100%" height="100%" viewBox="0 0 140 140" version="1.1" xmlns="http://www.w3.org/2000/svg" xmlns:xlink="http://www.w3.org/1999/xlink" xml:space="preserve" style="fill-rule:evenodd;clip-rule:evenodd;stroke-linejoin:round;stroke-miterlimit:1.41421;"><rect x="0" y="0" width="140" height="140" style="fill:#2dc51f;"/><g><g><text x="41.275px" y="99.216px" style="font-family:Avenir Next Condensed;font-size:15px;font-weight:600;font-stretch:condensed;fill:#fff;">P</text><text x="48.07px" y="99.216px" style="font-family:Avenir Next Condensed;font-size:15px;font-weight:600;font-stretch:condensed;fill:#fff;">ARTNERS</text></g><g><path d="M72.375,56.03c0.029,0 0.056,-0.017 0.087,-0.024c0.416,1.407 0.94,2.704 1.581,3.819c0,0 0.573,3.102 0.018,4.544c-0.234,0.603 -1.612,1.385 -3.21,2.141c-0.101,0.111 -0.192,0.223 -0.304,0.337l1.58,0.706c2.099,0.95 3.853,3.479 4.166,6.02c0.761,5.708 0.845,6.4 0.859,6.721l18.781,0c0.033,-0.106 0.067,-0.209 0.067,-0.316c0,-0.019 -0.017,-0.041 -0.017,-0.058l-0.937,-7.229c-0.181,-1.428 -1.561,-3.28 -2.623,-3.827c-1.052,-0.546 -8.148,-3.052 -8.708,-4.495c-0.563,-1.442 0.017,-4.544 0.017,-4.544c0.637,-1.115 1.162,-2.412 1.58,-3.819c0.028,0.007 0.053,0.024 0.09,0.024c0.955,0 1.781,-1.551 1.986,-2.871c0.222,-1.408 0.188,-2.714 -0.772,-2.714c-0.06,0 -0.128,0.014 -0.192,0.018c1.625,-4.79 -1.404,-10.169 -7.539,-10.169c-6.132,0 -9.166,5.379 -7.534,10.169c-0.067,-0.004 -0.134,-0.018 -0.195,-0.018c-0.959,0 -0.988,1.306 -0.77,2.714c0.207,1.32 1.029,2.871 1.989,2.871l0,0Z" style="fill:#fff;fill-rule:nonzero;"/><path d="M74.515,80.294c-0.1,-0.854 -0.814,-6.235 -0.814,-6.235c-0.163,-1.308 -1.175,-2.774 -2.259,-3.261l-7.825,-3.512l0,-0.061c5.908,-1.547 7.23,-5.931 7.23,-5.931c0,0 -4.546,-0.755 -3.476,-8.415c0.089,-0.609 0.089,-1.156 0.05,-1.671c0.087,-4.112 -2.936,-7.923 -8.164,-7.923c-5.226,0 -8.257,3.814 -8.164,7.929c-0.03,0.515 -0.03,1.056 0.049,1.665c1.068,7.66 -3.474,8.415 -3.474,8.415c0,0 1.246,4.424 7.193,5.944l0,0.048l-7.833,3.512c-1.079,0.487 -2.097,1.953 -2.255,3.261l-0.773,6.235l30.515,0Z" style="fill:#fff;fill-rule:nonzero;"/></g></g></svg>