<?xml version="1.0" standalone="no"?><!DOCTYPE svg PUBLIC "-//W3C//DTD SVG 1.1//EN" "http://www.w3.org/Graphics/SVG/1.1/DTD/svg11.dtd"><svg width="100%" height="100%" viewBox="0 0 140 140" version="1.1" xmlns="http://www.w3.org/2000/svg" xmlns:xlink="http://www.w3.org/1999/xlink" xml:space="preserve" style="fill-rule:evenodd;clip-rule:evenodd;stroke-linejoin:round;stroke-miterlimit:1.41421;"><rect x="0" y="0" width="140" height="140" style="fill:#bac415;"/><g><g><text x="47.065px" y="98.51px" style="font-family:Avenir Next Condensed;font-size:15px;font-weight:600;font-stretch:condensed;fill:#fff;">PHO</text><text x="71.815px" y="98.51px" style="font-family:Avenir Next Condensed;font-size:15px;font-weight:600;font-stretch:condensed;fill:#fff;">T<tspan x="77.335px 86.2px " y="98.51px 98.51px ">OS</tspan></text></g><path d="M72.976,52.949c-5.129,0 -9.285,4.154 -9.285,9.283c0,5.132 4.156,9.286 9.285,9.286c5.128,0 9.285,-4.154 9.285,-9.286c0,-5.129 -4.157,-9.283 -9.285,-9.283ZM71.898,60.875c-1.63,1.629 -3.862,2.038 -4.986,0.918c-1.121,-1.125 -0.708,-3.352 0.918,-4.984c1.634,-1.632 3.863,-2.04 4.988,-0.92c1.119,1.122 0.707,3.353 -0.92,4.986l0,0ZM78.447,67.425c-0.885,0.887 -2.061,1.148 -2.618,0.589c-0.561,-0.561 -0.3,-1.734 0.587,-2.62c0.884,-0.889 2.06,-1.15 2.62,-0.589c0.56,0.56 0.298,1.733 -0.589,2.62l0,0ZM90.408,43.629l-20.901,0c-1.402,0 -3.189,0.521 -3.966,1.161c-0.78,0.639 -2.566,1.163 -3.969,1.163l-2.415,0l0,-1.303c0,-0.563 -0.46,-1.021 -1.022,-1.021l-6.61,0c-0.562,0 -1.022,0.458 -1.022,1.021l0,1.303l-0.911,0c-1.405,0 -2.552,1.147 -2.552,2.551l0,27.236c0,1.403 1.147,2.55 2.552,2.55l40.816,0c1.404,0 2.552,-1.147 2.552,-2.55l0,-29.561c0,-1.402 -1.148,-2.55 -2.552,-2.55l0,0ZM72.976,74.191c-6.604,0 -11.958,-5.352 -11.958,-11.959c0,-6.605 5.354,-11.955 11.958,-11.955c6.604,0 11.957,5.35 11.957,11.955c0,6.607 -5.353,11.959 -11.957,11.959ZM90.029,49.905c0,0.561 -0.458,1.02 -1.022,1.02l-5.549,0c-0.564,0 -1.021,-0.459 -1.021,-1.02l0,-2.36c0,-0.563 0.457,-1.022 1.021,-1.022l5.549,0c0.564,0 1.022,0.459 1.022,1.022l0,2.36Z" style="fill:#fff;fill-rule:nonzero;"/></g></svg>