<?xml version="1.0" standalone="no"?><!DOCTYPE svg PUBLIC "-//W3C//DTD SVG 1.1//EN" "http://www.w3.org/Graphics/SVG/1.1/DTD/svg11.dtd"><svg width="100%" height="100%" viewBox="0 0 140 140" version="1.1" xmlns="http://www.w3.org/2000/svg" xmlns:xlink="http://www.w3.org/1999/xlink" xml:space="preserve" style="fill-rule:evenodd;clip-rule:evenodd;stroke-linejoin:round;stroke-miterlimit:1.41421;"><rect x="0" y="0" width="140" height="140" style="fill:#727272;"/><g><text x="46.675px" y="102.51px" style="font-family:Avenir Next Condensed;font-size:15px;font-weight:600;font-stretch:condensed;fill:#fff;">PROFILE</text><path d="M87.921,36l-29.497,0c-0.011,0 -0.018,0.004 -0.03,0.004l-0.002,-0.004c-3.682,0 -6.487,2.126 -7.14,3.919c-0.156,0.363 -0.248,0.754 -0.248,1.174l0,2.227c0,0.008 -0.004,0.019 -0.004,0.025l0,35.57c0,0.581 0.566,3.085 3.908,3.085l31.453,0c0.581,0 1.055,-0.469 1.055,-1.05l0,-37.605c0,-0.58 -0.474,-1.049 -1.055,-1.049l-31.596,0c0.966,-1.33 2.945,-2.5 5.683,-2.5l27.749,0c0.361,0 0.617,0.113 0.803,0.294l0,-3.014c0,-0.59 -0.485,-1.076 -1.079,-1.076ZM60.41,67.322c0.11,-0.749 0.937,-1.718 1.572,-2.008c0.634,-0.289 4.379,-1.603 4.714,-2.36c0.337,-0.757 -0.009,-2.377 -0.009,-2.377c-0.38,-0.589 -0.698,-1.265 -0.947,-2c-0.016,0.002 -0.035,0.009 -0.055,0.009c-0.576,0 -1.07,-0.81 -1.191,-1.504c-0.136,-0.74 -0.116,-1.423 0.461,-1.423c0.035,0 0.078,0.01 0.116,0.01c-0.976,-2.517 0.845,-5.335 4.526,-5.335c3.681,0 5.501,2.818 4.526,5.335c0.04,0 0.083,-0.01 0.116,-0.01c0.576,0 0.596,0.683 0.463,1.423c-0.123,0.694 -0.617,1.504 -1.193,1.504c-0.019,0 -0.035,-0.007 -0.053,-0.009c-0.25,0.735 -0.569,1.411 -0.948,2c0,0 -0.347,1.62 -0.01,2.377c0.336,0.757 4.082,2.071 4.715,2.36c0.637,0.29 1.464,1.259 1.573,2.008l0.564,3.791c0,0.013 0.007,0.021 0.007,0.031c0,1.119 -3.784,2.035 -9.756,2.035c-5.976,0 -9.762,-0.916 -9.762,-2.035l0.571,-3.822Z" style="fill:#fff;fill-rule:nonzero;"/></g></svg>