<?xml version="1.0" standalone="no"?><!DOCTYPE svg PUBLIC "-//W3C//DTD SVG 1.1//EN" "http://www.w3.org/Graphics/SVG/1.1/DTD/svg11.dtd"><svg width="100%" height="100%" viewBox="0 0 140 140" version="1.1" xmlns="http://www.w3.org/2000/svg" xmlns:xlink="http://www.w3.org/1999/xlink" xml:space="preserve" style="fill-rule:evenodd;clip-rule:evenodd;stroke-linejoin:round;stroke-miterlimit:1.41421;"><rect x="0" y="0" width="140" height="140" style="fill:#00908d;"/><g><text x="40.442px" y="100.926px" style="font-family:Avenir Next Condensed;font-size:15px;font-weight:600;font-stretch:condensed;fill:#fff;">SCHEDULE</text><g><path d="M86.484,62.918l-9.903,3.427l-2.352,-0.701c-0.26,0.917 -0.489,1.943 -0.676,3.064l2.135,0.635l0.964,0.287l0.952,-0.329l7.195,-2.491l4.316,9.631l-10.743,3.699l-16.166,-4.815l-0.965,-0.287l-0.951,0.329l-8.291,2.87l3.747,-9.639l8.044,-2.8l2.05,0.612c-0.36,-1.424 -0.787,-2.635 -1.21,-3.624l-0.914,-0.274l-10.362,3.607l-6.721,17.286l14.679,-5.082l17.129,5.102l14.926,-5.141l-6.883,-15.366l0,0Z" style="fill:#fff;fill-rule:nonzero;"/><path d="M69.935,34.584c-6.809,0 -12.348,5.538 -12.348,12.345c0,4.545 2.671,8.397 6.49,10.865c0.445,0.29 4.759,5.862 4.759,16.261c0,0.475 0.626,0.857 1.099,0.857c0.473,0 1.1,-0.382 1.1,-0.857c0,-10.511 4.343,-15.995 4.754,-16.258c3.835,-2.449 6.492,-6.321 6.492,-10.868c0,-6.807 -5.539,-12.345 -12.346,-12.345l0,0ZM69.935,41.781c2.884,0 5.23,2.346 5.23,5.23c0,2.885 -2.346,5.231 -5.23,5.231c-2.887,0 -5.232,-2.346 -5.232,-5.231c0,-2.884 2.345,-5.23 5.232,-5.23l0,0Z" style="fill:#fff;fill-rule:nonzero;"/></g></g></svg>