<?xml version="1.0" standalone="no"?><!DOCTYPE svg PUBLIC "-//W3C//DTD SVG 1.1//EN" "http://www.w3.org/Graphics/SVG/1.1/DTD/svg11.dtd"><svg width="100%" height="100%" viewBox="0 0 740 319" version="1.1" xmlns="http://www.w3.org/2000/svg" xmlns:xlink="http://www.w3.org/1999/xlink" xml:space="preserve" style="fill-rule:evenodd;clip-rule:evenodd;stroke-linejoin:round;stroke-miterlimit:1.41421;"><path d="M567.86,0.22c-10.08,26.6 -20.58,54.11 -31.5,82.53c-10.92,28.42 -21.77,56.56 -32.55,84.42c-10.78,27.86 -21.14,54.67 -31.08,80.43c-9.94,25.76 -18.83,49.28 -26.67,70.56l-68.88,-170.52c-1.12,-2.52 -1.82,-4.2 -2.1,-5.04c-0.28,-0.84 -0.7,-2.52 -1.26,-5.04c-0.28,1.12 -0.49,2.24 -0.63,3.36c-0.14,1.12 -0.35,2.1 -0.63,2.94c-0.28,1.12 -0.7,2.24 -1.26,3.36c-10.08,22.12 -19.74,43.68 -28.98,64.68c-3.92,8.96 -8.05,18.27 -12.39,27.93c-4.34,9.66 -8.61,19.18 -12.81,28.56c-4.2,9.38 -8.26,18.41 -12.18,27.09c-3.92,8.68 -7.42,16.52 -10.5,23.52c-20.16,-53.48 -40.46,-106.61 -60.9,-159.39c-20.44,-52.78 -40.74,-105.91 -60.9,-159.39l58.38,0c12.6,35.56 24.71,69.02 36.33,100.38c11.62,31.36 20.65,59.22 27.09,83.58c0.56,2.24 1.12,4.76 1.68,7.56c0.56,2.8 1.12,5.32 1.68,7.56c0,-1.68 0.63,-4.13 1.89,-7.35c1.26,-3.22 2.17,-5.67 2.73,-7.35c0.28,-1.4 1.26,-3.99 2.94,-7.77c1.68,-3.78 3.64,-8.19 5.88,-13.23c2.24,-5.04 4.76,-10.57 7.56,-16.59c2.8,-6.02 5.6,-12.11 8.4,-18.27c6.72,-14.28 14,-29.96 21.84,-47.04c-3.92,-11.76 -7.56,-22.96 -10.92,-33.6c-3.08,-8.96 -6.09,-17.99 -9.03,-27.09c-2.94,-9.1 -5.11,-16.03 -6.51,-20.79l49.56,0c12.04,31.08 22.96,59.5 32.76,85.26c4.2,10.92 8.4,21.77 12.6,32.55c4.2,10.78 7.98,20.72 11.34,29.82c3.36,9.1 6.23,16.87 8.61,23.31c2.38,6.44 3.99,10.78 4.83,13.02c1.12,2.52 1.82,4.97 2.1,7.35c0.28,2.38 0.7,4.83 1.26,7.35c0.56,-2.52 1.05,-5.04 1.47,-7.56c0.42,-2.52 0.91,-4.9 1.47,-7.14c2.8,-12.6 6.65,-26.11 11.55,-40.53c4.9,-14.42 10.29,-29.47 16.17,-45.15c5.88,-15.68 12.11,-31.78 18.69,-48.3c6.58,-16.52 12.95,-33.18 19.11,-49.98l53.76,0Z" style="fill:url(#_Linear1);fill-rule:nonzero;"/><path d="M149.525,168.946l2.65,0l2.175,6.025l2.2,-6.025l2.625,0l-3.025,7.9l2.65,6.525l5.525,-14.5l3.075,0l-7.325,17.75l-2.4,0l-3.3,-7.95l-3.325,7.95l-2.4,0l-7.325,-17.75l3.05,0l5.55,14.5l2.65,-6.525l-3.05,-7.9l0,0Z" style="fill:#004267;fill-rule:nonzero;"/><path d="M212.625,186.746c-1.267,0 -2.421,-0.254 -3.462,-0.762c-1.042,-0.508 -1.938,-1.183 -2.688,-2.025c-0.75,-0.842 -1.329,-1.804 -1.737,-2.888c-0.409,-1.083 -0.613,-2.191 -0.613,-3.325c0,-1.183 0.217,-2.316 0.65,-3.4c0.433,-1.083 1.029,-2.041 1.788,-2.875c0.758,-0.833 1.658,-1.495 2.7,-1.987c1.041,-0.492 2.179,-0.738 3.412,-0.738c1.267,0 2.421,0.263 3.463,0.788c1.041,0.525 1.933,1.212 2.675,2.062c0.741,0.85 1.316,1.813 1.725,2.888c0.408,1.075 0.612,2.171 0.612,3.287c0,1.184 -0.212,2.317 -0.637,3.4c-0.425,1.084 -1.021,2.038 -1.788,2.863c-0.767,0.825 -1.671,1.483 -2.712,1.975c-1.042,0.492 -2.171,0.737 -3.388,0.737l0,0ZM206.975,177.746c0,0.834 0.133,1.642 0.4,2.425c0.267,0.784 0.646,1.475 1.138,2.075c0.491,0.6 1.087,1.08 1.787,1.438c0.7,0.358 1.483,0.537 2.35,0.537c0.9,0 1.696,-0.187 2.388,-0.562c0.691,-0.375 1.279,-0.871 1.762,-1.488c0.483,-0.616 0.85,-1.308 1.1,-2.075c0.25,-0.766 0.375,-1.55 0.375,-2.35c0,-0.85 -0.133,-1.662 -0.4,-2.437c-0.267,-0.775 -0.646,-1.458 -1.137,-2.05c-0.492,-0.592 -1.084,-1.067 -1.775,-1.425c-0.692,-0.358 -1.463,-0.538 -2.313,-0.538c-0.9,0 -1.7,0.188 -2.4,0.563c-0.7,0.375 -1.292,0.862 -1.775,1.462c-0.483,0.6 -0.854,1.288 -1.112,2.063c-0.259,0.775 -0.388,1.562 -0.388,2.362l0,0Z" style="fill:#004267;fill-rule:nonzero;"/><path d="M258.825,184.471l10.775,-13.125l-10.525,0l0,-2.475l13.8,0l0,2.15l-10.525,13.125l10.55,0l0,2.475l-14.075,0l0,-2.15l0,0Z" style="fill:#004267;fill-rule:nonzero;"/><path d="M324.575,174.121l0,12.5l-2.8,0l0,-17.75l2.2,0l10.15,12.8l0,-12.775l2.825,0l0,17.725l-2.325,0l-10.05,-12.5l0,0Z" style="fill:#004267;fill-rule:nonzero;"/><rect x="372.45" y="168.871" width="2.8" height="17.75" style="fill:#004267;"/><path d="M414.725,168.871l2.45,0l7,17.75l-2.95,0l-1.875,-4.825l-6.85,0l-1.85,4.825l-2.975,0l7.05,-17.75l0,0ZM418.8,179.721l-2.85,-7.625l-2.95,7.625l5.8,0Z" style="fill:#004267;fill-rule:nonzero;"/><path d="M467.5,177.621c0,-1.066 0.192,-2.129 0.575,-3.187c0.383,-1.058 0.946,-2.008 1.688,-2.85c0.741,-0.842 1.645,-1.521 2.712,-2.038c1.067,-0.516 2.275,-0.775 3.625,-0.775c1.617,0 3,0.359 4.15,1.075c1.15,0.717 2.017,1.65 2.6,2.8l-2.2,1.475c-0.25,-0.533 -0.55,-0.983 -0.9,-1.35c-0.35,-0.366 -0.733,-0.658 -1.15,-0.875c-0.417,-0.216 -0.85,-0.37 -1.3,-0.462c-0.45,-0.092 -0.883,-0.138 -1.3,-0.138c-0.933,0 -1.75,0.188 -2.45,0.563c-0.7,0.375 -1.287,0.871 -1.762,1.487c-0.475,0.617 -0.834,1.309 -1.075,2.075c-0.242,0.767 -0.363,1.534 -0.363,2.3c0,0.867 0.142,1.692 0.425,2.475c0.283,0.784 0.679,1.475 1.188,2.075c0.508,0.6 1.112,1.08 1.812,1.438c0.7,0.358 1.467,0.537 2.3,0.537c0.433,0 0.879,-0.054 1.338,-0.162c0.458,-0.108 0.9,-0.283 1.325,-0.525c0.425,-0.242 0.816,-0.546 1.175,-0.913c0.358,-0.366 0.654,-0.808 0.887,-1.325l2.325,1.325c-0.283,0.667 -0.683,1.255 -1.2,1.763c-0.517,0.508 -1.1,0.937 -1.75,1.287c-0.65,0.35 -1.337,0.617 -2.062,0.8c-0.725,0.184 -1.438,0.275 -2.138,0.275c-1.25,0 -2.392,-0.266 -3.425,-0.8c-1.033,-0.533 -1.925,-1.229 -2.675,-2.087c-0.75,-0.858 -1.333,-1.833 -1.75,-2.925c-0.417,-1.092 -0.625,-2.204 -0.625,-3.338l0,0Z" style="fill:#004267;fill-rule:nonzero;"/><path d="M523.225,186.621l0,-17.725l2.8,0l0,9.125l8.35,-9.15l3.1,0l-7,7.85l7.4,9.9l-3.125,0l-6,-8.175l-2.725,2.825l0,5.35l-2.8,0l0,0Z" style="fill:#004267;fill-rule:nonzero;"/><rect x="576.475" y="168.871" width="2.8" height="17.75" style="fill:#004267;"/><path d="M0.2,88.916c0,-4.334 0.783,-8.617 2.35,-12.85c1.567,-4.234 3.85,-8.017 6.85,-11.35c3,-3.334 6.667,-6.034 11,-8.1c4.333,-2.067 9.267,-3.1 14.8,-3.1c6.533,0 12.183,1.433 16.95,4.3c4.767,2.866 8.317,6.6 10.65,11.2l-10.6,7.3c-0.933,-2 -2.067,-3.684 -3.4,-5.05c-1.333,-1.367 -2.767,-2.45 -4.3,-3.25c-1.533,-0.8 -3.133,-1.384 -4.8,-1.75c-1.667,-0.367 -3.3,-0.55 -4.9,-0.55c-3.467,0 -6.483,0.7 -9.05,2.1c-2.567,1.4 -4.7,3.216 -6.4,5.45c-1.7,2.233 -2.983,4.766 -3.85,7.6c-0.867,2.833 -1.3,5.65 -1.3,8.45c0,3.133 0.5,6.15 1.5,9.05c1,2.9 2.417,5.45 4.25,7.65c1.833,2.2 4.033,3.966 6.6,5.3c2.567,1.333 5.383,2 8.45,2c1.6,0 3.267,-0.2 5,-0.6c1.733,-0.4 3.383,-1.034 4.95,-1.9c1.567,-0.867 3.017,-1.984 4.35,-3.35c1.333,-1.367 2.4,-3.017 3.2,-4.95l11.3,6.5c-1.133,2.666 -2.75,5.016 -4.85,7.05c-2.1,2.033 -4.467,3.75 -7.1,5.15c-2.633,1.4 -5.45,2.466 -8.45,3.2c-3,0.733 -5.933,1.1 -8.8,1.1c-5.067,0 -9.7,-1.067 -13.9,-3.2c-4.2,-2.134 -7.817,-4.917 -10.85,-8.35c-3.033,-3.434 -5.4,-7.334 -7.1,-11.7c-1.7,-4.367 -2.55,-8.817 -2.55,-13.35l0,0Z" style="fill:#004267;fill-rule:nonzero;"/><path d="M128.3,53.916l12.2,0l27,71l-14.2,0l-6.6,-17.7l-24.8,0l-6.5,17.7l-14.2,0l27.1,-71ZM144.2,97.516l-9.8,-27.9l-10.2,27.9l20,0Z" style="fill:#004267;fill-rule:nonzero;"/><path d="M210.3,124.916l0,-71l31.4,0c3.267,0 6.283,0.683 9.05,2.05c2.767,1.366 5.15,3.166 7.15,5.4c2,2.233 3.567,4.766 4.7,7.6c1.133,2.833 1.7,5.683 1.7,8.55c0,4.6 -1.15,8.783 -3.45,12.55c-2.3,3.766 -5.417,6.483 -9.35,8.15l16.2,26.7l-15.5,0l-14.5,-23.8l-13.6,0l0,23.8l-13.8,0l0,0ZM224.1,89.016l17.3,0c1.267,0 2.45,-0.3 3.55,-0.9c1.1,-0.6 2.05,-1.417 2.85,-2.45c0.8,-1.034 1.433,-2.25 1.9,-3.65c0.467,-1.4 0.7,-2.9 0.7,-4.5c0,-1.667 -0.267,-3.2 -0.8,-4.6c-0.533,-1.4 -1.25,-2.617 -2.15,-3.65c-0.9,-1.034 -1.933,-1.834 -3.1,-2.4c-1.167,-0.567 -2.35,-0.85 -3.55,-0.85l-16.7,0l0,23Z" style="fill:#004267;fill-rule:nonzero;"/><path d="M342.1,125.416c-5.2,0 -9.917,-1.017 -14.15,-3.05c-4.233,-2.034 -7.867,-4.734 -10.9,-8.1c-3.033,-3.367 -5.383,-7.217 -7.05,-11.55c-1.667,-4.334 -2.5,-8.767 -2.5,-13.3c0,-4.734 0.883,-9.267 2.65,-13.6c1.767,-4.334 4.2,-8.167 7.3,-11.5c3.1,-3.334 6.783,-5.984 11.05,-7.95c4.267,-1.967 8.9,-2.95 13.9,-2.95c5.133,0 9.817,1.05 14.05,3.15c4.233,2.1 7.85,4.85 10.85,8.25c3,3.4 5.333,7.266 7,11.6c1.667,4.333 2.5,8.733 2.5,13.2c0,4.733 -0.867,9.25 -2.6,13.55c-1.733,4.3 -4.133,8.1 -7.2,11.4c-3.067,3.3 -6.733,5.933 -11,7.9c-4.267,1.966 -8.9,2.95 -13.9,2.95l0,0ZM321.5,89.416c0,3.066 0.467,6.033 1.4,8.9c0.933,2.866 2.283,5.4 4.05,7.6c1.767,2.2 3.933,3.966 6.5,5.3c2.567,1.333 5.483,2 8.75,2c3.333,0 6.283,-0.684 8.85,-2.05c2.567,-1.367 4.733,-3.184 6.5,-5.45c1.767,-2.267 3.1,-4.817 4,-7.65c0.9,-2.834 1.35,-5.717 1.35,-8.65c0,-3.067 -0.483,-6.034 -1.45,-8.9c-0.967,-2.867 -2.333,-5.4 -4.1,-7.6c-1.767,-2.2 -3.933,-3.95 -6.5,-5.25c-2.567,-1.3 -5.45,-1.95 -8.65,-1.95c-3.333,0 -6.3,0.683 -8.9,2.05c-2.6,1.366 -4.767,3.166 -6.5,5.4c-1.733,2.233 -3.05,4.766 -3.95,7.6c-0.9,2.833 -1.35,5.716 -1.35,8.65l0,0Z" style="fill:#004267;fill-rule:nonzero;"/><path d="M422.4,124.916l0,-71l13.8,0l0,58.9l36.2,0l0,12.1l-50,0Z" style="fill:#004267;fill-rule:nonzero;"/><rect x="515.8" y="53.916" width="13.8" height="71" style="fill:#004267;"/><path d="M593.2,79.416l0,45.5l-13.8,0l0,-71l10.7,0l37,46.6l0,-46.5l13.8,0l0,70.9l-11.2,0l-36.5,-45.5Z" style="fill:#004267;fill-rule:nonzero;"/><path d="M740,112.816l0,12.1l-49.3,0l0,-71l48.4,0l0,12.1l-34.6,0l0,17.1l29.9,0l0,11.2l-29.9,0l0,18.5l35.5,0Z" style="fill:#004267;fill-rule:nonzero;"/><defs><linearGradient id="_Linear1" x1="0" y1="0" x2="1" y2="0" gradientUnits="userSpaceOnUse" gradientTransform="matrix(128,196,-196,128,320,112)"><stop offset="0%" style="stop-color:#1eb3af;stop-opacity:1"/><stop offset="50%" style="stop-color:#009c7d;stop-opacity:1"/><stop offset="100%" style="stop-color:#7fbba2;stop-opacity:1"/></linearGradient></defs></svg>