<?xml version="1.0" standalone="no"?><!DOCTYPE svg PUBLIC "-//W3C//DTD SVG 1.1//EN" "http://www.w3.org/Graphics/SVG/1.1/DTD/svg11.dtd"><svg width="100%" height="100%" viewBox="0 0 92 134" version="1.1" xmlns="http://www.w3.org/2000/svg" xmlns:xlink="http://www.w3.org/1999/xlink" xml:space="preserve" style="fill-rule:evenodd;clip-rule:evenodd;stroke-linejoin:round;stroke-miterlimit:1.41421;"><g id="caroline"><path d="M0,134l0,-105.171c5.23,13.505 21.424,57.25 26.583,70.935c0.788,-1.793 1.685,-3.801 2.689,-6.025c1.004,-2.223 2.044,-4.536 3.12,-6.938c1.075,-2.403 2.169,-4.841 3.281,-7.316c1.111,-2.474 2.169,-4.858 3.173,-7.153c2.367,-5.379 4.841,-10.901 7.423,-16.567c0.143,-0.287 0.251,-0.574 0.323,-0.861c0.071,-0.215 0.125,-0.466 0.161,-0.753c0.036,-0.287 0.09,-0.573 0.161,-0.86c0.144,0.645 0.251,1.075 0.323,1.291c0.072,0.215 0.251,0.645 0.538,1.29l17.642,43.676c2.009,-5.45 4.286,-11.474 6.832,-18.072c2.546,-6.598 5.199,-13.465 7.96,-20.601l0.791,-2.046l11,-30l0,105.171l-92,0ZM75.174,124.127c-1.175,0 -2.242,-0.23 -3.199,-0.689c-0.957,-0.46 -1.778,-1.07 -2.464,-1.831c-0.686,-0.762 -1.217,-1.632 -1.594,-2.612c-0.377,-0.979 -0.565,-1.981 -0.565,-3.006c0,-1.07 0.2,-2.095 0.599,-3.075c0.4,-0.979 0.95,-1.846 1.65,-2.6c0.701,-0.753 1.534,-1.352 2.499,-1.797c0.964,-0.445 2.012,-0.667 3.142,-0.667c1.16,0 2.219,0.238 3.176,0.712c0.957,0.475 1.775,1.097 2.453,1.865c0.678,0.769 1.206,1.643 1.583,2.623c0.376,0.979 0.565,1.974 0.565,2.984c0,1.07 -0.196,2.091 -0.588,3.063c-0.392,0.972 -0.934,1.831 -1.628,2.577c-0.693,0.746 -1.522,1.342 -2.487,1.786c-0.964,0.445 -2.012,0.667 -3.142,0.667ZM34.241,107.963l2.758,0l6.104,16.051l-3.211,0l-1.492,-4.001l-5.606,0l-1.47,4.001l-3.21,0l6.127,-16.051ZM49.078,124.014l0,-16.051l7.099,0c0.738,0 1.42,0.155 2.046,0.464c0.625,0.309 1.164,0.716 1.616,1.22c0.452,0.505 0.806,1.078 1.063,1.719c0.256,0.64 0.384,1.284 0.384,1.932c0,1.04 -0.26,1.986 -0.78,2.838c-0.52,0.851 -1.224,1.465 -2.114,1.842l3.663,6.036l-3.504,0l-3.278,-5.38l-3.075,0l0,5.38l-3.12,0ZM8.981,115.876c0,-0.98 0.177,-1.948 0.532,-2.905c0.354,-0.957 0.87,-1.813 1.548,-2.566c0.678,-0.754 1.507,-1.364 2.487,-1.831c0.98,-0.468 2.095,-0.701 3.346,-0.701c1.477,0 2.754,0.324 3.832,0.972c1.077,0.648 1.88,1.492 2.407,2.532l-2.396,1.65c-0.211,-0.452 -0.467,-0.833 -0.769,-1.141c-0.301,-0.309 -0.625,-0.554 -0.972,-0.735c-0.346,-0.181 -0.708,-0.313 -1.085,-0.396c-0.377,-0.083 -0.746,-0.124 -1.108,-0.124c-0.783,0 -1.465,0.158 -2.046,0.475c-0.58,0.316 -1.062,0.727 -1.446,1.232c-0.385,0.505 -0.675,1.077 -0.871,1.718c-0.196,0.64 -0.294,1.277 -0.294,1.91c0,0.708 0.113,1.39 0.339,2.046c0.226,0.656 0.547,1.232 0.961,1.729c0.415,0.498 0.912,0.897 1.492,1.199c0.58,0.301 1.217,0.452 1.911,0.452c0.361,0 0.738,-0.045 1.13,-0.136c0.392,-0.09 0.765,-0.233 1.119,-0.429c0.354,-0.196 0.682,-0.449 0.983,-0.758c0.302,-0.309 0.543,-0.682 0.724,-1.119l2.554,1.47c-0.256,0.603 -0.621,1.134 -1.096,1.593c-0.475,0.46 -1.01,0.848 -1.605,1.165c-0.596,0.316 -1.232,0.557 -1.91,0.723c-0.679,0.166 -1.342,0.249 -1.99,0.249c-1.145,0 -2.193,-0.241 -3.142,-0.724c-0.95,-0.482 -1.767,-1.111 -2.453,-1.887c-0.686,-0.776 -1.221,-1.658 -1.605,-2.645c-0.385,-0.987 -0.577,-1.993 -0.577,-3.018ZM70.517,115.989c0,0.693 0.106,1.364 0.317,2.012c0.211,0.648 0.516,1.22 0.915,1.718c0.4,0.497 0.889,0.897 1.47,1.198c0.58,0.301 1.239,0.452 1.978,0.452c0.753,0 1.42,-0.154 2,-0.463c0.581,-0.309 1.07,-0.72 1.47,-1.232c0.399,-0.513 0.701,-1.089 0.904,-1.73c0.204,-0.64 0.305,-1.292 0.305,-1.955c0,-0.694 -0.109,-1.364 -0.327,-2.012c-0.219,-0.648 -0.528,-1.221 -0.927,-1.718c-0.4,-0.498 -0.89,-0.893 -1.47,-1.187c-0.58,-0.294 -1.232,-0.441 -1.955,-0.441c-0.754,0 -1.425,0.154 -2.012,0.463c-0.588,0.309 -1.078,0.716 -1.47,1.221c-0.392,0.505 -0.689,1.078 -0.893,1.718c-0.203,0.641 -0.305,1.293 -0.305,1.956ZM37.835,117.82l-2.215,-6.307l-2.306,6.307l4.521,0ZM52.198,115.898l3.911,0c0.286,0 0.554,-0.068 0.803,-0.203c0.248,-0.136 0.463,-0.32 0.644,-0.554c0.181,-0.234 0.324,-0.509 0.429,-0.825c0.106,-0.317 0.159,-0.656 0.159,-1.018c0,-0.376 -0.061,-0.723 -0.181,-1.039c-0.121,-0.317 -0.283,-0.592 -0.486,-0.826c-0.204,-0.233 -0.437,-0.414 -0.701,-0.542c-0.264,-0.128 -0.531,-0.192 -0.803,-0.192l-3.775,0l0,5.199Z" style="fill:url(#_Radial1);"/></g><path id="top" d="M81,23.063c-0.996,2.631 -2.013,5.248 -3.05,7.852c-1.685,4.231 -3.281,8.355 -4.787,12.371c-1.506,4.016 -2.887,7.871 -4.142,11.565c-1.255,3.693 -2.241,7.153 -2.958,10.381c-0.144,0.573 -0.269,1.183 -0.377,1.828c-0.107,0.646 -0.233,1.291 -0.376,1.937c-0.144,-0.646 -0.251,-1.273 -0.323,-1.883c-0.072,-0.609 -0.251,-1.237 -0.538,-1.882c-0.215,-0.574 -0.627,-1.686 -1.237,-3.335c-0.609,-1.65 -1.345,-3.64 -2.205,-5.971c-0.861,-2.331 -1.829,-4.876 -2.905,-7.638c-1.075,-2.761 -2.151,-5.54 -3.227,-8.337c-2.51,-6.598 -5.307,-13.877 -8.391,-21.838l-12.694,0c0.359,1.219 0.914,2.994 1.668,5.325c0.753,2.331 1.524,4.644 2.312,6.939c0.861,2.725 1.793,5.594 2.797,8.606c-2.008,4.375 -3.872,8.391 -5.594,12.049c-0.717,1.577 -1.434,3.137 -2.151,4.679c-0.717,1.542 -1.363,2.958 -1.936,4.249c-0.574,1.291 -1.076,2.421 -1.507,3.389c-0.43,0.968 -0.681,1.632 -0.753,1.99c-0.143,0.43 -0.376,1.058 -0.699,1.883c-0.323,0.825 -0.484,1.452 -0.484,1.882c-0.143,-0.573 -0.287,-1.219 -0.43,-1.936c-0.144,-0.717 -0.287,-1.363 -0.43,-1.936c-1.65,-6.24 -3.963,-13.376 -6.939,-21.408c-2.773,-7.482 -5.654,-15.431 -8.644,-23.847l-7,-19.977l85,0l-8,23.063l0,0Z" style="fill:url(#_Linear2);"/><defs><radialGradient id="_Radial1" cx="0" cy="0" r="1" gradientUnits="userSpaceOnUse" gradientTransform="matrix(-113.5,-1.38997e-14,7.47035e-15,-61,46.5,45.418)"><stop offset="0%" style="stop-color:#0097eb;stop-opacity:1"/><stop offset="99%" style="stop-color:#004267;stop-opacity:1"/><stop offset="100%" style="stop-color:#004267;stop-opacity:1"/></radialGradient><linearGradient id="_Linear2" x1="0" y1="0" x2="1" y2="0" gradientUnits="userSpaceOnUse" gradientTransform="matrix(6.73556e-16,-11,11,6.73556e-16,46,11)"><stop offset="0%" style="stop-color:#38b9f3;stop-opacity:1"/><stop offset="61%" style="stop-color:#30ade6;stop-opacity:1"/><stop offset="81%" style="stop-color:#1e92c7;stop-opacity:1"/><stop offset="99%" style="stop-color:#0a75a6;stop-opacity:1"/><stop offset="100%" style="stop-color:#0a75a6;stop-opacity:1"/></linearGradient></defs></svg>