<?xml version="1.0" standalone="no"?><!DOCTYPE svg PUBLIC "-//W3C//DTD SVG 1.1//EN" "http://www.w3.org/Graphics/SVG/1.1/DTD/svg11.dtd"><svg width="100%" height="100%" viewBox="0 0 120 134" version="1.1" xmlns="http://www.w3.org/2000/svg" xmlns:xlink="http://www.w3.org/1999/xlink" xml:space="preserve" style="fill-rule:evenodd;clip-rule:evenodd;stroke-linejoin:round;stroke-miterlimit:1.41421;"><path id="bottom" d="M106,28.829l-3,81.171l-43,24l-42,-24l-4,-81.171c5.23,13.505 21.424,57.25 26.583,70.935c0.788,-1.793 1.685,-3.801 2.689,-6.025c1.004,-2.223 2.044,-4.536 3.12,-6.938c1.075,-2.403 2.169,-4.841 3.281,-7.316c1.111,-2.474 2.169,-4.858 3.173,-7.153c2.367,-5.379 4.841,-10.901 7.423,-16.567c0.143,-0.287 0.251,-0.574 0.323,-0.861c0.071,-0.215 0.125,-0.466 0.161,-0.753c0.036,-0.287 0.09,-0.573 0.161,-0.86c0.144,0.645 0.251,1.075 0.323,1.291c0.072,0.215 0.251,0.645 0.538,1.29l17.642,43.676c2.009,-5.45 4.286,-11.474 6.832,-18.072c2.546,-6.598 5.199,-13.465 7.96,-20.601l0.791,-2.046l11,-30Z" style="fill:url(#_Radial1);"/><path id="top" d="M95,23.063c-0.996,2.631 -2.013,5.248 -3.05,7.852c-1.685,4.231 -3.281,8.355 -4.787,12.371c-1.506,4.016 -2.887,7.871 -4.142,11.565c-1.255,3.693 -2.241,7.153 -2.958,10.381c-0.144,0.573 -0.269,1.183 -0.377,1.828c-0.107,0.646 -0.233,1.291 -0.376,1.937c-0.144,-0.646 -0.251,-1.273 -0.323,-1.883c-0.072,-0.609 -0.251,-1.237 -0.538,-1.882c-0.215,-0.574 -0.627,-1.686 -1.237,-3.335c-0.609,-1.65 -1.345,-3.64 -2.205,-5.971c-0.861,-2.331 -1.829,-4.876 -2.905,-7.638c-1.075,-2.761 -2.151,-5.54 -3.227,-8.337c-2.51,-6.598 -5.307,-13.877 -8.391,-21.838l-12.694,0c0.359,1.219 0.914,2.994 1.668,5.325c0.753,2.331 1.524,4.644 2.312,6.939c0.861,2.725 1.793,5.594 2.797,8.606c-2.008,4.375 -3.872,8.391 -5.594,12.049c-0.717,1.577 -1.434,3.137 -2.151,4.679c-0.717,1.542 -1.363,2.958 -1.936,4.249c-0.574,1.291 -1.076,2.421 -1.507,3.389c-0.43,0.968 -0.681,1.632 -0.753,1.99c-0.143,0.43 -0.376,1.058 -0.699,1.883c-0.323,0.825 -0.484,1.452 -0.484,1.882c-0.143,-0.573 -0.287,-1.219 -0.43,-1.936c-0.144,-0.717 -0.287,-1.363 -0.43,-1.936c-1.65,-6.24 -3.963,-13.376 -6.939,-21.408c-2.773,-7.482 -5.654,-15.431 -8.644,-23.847l-7,-19.977l85,0l-8,23.063l0,0Z" style="fill:url(#_Linear2);"/><defs><radialGradient id="_Radial1" cx="0" cy="0" r="1" gradientUnits="userSpaceOnUse" gradientTransform="matrix(-113.5,-1.38997e-14,7.47035e-15,-61,60.5,45.418)"><stop offset="0%" style="stop-color:#0097eb;stop-opacity:1"/><stop offset="100%" style="stop-color:#004267;stop-opacity:1"/><stop offset="100%" style="stop-color:#004267;stop-opacity:1"/></radialGradient><linearGradient id="_Linear2" x1="0" y1="0" x2="1" y2="0" gradientUnits="userSpaceOnUse" gradientTransform="matrix(6.73556e-16,-11,11,6.73556e-16,60,11)"><stop offset="0%" style="stop-color:#38b9f3;stop-opacity:1"/><stop offset="61%" style="stop-color:#30ade6;stop-opacity:1"/><stop offset="81%" style="stop-color:#1e92c7;stop-opacity:1"/><stop offset="100%" style="stop-color:#0a75a6;stop-opacity:1"/><stop offset="100%" style="stop-color:#0a75a6;stop-opacity:1"/></linearGradient></defs></svg>