<?xml version="1.0" standalone="no"?><!DOCTYPE svg PUBLIC "-//W3C//DTD SVG 1.1//EN" "http://www.w3.org/Graphics/SVG/1.1/DTD/svg11.dtd"><svg width="100%" height="100%" viewBox="0 0 140 140" version="1.1" xmlns="http://www.w3.org/2000/svg" xmlns:xlink="http://www.w3.org/1999/xlink" xml:space="preserve" style="fill-rule:evenodd;clip-rule:evenodd;stroke-linejoin:round;stroke-miterlimit:1.41421;"><path d="M140,0l-140,0l0,140l140,0l0,-140ZM115.396,33.781c-2.314,6.107 -4.724,12.423 -7.231,18.948c-2.507,6.524 -4.998,12.985 -7.473,19.381c-2.475,6.396 -4.854,12.551 -7.136,18.466c-2.282,5.914 -4.323,11.313 -6.123,16.199l-15.814,-39.149c-0.257,-0.578 -0.417,-0.964 -0.482,-1.157c-0.064,-0.193 -0.16,-0.578 -0.289,-1.157c-0.064,0.257 -0.112,0.514 -0.145,0.772c-0.032,0.257 -0.08,0.482 -0.144,0.674c-0.065,0.258 -0.161,0.515 -0.29,0.772c-2.314,5.078 -4.532,10.028 -6.653,14.849c-0.9,2.057 -1.848,4.195 -2.844,6.413c-0.997,2.217 -1.977,4.403 -2.941,6.557c-0.965,2.153 -1.897,4.226 -2.797,6.219c-0.9,1.993 -1.703,3.793 -2.41,5.4c-4.629,-12.278 -9.289,-24.476 -13.982,-36.594c-4.693,-12.117 -9.353,-24.315 -13.982,-36.593l13.403,0c2.893,8.164 5.673,15.846 8.341,23.046c2.668,7.199 4.741,13.596 6.22,19.188c0.128,0.515 0.257,1.093 0.385,1.736c0.129,0.643 0.257,1.221 0.386,1.736c0,-0.386 0.145,-0.949 0.434,-1.688c0.289,-0.739 0.498,-1.302 0.627,-1.687c0.064,-0.322 0.289,-0.916 0.675,-1.784c0.385,-0.868 0.835,-1.88 1.35,-3.038c0.514,-1.157 1.092,-2.426 1.735,-3.808c0.643,-1.382 1.286,-2.781 1.929,-4.195c1.543,-3.278 3.214,-6.878 5.014,-10.799c-0.9,-2.7 -1.736,-5.272 -2.507,-7.714c-0.707,-2.058 -1.398,-4.131 -2.073,-6.22c-0.675,-2.089 -1.173,-3.68 -1.495,-4.773l11.378,0c2.764,7.136 5.272,13.66 7.521,19.574c0.965,2.507 1.929,4.998 2.893,7.473c0.964,2.475 1.832,4.757 2.604,6.847c0.771,2.089 1.43,3.873 1.976,5.351c0.547,1.479 0.916,2.475 1.109,2.989c0.257,0.579 0.418,1.141 0.482,1.688c0.065,0.546 0.161,1.109 0.29,1.687c0.128,-0.578 0.241,-1.157 0.337,-1.735c0.097,-0.579 0.209,-1.125 0.338,-1.64c0.643,-2.892 1.526,-5.994 2.651,-9.305c1.125,-3.31 2.363,-6.766 3.713,-10.365c1.35,-3.6 2.78,-7.297 4.291,-11.089c1.51,-3.793 2.973,-7.618 4.387,-11.475l12.342,0Z" style="fill:#1eb3af;"/></svg>