<?xml version="1.0" standalone="no"?><!DOCTYPE svg PUBLIC "-//W3C//DTD SVG 1.1//EN" "http://www.w3.org/Graphics/SVG/1.1/DTD/svg11.dtd"><svg width="100%" height="100%" viewBox="0 0 140 140" version="1.1" xmlns="http://www.w3.org/2000/svg" xmlns:xlink="http://www.w3.org/1999/xlink" xml:space="preserve" style="fill-rule:evenodd;clip-rule:evenodd;stroke-linejoin:round;stroke-miterlimit:1.41421;"><path id="Instagram icon" d="M90.723,100.121l-41.442,0c-3.941,0 -7.166,-3.217 -7.166,-7.152l0,-41.516c0,-3.936 3.225,-7.155 7.166,-7.155l41.442,0c3.94,0 7.162,3.219 7.162,7.155l0,41.516c0,3.935 -3.222,7.152 -7.162,7.152l0,0ZM92.613,68.201l-5.786,0c0.302,1.28 0.497,2.602 0.497,3.974c0,9.557 -7.747,17.303 -17.303,17.303c-9.556,0 -17.303,-7.746 -17.303,-17.303c0,-1.37 0.176,-2.696 0.476,-3.974l-5.746,0l0,24.379c0,1.22 0.997,2.212 2.217,2.212l40.731,0c1.222,0 2.217,-0.992 2.217,-2.212l0,-24.379ZM70,60.248c6.599,0 11.949,5.349 11.949,11.948c0,6.599 -5.35,11.949 -11.949,11.949c-6.599,0 -11.949,-5.35 -11.949,-11.949c0,-6.599 5.35,-11.948 11.949,-11.948ZM91.253,53.059c0,-1.163 -0.952,-2.117 -2.116,-2.117l-5.06,0c-1.167,0 -2.118,0.954 -2.118,2.117l0,5.059c0,1.164 0.951,2.116 2.118,2.116l5.06,0c1.164,0 2.116,-0.952 2.116,-2.116l0,-5.059Z" style="fill:#fff;"/></svg>