<?xml version="1.0" standalone="no"?><!DOCTYPE svg PUBLIC "-//W3C//DTD SVG 1.1//EN" "http://www.w3.org/Graphics/SVG/1.1/DTD/svg11.dtd"><svg width="100%" height="100%" viewBox="0 0 140 140" version="1.1" xmlns="http://www.w3.org/2000/svg" xmlns:xlink="http://www.w3.org/1999/xlink" xml:space="preserve" style="fill-rule:evenodd;clip-rule:evenodd;stroke-linejoin:round;stroke-miterlimit:1.41421;"><path id="Instagram icon" d="M84.858,90l-29.695,0c-2.824,0 -5.134,-2.305 -5.134,-5.125l0,-29.748c0,-2.821 2.31,-5.127 5.134,-5.127l29.695,0c2.824,0 5.132,2.306 5.132,5.127l0,29.748c0,2.82 -2.308,5.125 -5.132,5.125ZM86.213,67.128l-4.146,0c0.216,0.917 0.356,1.864 0.356,2.847c0,6.849 -5.551,12.399 -12.398,12.399c-6.848,0 -12.399,-5.55 -12.399,-12.399c0,-0.982 0.126,-1.931 0.341,-2.847l-4.117,0l0,17.468c0,0.875 0.714,1.586 1.588,1.586l29.186,0c0.876,0 1.589,-0.711 1.589,-1.586l0,-17.468l0,0ZM70.009,61.429c4.729,0 8.562,3.833 8.562,8.561c0,4.729 -3.833,8.562 -8.562,8.562c-4.728,0 -8.562,-3.833 -8.562,-8.562c0,-4.728 3.834,-8.561 8.562,-8.561l0,0ZM85.238,56.277c0,-0.833 -0.682,-1.517 -1.516,-1.517l-3.626,0c-0.836,0 -1.517,0.684 -1.517,1.517l0,3.626c0,0.833 0.681,1.516 1.517,1.516l3.626,0c0.834,0 1.516,-0.683 1.516,-1.516l0,-3.626Z" style="fill:#909090;"/></svg>