<?xml version="1.0" standalone="no"?><!DOCTYPE svg PUBLIC "-//W3C//DTD SVG 1.1//EN" "http://www.w3.org/Graphics/SVG/1.1/DTD/svg11.dtd"><svg width="100%" height="100%" viewBox="0 0 140 140" version="1.1" xmlns="http://www.w3.org/2000/svg" xmlns:xlink="http://www.w3.org/1999/xlink" xml:space="preserve" style="fill-rule:evenodd;clip-rule:evenodd;stroke-linejoin:round;stroke-miterlimit:1.41421;"><path id="Instagram icon" d="M89.91,96.804l-39.798,0c-3.784,0 -6.881,-3.089 -6.881,-6.868l0,-39.869c0,-3.78 3.097,-6.871 6.881,-6.871l39.798,0c3.784,0 6.878,3.091 6.878,6.871l0,39.869c0,3.779 -3.094,6.868 -6.878,6.868l0,0ZM91.725,66.151l-5.556,0c0.29,1.229 0.477,2.498 0.477,3.816c0,9.178 -7.44,16.616 -16.616,16.616c-9.177,0 -16.617,-7.438 -16.617,-16.616c0,-1.316 0.169,-2.589 0.457,-3.816l-5.518,0l0,23.411c0,1.172 0.958,2.125 2.129,2.125l39.115,0c1.174,0 2.129,-0.953 2.129,-2.125l0,-23.411ZM70.009,58.513c6.338,0 11.475,5.137 11.475,11.474c0,6.337 -5.137,11.475 -11.475,11.475c-6.337,0 -11.475,-5.138 -11.475,-11.475c0,-6.337 5.138,-11.474 11.475,-11.474ZM90.419,51.609c0,-1.117 -0.914,-2.033 -2.032,-2.033l-4.859,0c-1.121,0 -2.034,0.916 -2.034,2.033l0,4.859c0,1.117 0.913,2.032 2.034,2.032l4.859,0c1.118,0 2.032,-0.915 2.032,-2.032l0,-4.859Z" style="fill:#fff;"/></svg>