<?xml version="1.0" standalone="no"?><!DOCTYPE svg PUBLIC "-//W3C//DTD SVG 1.1//EN" "http://www.w3.org/Graphics/SVG/1.1/DTD/svg11.dtd"><svg width="100%" height="100%" viewBox="0 0 140 140" version="1.1" xmlns="http://www.w3.org/2000/svg" xmlns:xlink="http://www.w3.org/1999/xlink" xml:space="preserve" style="fill-rule:evenodd;clip-rule:evenodd;stroke-linejoin:round;stroke-miterlimit:1.41421;"><g><path id="bottom" d="M140,16.914l0,160.043l-70,0l-70,0l0,-160.043c7.959,20.551 32.602,87.119 40.452,107.944c1.2,-2.728 2.565,-5.784 4.092,-9.168c1.528,-3.383 3.111,-6.903 4.748,-10.558c1.636,-3.657 3.301,-7.367 4.993,-11.133c1.691,-3.765 3.301,-7.393 4.828,-10.885c3.602,-8.186 7.367,-16.589 11.296,-25.211c0.218,-0.436 0.382,-0.873 0.492,-1.31c0.108,-0.327 0.19,-0.709 0.245,-1.146c0.055,-0.437 0.137,-0.872 0.245,-1.309c0.219,0.982 0.382,1.636 0.491,1.965c0.11,0.327 0.382,0.982 0.819,1.963l26.847,66.464c3.057,-8.294 6.522,-17.461 10.396,-27.501c3.874,-10.041 7.912,-20.491 12.113,-31.35l1.204,-3.113l16.739,-45.652l0,0Z" style="fill:url(#_Radial1);"/><path id="top" d="M123.261,8.139c-1.516,4.004 -3.063,7.986 -4.641,11.949c-2.565,6.439 -4.993,12.714 -7.285,18.825c-2.292,6.112 -4.393,11.978 -6.303,17.599c-1.91,5.62 -3.41,10.885 -4.501,15.798c-0.219,0.872 -0.41,1.8 -0.574,2.781c-0.163,0.983 -0.355,1.965 -0.572,2.948c-0.219,-0.983 -0.382,-1.937 -0.492,-2.866c-0.109,-0.926 -0.382,-1.882 -0.818,-2.863c-0.328,-0.874 -0.955,-2.566 -1.883,-5.075c-0.927,-2.511 -2.047,-5.54 -3.355,-9.087c-1.31,-3.547 -2.784,-7.42 -4.421,-11.623c-1.636,-4.201 -3.273,-8.43 -4.911,-12.687c-3.819,-10.04 -8.075,-21.117 -12.768,-33.231l-19.317,0c0.546,1.855 1.39,4.556 2.538,8.103c1.146,3.547 2.319,7.067 3.518,10.559c1.31,4.147 2.729,8.513 4.256,13.096c-3.055,6.658 -5.892,12.769 -8.512,18.336c-1.091,2.4 -2.182,4.774 -3.273,7.12c-1.092,2.347 -2.075,4.501 -2.947,6.466c-0.873,1.965 -1.637,3.684 -2.293,5.157c-0.654,1.473 -1.036,2.484 -1.146,3.028c-0.217,0.655 -0.572,1.61 -1.063,2.866c-0.492,1.255 -0.737,2.209 -0.737,2.864c-0.218,-0.872 -0.437,-1.855 -0.654,-2.946c-0.219,-1.091 -0.437,-2.074 -0.655,-2.946c-2.51,-9.496 -6.03,-20.355 -10.559,-32.578c-4.22,-11.385 -8.604,-23.482 -13.154,-36.289l-10.652,-30.4l129.348,0l-12.174,35.096l0,0Z" style="fill:url(#_Linear2);"/></g><defs><radialGradient id="_Radial1" cx="0" cy="0" r="1" gradientUnits="userSpaceOnUse" gradientTransform="matrix(-172.717,-2.11517e-14,1.13679e-14,-92.8261,70.7609,42.1578)"><stop offset="0%" style="stop-color:#0097eb;stop-opacity:1"/><stop offset="99%" style="stop-color:#004267;stop-opacity:1"/><stop offset="100%" style="stop-color:#004267;stop-opacity:1"/></radialGradient><linearGradient id="_Linear2" x1="0" y1="0" x2="1" y2="0" gradientUnits="userSpaceOnUse" gradientTransform="matrix(1.02498e-15,-16.7391,16.7391,1.02498e-15,70,-10.2174)"><stop offset="0%" style="stop-color:#38b9f3;stop-opacity:1"/><stop offset="61%" style="stop-color:#30ade6;stop-opacity:1"/><stop offset="81%" style="stop-color:#1e92c7;stop-opacity:1"/><stop offset="99%" style="stop-color:#0a75a6;stop-opacity:1"/><stop offset="100%" style="stop-color:#0a75a6;stop-opacity:1"/></linearGradient></defs></svg>