<?xml version="1.0" standalone="no"?><!DOCTYPE svg PUBLIC "-//W3C//DTD SVG 1.1//EN" "http://www.w3.org/Graphics/SVG/1.1/DTD/svg11.dtd"><svg width="100%" height="100%" viewBox="0 0 140 140" version="1.1" xmlns="http://www.w3.org/2000/svg" xmlns:xlink="http://www.w3.org/1999/xlink" xml:space="preserve" style="fill-rule:evenodd;clip-rule:evenodd;stroke-linejoin:round;stroke-miterlimit:1.41421;"><rect x="0" y="0" width="140" height="140" style="fill:#40bff5;"/><path id="Twitter Icon" d="M97.966,52.751c-2.055,0.91 -4.264,1.521 -6.582,1.799c2.366,-1.412 4.183,-3.652 5.038,-6.313c-2.212,1.306 -4.666,2.254 -7.274,2.769c-2.092,-2.22 -5.069,-3.604 -8.364,-3.604c-6.329,0 -11.459,5.108 -11.459,11.411c0,0.889 0.1,1.765 0.296,2.6c-9.522,-0.479 -17.966,-5.02 -23.618,-11.92c-0.986,1.683 -1.552,3.642 -1.552,5.732c0,3.962 2.024,7.451 5.098,9.498c-1.878,-0.058 -3.645,-0.574 -5.19,-1.429c-0.001,0.047 -0.001,0.094 -0.001,0.145c0,5.53 3.951,10.139 9.192,11.187c-0.961,0.262 -1.974,0.398 -3.019,0.398c-0.738,0 -1.457,-0.068 -2.156,-0.203c1.458,4.534 5.69,7.833 10.704,7.921c-3.922,3.062 -8.863,4.888 -14.23,4.888c-0.926,0 -1.838,-0.054 -2.734,-0.163c5.07,3.238 11.094,5.128 17.564,5.128c21.078,0 32.602,-17.385 32.602,-32.461c0,-0.493 -0.011,-0.988 -0.031,-1.477c2.24,-1.609 4.179,-3.618 5.716,-5.906l0,0Z" style="fill:#fff;"/></svg>