<?xml version="1.0" standalone="no"?><!DOCTYPE svg PUBLIC "-//W3C//DTD SVG 1.1//EN" "http://www.w3.org/Graphics/SVG/1.1/DTD/svg11.dtd"><svg width="100%" height="100%" viewBox="0 0 140 140" version="1.1" xmlns="http://www.w3.org/2000/svg" xmlns:xlink="http://www.w3.org/1999/xlink" xml:space="preserve" style="fill-rule:evenodd;clip-rule:evenodd;stroke-linejoin:round;stroke-miterlimit:1.41421;"><path id="Twitter Icon" d="M94.966,54.604c-1.834,0.812 -3.806,1.358 -5.875,1.606c2.112,-1.26 3.733,-3.26 4.497,-5.635c-1.975,1.166 -4.165,2.012 -6.493,2.472c-1.867,-1.982 -4.524,-3.218 -7.465,-3.218c-5.65,0 -10.228,4.56 -10.228,10.186c0,0.794 0.089,1.576 0.264,2.32c-8.499,-0.427 -16.036,-4.48 -21.081,-10.639c-0.879,1.502 -1.385,3.251 -1.385,5.116c0,3.537 1.807,6.651 4.55,8.478c-1.676,-0.052 -3.253,-0.512 -4.632,-1.275c-0.001,0.041 -0.001,0.084 -0.001,0.129c0,4.936 3.527,9.05 8.204,9.985c-0.857,0.234 -1.761,0.355 -2.694,0.355c-0.659,0 -1.301,-0.06 -1.924,-0.181c1.301,4.047 5.079,6.991 9.553,7.07c-3.5,2.733 -7.911,4.363 -12.7,4.363c-0.827,0 -1.642,-0.048 -2.441,-0.145c4.526,2.89 9.902,4.577 15.677,4.577c18.814,0 29.1,-15.518 29.1,-28.974c0,-0.44 -0.01,-0.882 -0.028,-1.318c2,-1.436 3.73,-3.23 5.102,-5.272l0,0Z" style="fill:#909090;"/></svg>