<?xml version="1.0" standalone="no"?><!DOCTYPE svg PUBLIC "-//W3C//DTD SVG 1.1//EN" "http://www.w3.org/Graphics/SVG/1.1/DTD/svg11.dtd"><svg width="100%" height="100%" viewBox="0 0 140 140" version="1.1" xmlns="http://www.w3.org/2000/svg" xmlns:xlink="http://www.w3.org/1999/xlink" xml:space="preserve" style="fill-rule:evenodd;clip-rule:evenodd;stroke-linejoin:round;stroke-miterlimit:1.41421;"><path id="Twitter Icon" d="M102.966,49.663c-2.423,1.073 -5.027,1.794 -7.76,2.121c2.789,-1.664 4.931,-4.306 5.94,-7.443c-2.609,1.54 -5.502,2.658 -8.577,3.265c-2.466,-2.618 -5.976,-4.25 -9.861,-4.25c-7.463,0 -13.511,6.023 -13.511,13.455c0,1.048 0.118,2.081 0.349,3.065c-11.227,-0.565 -21.183,-5.919 -27.847,-14.054c-1.162,1.984 -1.83,4.294 -1.83,6.758c0,4.672 2.387,8.785 6.011,11.199c-2.214,-0.069 -4.298,-0.677 -6.119,-1.685c-0.001,0.055 -0.001,0.111 -0.001,0.171c0,6.52 4.658,11.954 10.837,13.19c-1.133,0.309 -2.327,0.469 -3.559,0.469c-0.87,0 -1.718,-0.08 -2.542,-0.239c1.719,5.346 6.709,9.235 12.62,9.339c-4.624,3.61 -10.45,5.763 -16.777,5.763c-1.092,0 -2.168,-0.063 -3.224,-0.192c5.978,3.818 13.08,6.046 20.709,6.046c24.852,0 38.439,-20.498 38.439,-38.273c0,-0.581 -0.013,-1.165 -0.036,-1.741c2.641,-1.897 4.927,-4.266 6.739,-6.964l0,0Z" style="fill:#fff;"/></svg>