<?xml version="1.0" standalone="no"?><!DOCTYPE svg PUBLIC "-//W3C//DTD SVG 1.1//EN" "http://www.w3.org/Graphics/SVG/1.1/DTD/svg11.dtd"><svg width="100%" height="100%" viewBox="0 0 140 140" version="1.1" xmlns="http://www.w3.org/2000/svg" xmlns:xlink="http://www.w3.org/1999/xlink" xml:space="preserve" style="fill-rule:evenodd;clip-rule:evenodd;stroke-linejoin:round;stroke-miterlimit:1.41421;"><path d="M114.22,34c-2.301,6.072 -4.698,12.352 -7.191,18.84c-2.493,6.487 -4.969,12.911 -7.43,19.271c-2.461,6.36 -4.826,12.48 -7.095,18.36c-2.269,5.881 -4.299,11.25 -6.088,16.108l-15.724,-38.926c-0.256,-0.576 -0.415,-0.959 -0.479,-1.151c-0.064,-0.192 -0.16,-0.575 -0.288,-1.15c-0.064,0.255 -0.112,0.511 -0.144,0.767c-0.032,0.255 -0.08,0.479 -0.144,0.671c-0.064,0.256 -0.159,0.511 -0.287,0.767c-2.301,5.049 -4.507,9.971 -6.616,14.765c-0.895,2.045 -1.837,4.171 -2.828,6.376c-0.991,2.205 -1.966,4.378 -2.924,6.519c-0.959,2.142 -1.886,4.203 -2.781,6.184c-0.895,1.982 -1.694,3.771 -2.397,5.369c-4.602,-12.208 -9.236,-24.336 -13.902,-36.385c-4.666,-12.048 -9.3,-24.177 -13.902,-36.385l13.327,0c2.876,8.118 5.641,15.756 8.293,22.915c2.653,7.158 4.714,13.518 6.184,19.079c0.128,0.511 0.256,1.087 0.384,1.726c0.128,0.639 0.255,1.214 0.383,1.726c0,-0.384 0.144,-0.943 0.432,-1.678c0.287,-0.735 0.495,-1.295 0.623,-1.678c0.064,-0.32 0.288,-0.911 0.671,-1.774c0.384,-0.863 0.831,-1.869 1.342,-3.02c0.512,-1.15 1.087,-2.413 1.726,-3.787c0.639,-1.374 1.278,-2.765 1.918,-4.171c1.534,-3.26 3.196,-6.839 4.985,-10.738c-0.895,-2.684 -1.726,-5.241 -2.493,-7.67c-0.703,-2.045 -1.39,-4.107 -2.061,-6.184c-0.671,-2.077 -1.166,-3.659 -1.486,-4.746l11.313,0c2.749,7.095 5.242,13.583 7.479,19.463c0.959,2.493 1.917,4.97 2.876,7.43c0.959,2.461 1.822,4.73 2.589,6.808c0.767,2.077 1.422,3.851 1.965,5.321c0.544,1.47 0.911,2.461 1.103,2.972c0.256,0.575 0.415,1.135 0.479,1.678c0.064,0.543 0.16,1.102 0.288,1.678c0.128,-0.576 0.24,-1.151 0.335,-1.726c0.096,-0.575 0.208,-1.119 0.336,-1.63c0.639,-2.876 1.518,-5.96 2.637,-9.252c1.118,-3.292 2.349,-6.727 3.691,-10.307c1.342,-3.579 2.764,-7.255 4.266,-11.026c1.502,-3.771 2.957,-7.574 4.363,-11.409l12.272,0Z" style="fill:#1eb3af;fill-rule:nonzero;"/></svg>