<?xml version="1.0" standalone="no"?><!DOCTYPE svg PUBLIC "-//W3C//DTD SVG 1.1//EN" "http://www.w3.org/Graphics/SVG/1.1/DTD/svg11.dtd"><svg width="100%" height="100%" viewBox="0 0 200 200" version="1.1" xmlns="http://www.w3.org/2000/svg" xmlns:xlink="http://www.w3.org/1999/xlink" xml:space="preserve" style="fill-rule:evenodd;clip-rule:evenodd;stroke-linejoin:round;stroke-miterlimit:1.41421;"><path d="M199.006,141.589l-5.748,0l-2.978,0c-0.272,-1.447 -0.692,-2.467 -1.266,-3.04c-0.934,-0.933 -2.526,-1.414 -4.725,-1.414c-2.167,0 -3.67,0.359 -4.511,1.083c-0.634,0.542 -0.966,1.293 -0.966,2.227c0,1.321 1.839,2.377 5.477,3.19c4.155,0.901 7.135,1.684 8.969,2.315c0.482,0.182 0.902,0.332 1.204,0.481c3.704,1.746 5.538,4.398 5.538,7.947c0,4.333 -1.805,7.493 -5.387,9.479c-0.453,0.242 -0.873,0.452 -1.355,0.663c-2.316,0.994 -5.024,1.503 -8.063,1.503c-4.544,0 -8.217,-0.812 -11.015,-2.408c-1.761,-1.023 -3.076,-2.309 -3.952,-3.86c-0.877,-1.55 -1.315,-3.36 -1.315,-5.437l9.147,0c0,1.565 0.574,2.8 1.686,3.641c1.116,0.874 3.011,1.326 5.687,1.326c2.017,0 3.52,-0.423 4.515,-1.265c0.784,-0.663 1.143,-1.386 1.143,-2.227c0,-1.415 -1.802,-2.526 -5.387,-3.31c-5.355,-1.144 -8.726,-2.078 -10.11,-2.741c-3.67,-1.714 -5.476,-4.36 -5.476,-8.036c0,-2.946 0.933,-5.444 2.858,-7.49c2.408,-2.558 6.018,-3.823 10.804,-3.823c3.941,0 7.101,0.573 9.479,1.685c0.21,0.089 0.392,0.181 0.573,0.303c1.714,0.93 3.008,2.167 3.874,3.703c0.865,1.532 1.3,3.37 1.3,5.505l0,0Z" style="fill:#fff;fill-rule:nonzero;"/><path d="M195.065,119.378c0.181,0.243 0.27,0.513 0.27,0.812c0,0.421 -0.149,0.785 -0.452,1.083c-0.3,0.303 -0.691,0.485 -1.172,0.513c0.21,0.089 0.359,0.182 0.481,0.3l0.841,1.116l0.663,1.11l-1.084,0l-0.513,-0.901c-0.327,-0.57 -0.599,-0.994 -0.841,-1.203c-0.029,-0.029 -0.061,-0.062 -0.121,-0.09l-0.719,-0.21l-0.543,0l0,2.404l-0.905,0l0,-5.654l1.956,0c0.122,0 0.243,0.028 0.332,0.028c0.481,0 0.841,0.062 1.083,0.15c0.301,0.093 0.542,0.271 0.724,0.542l0,0ZM194.341,120.283c0,-0.182 -0.028,-0.332 -0.12,-0.453c-0.089,-0.149 -0.211,-0.242 -0.389,-0.299c-0.121,-0.032 -0.303,-0.061 -0.574,-0.093l-0.331,0l-1.052,0l0,1.686l1.383,0c0.393,-0.029 0.663,-0.089 0.812,-0.239c0.182,-0.153 0.271,-0.364 0.271,-0.602l0,0Z" style="fill:#fff;fill-rule:nonzero;"/><path d="M198.497,121.427c0,0.873 -0.215,1.746 -0.695,2.587c-0.449,0.841 -1.084,1.476 -1.924,1.924c-0.845,0.485 -1.686,0.695 -2.592,0.695l-0.028,0c-0.902,0 -1.745,-0.21 -2.586,-0.695c-0.846,-0.449 -1.476,-1.083 -1.929,-1.924c-0.48,-0.841 -0.69,-1.714 -0.69,-2.587c0,-0.935 0.21,-1.806 0.69,-2.651c0.482,-0.841 1.116,-1.471 1.957,-1.925c0.845,-0.452 1.685,-0.662 2.558,-0.691l0.028,0c0.874,0 1.719,0.24 2.559,0.691c0.845,0.454 1.508,1.084 1.957,1.925c0.48,0.845 0.695,1.716 0.695,2.651l0,0ZM197.624,121.427c0,-0.784 -0.183,-1.504 -0.573,-2.199c-0.393,-0.691 -0.934,-1.233 -1.626,-1.624c-0.691,-0.361 -1.415,-0.572 -2.139,-0.572l-0.028,0c-0.723,0 -1.443,0.211 -2.134,0.572c-0.695,0.391 -1.236,0.933 -1.628,1.624c-0.389,0.695 -0.6,1.415 -0.6,2.199c0,0.752 0.211,1.472 0.6,2.166c0.363,0.66 0.905,1.205 1.595,1.593c0.692,0.393 1.416,0.574 2.167,0.574l0.028,0c0.756,0 1.476,-0.183 2.171,-0.574c0.691,-0.388 1.233,-0.933 1.594,-1.593c0.39,-0.694 0.573,-1.414 0.573,-2.166Z" style="fill:#fff;fill-rule:nonzero;"/><path d="M147.304,78.905l24.709,41.168l-24.709,0l-14.984,0l-23.593,-39.333l-17.874,-29.762l17.874,-10.744l11.253,-6.77l27.324,45.441Z" style="fill:#fff;fill-rule:nonzero;"/><path d="M157.025,150.526l0,-3.731c-0.872,-4.515 -4.874,-7.947 -9.629,-7.947c-0.031,0 -0.06,0 -0.092,0c-5.385,0.033 -9.749,4.426 -9.749,9.81c0,5.388 4.364,9.782 9.749,9.842c0.032,0 0.061,0 0.092,0c4.755,0 8.757,-3.46 9.629,-7.974l0,0ZM165.243,148.658l0,16.884l-8.218,0l0,-1.867c-2.769,1.807 -6.079,2.861 -9.629,2.861c-0.031,0 -0.06,0 -0.092,0c-9.81,-0.06 -17.785,-8.068 -17.785,-17.878c0,-9.809 7.975,-17.813 17.785,-17.873c0.032,0 0.061,0 0.092,0c3.55,0 6.86,1.055 9.629,2.857l0,-1.955l8.218,0l0,16.971Z" style="fill:#fff;fill-rule:nonzero;"/><path d="M118.448,150.526l0,-3.731c-0.873,-4.515 -4.879,-7.947 -9.632,-7.947c-0.028,0 -0.06,0 -0.089,0c-5.388,0.033 -9.75,4.426 -9.75,9.81c0,5.388 4.362,9.782 9.75,9.842c0.029,0 0.061,0 0.089,0c4.753,0 8.759,-3.46 9.632,-7.974l0,0ZM126.662,148.658l0,16.884l-8.214,0l0,-1.867c-2.801,1.807 -6.08,2.861 -9.632,2.861c-0.028,0 -0.06,0 -0.089,0c-9.81,-0.06 -17.785,-8.068 -17.785,-17.878c0,-9.809 7.975,-17.813 17.785,-17.873c0.029,0 0.061,0 0.089,0c3.553,0 6.831,1.055 9.632,2.857l0,-13.569l8.214,0l0,28.585Z" style="fill:#fff;fill-rule:nonzero;"/><path d="M108.727,103.88l9.689,16.193l-9.689,0l-29.976,0l-22.025,-36.653l-0.962,-1.597l0.962,-0.57l28.197,-16.976l23.804,39.603Z" style="fill:#fff;fill-rule:nonzero;"/><rect x="78.783" y="130.784" width="8.937" height="34.758" style="fill:#fff;"/><rect x="78.783" y="120.251" width="8.937" height="7.854" style="fill:#fff;"/><path d="M66.475,150.526l0,-3.731c-0.872,-4.515 -4.874,-7.947 -9.66,-7.947c-0.028,0 -0.06,0 -0.089,0c-5.388,0.033 -9.749,4.426 -9.749,9.81c0,5.388 4.361,9.782 9.749,9.842c0.029,0 0.061,0 0.089,0c4.786,0 8.788,-3.46 9.66,-7.974l0,0ZM74.689,148.658l0,16.884l-8.214,0l0,-1.867c-2.797,1.807 -6.107,2.861 -9.66,2.861c-0.028,0 -0.06,0 -0.089,0c-9.81,-0.06 -17.785,-8.068 -17.785,-17.878c0,-9.809 7.975,-17.813 17.785,-17.873c0.029,0 0.061,0 0.089,0c3.553,0 6.863,1.055 9.66,2.857l0,-13.569l8.214,0l0,28.585Z" style="fill:#fff;fill-rule:nonzero;"/><path d="M56.726,106.528l8.125,13.545l-8.125,0l-31.569,0l-4.454,-7.434l29.16,-17.514l6.863,11.403Z" style="fill:#fff;fill-rule:nonzero;"/><path d="M27.506,150.526l0,-3.731c-0.873,-4.515 -4.875,-7.947 -9.661,-7.947c-0.032,0 -0.06,0 -0.092,0c-5.356,0.033 -9.718,4.426 -9.718,9.81c0,5.388 4.362,9.782 9.718,9.842c0.032,0 0.06,0 0.092,0c4.786,0 8.788,-3.46 9.661,-7.974l0,0ZM35.719,148.658l0,16.884l-8.213,0l0,-1.867c-2.801,1.807 -6.111,2.861 -9.661,2.861c-0.032,0 -0.06,0 -0.092,0c-9.779,-0.06 -17.753,-8.068 -17.753,-17.878c0,-9.809 7.974,-17.813 17.753,-17.873c0.032,0 0.06,0 0.092,0c3.55,0 6.86,1.055 9.661,2.857l0,-1.955l8.213,0l0,16.971Z" style="fill:#fff;fill-rule:nonzero;"/></svg>