<?xml version="1.0" standalone="no"?><!DOCTYPE svg PUBLIC "-//W3C//DTD SVG 1.1//EN" "http://www.w3.org/Graphics/SVG/1.1/DTD/svg11.dtd"><svg width="100%" height="100%" viewBox="0 0 200 200" version="1.1" xmlns="http://www.w3.org/2000/svg" xmlns:xlink="http://www.w3.org/1999/xlink" xml:space="preserve" style="fill-rule:evenodd;clip-rule:evenodd;stroke-linejoin:round;stroke-miterlimit:1.41421;"><path d="M104.582,54.537c0.084,-0.243 0.274,-0.02 0.439,0.265c0.173,0.299 0.288,0.521 0.305,0.872c0.041,0.785 -0.395,1.747 -1.205,1.993c-0.344,0.106 -0.75,0.002 -1.078,0.185c-0.306,0.174 -0.37,0.522 -0.644,0.725c-0.361,0.269 -0.782,-0.032 -1.174,0.077c-0.462,0.132 -0.681,0.462 -1.205,0.161c0.534,0.07 0.808,-0.395 1.287,-0.477c0.683,-0.113 0.907,-0.07 1.242,-0.733c0.094,-0.183 0.237,-0.328 0.414,-0.434c0.301,-0.183 0.658,-0.212 0.97,-0.361c0.394,-0.187 0.563,-0.397 0.633,-0.824c0.062,-0.393 -0.047,-0.819 -0.022,-1.218c0.007,-0.102 0.019,-0.177 0.038,-0.231l0,0Z" style="fill:#fff;fill-rule:nonzero;"/><path d="M113.103,38.979c-0.686,0.351 -1.198,0.975 -1.323,1.69c0.024,-0.553 0.174,-1.213 0.272,-1.802c0.009,-0.053 0.015,-0.106 0.021,-0.157c0.605,-0.753 0.838,-2.019 0.846,-2.346c0.028,-1.176 0.368,-3.169 -1.792,-4.258l-1,0.101c2.495,0.666 2.237,2.413 2.329,4.03c0.036,0.664 -0.322,1.797 -0.847,2.358c-0.05,0.055 -0.708,0.515 -0.756,0.512c0.114,0.009 0.334,0.15 0.631,0.058c-0.149,1.068 -0.115,1.987 0.597,2.565c-0.215,-0.176 -0.296,-0.479 -0.304,-0.845c0.323,-0.871 1.122,-1.347 2.019,-1.495c-0.107,-0.045 -0.605,-0.287 -0.693,-0.411l0,0Z" style="fill:#fff;fill-rule:nonzero;"/><path d="M104.64,62.541c-0.102,-0.161 -0.201,-0.325 -0.291,-0.492c-1.28,-2.399 -0.365,-5.048 1.261,-6.151c0,0 -0.796,-0.975 -0.797,-0.976c0.013,0.018 -0.179,0.655 -0.173,0.773c0.013,0.314 0.043,0.58 -0.168,0.845c-0.409,0.521 -1.191,0.628 -1.417,1.325c-0.173,0.533 -0.263,1.105 -0.282,1.665c-0.018,0.619 0.058,1.237 0.236,1.831c0.059,0.2 0.676,1.858 0.886,1.798c0.138,-0.037 0.449,-0.166 0.745,-0.618l0,0Z" style="fill:#fff;fill-rule:nonzero;"/><path d="M107.632,65.817c0.187,0.174 0.372,0.349 0.555,0.524c0.934,0.891 1.882,1.769 2.839,2.635c0.558,0.504 1.609,1.102 1.46,1.993c-0.078,0.457 -0.449,0.774 -0.721,1.121c-0.293,0.371 -0.563,0.761 -0.818,1.161c-1.03,1.615 -1.8,3.391 -2.437,5.193c-0.547,1.547 -1.008,3.133 -1.348,4.74c-0.022,0.111 -0.021,0.263 -0.112,0.346c-0.064,0.061 -0.538,0.561 -0.7,0.759c-0.317,0.386 -0.644,0.777 -0.906,1.202c-0.009,0.013 -0.017,0.027 -0.026,0.042c-0.393,0.69 0.411,1.119 0.428,1.911c0.01,0.457 0.051,0.912 0.093,1.366c0.059,0.628 0.13,1.253 0.212,1.877c0.041,0.312 0.085,0.62 0.137,0.931c0.021,0.142 0.046,0.284 0.072,0.426c0.011,0.067 0.026,0.134 0.037,0.202c0.007,0.033 0.012,0.161 0.044,0.176c0.071,0.031 0.09,-0.208 0.098,-0.251c0.022,-0.108 0.046,-0.214 0.072,-0.32c0.064,-0.277 0.135,-0.553 0.204,-0.829c0.177,-0.698 0.354,-1.394 0.511,-2.095c0.064,-0.287 0.125,-0.572 0.178,-0.861c0.354,-1.864 0.794,-4.038 1.118,-4.686c0.153,-0.311 0.313,-0.622 0.473,-0.933c1.117,-2.167 2.333,-4.285 3.664,-6.327c0.676,-1.032 1.381,-2.045 2.132,-3.021c0.587,-0.76 1.912,-1.788 1.594,-2.875c-0.059,-0.201 -0.187,-0.403 -0.28,-0.588c-0.254,-0.515 -0.53,-1.018 -0.813,-1.517c-0.923,-1.638 -1.93,-3.233 -3.015,-4.766c-0.395,-0.554 -0.903,-1.1 -1.365,-1.662c-0.007,-0.008 0.707,-0.411 0.731,-0.376c1.143,1.557 2.24,3.145 3.297,4.762c0.594,0.91 1.176,1.831 1.728,2.769c0.576,0.982 1.11,2.048 0.363,3.089c-0.395,0.551 -0.826,1.081 -1.235,1.624c-1.11,1.473 -2.208,2.953 -3.28,4.454c-1.452,2.032 -3.053,4.127 -4.066,6.427c-0.091,0.207 -0.502,3.486 -0.724,4.168c-0.115,0.354 -0.242,0.705 -0.364,1.056c-0.194,0.549 -0.389,1.097 -0.574,1.648c-0.083,0.248 -0.166,0.496 -0.243,0.746c-0.032,0.101 -0.063,0.204 -0.092,0.306c-0.011,0.041 -0.033,0.176 -0.072,0.197c-0.017,0.008 -0.034,0.002 -0.055,-0.031c-0.024,-0.038 -0.039,-0.087 -0.058,-0.128c-0.044,-0.096 -0.089,-0.192 -0.134,-0.29c-0.064,-0.145 -0.158,-0.309 -0.179,-0.468c-0.062,-0.521 -0.444,-2.912 -0.565,-3.42c-0.19,-0.78 -1.145,-1.816 -0.979,-2.617c0.122,-0.58 2.112,-1.571 2.324,-2.11c0.221,-0.563 0.229,-1.224 0.324,-1.819c0.188,-1.163 0.254,-1.549 0.537,-2.693c0.574,-2.311 1.363,-4.694 2.796,-6.627c0.402,-0.545 0.906,-1.015 1.364,-1.512c0.544,-0.588 -0.303,-0.907 -0.76,-1.259c-0.557,-0.432 -1.107,-0.87 -1.655,-1.314c-0.778,-0.634 -1.55,-1.28 -2.308,-1.941l0.499,-0.515l0,0Z" style="fill:#fff;fill-rule:nonzero;"/><path d="M131.307,64.064c-0.36,-1.468 -0.187,-2.568 -0.24,-2.526c-0.137,0.108 -0.199,-0.529 -0.276,-0.349c-0.225,0.534 -0.409,1.386 -0.254,2.565c0.228,1.766 0.805,3.175 1.562,4.733c2.564,5.279 0.673,9.821 -1.607,10.752c1.188,3.616 3.28,7.074 3.638,11.027c0.336,3.771 0.985,6.189 1.857,9.246c-0.686,-1.372 -1.719,-2.979 -2.359,-4.484c-1.722,-4.075 -2.849,-8.07 -3.776,-9.708c-0.65,-1.146 -1.486,-2.815 -2.34,-3.784c0.172,0.892 -0.056,1.65 -0.278,1.931c2.006,2.154 2.838,5.183 4.157,7.816c-0.051,2.34 4.694,10.197 5.718,11.926c0.842,1.423 1.381,4.243 1.381,4.243c0,0 3.753,0.009 3.804,0.007c-0.075,-0.248 -0.833,-1.379 -1.15,-1.737c-0.484,-0.551 -2.196,-2.101 -2.514,-2.573c-0.656,-0.978 -1.226,-2.018 -1.692,-3.101c-1.041,-2.413 -1.672,-5.184 -1.576,-7.823c0.14,-3.842 -1.641,-7.027 -2.447,-10.642c-0.117,-0.527 -0.395,-1.573 -0.395,-1.573c1.24,-1.607 4.035,-5.534 0.561,-10.77c-0.893,-1.345 -1.352,-3.446 -1.774,-5.176l0,0Z" style="fill:#fff;fill-rule:nonzero;"/><path d="M143.351,49.843c0.251,-0.278 1.612,-1.625 1.493,-1.918c-0.124,-0.296 -1.27,0.229 -2.439,0.803c-0.354,-0.457 -0.735,-0.931 -0.931,-1.138c-0.024,-0.028 -0.051,-0.052 -0.077,-0.077c0.996,-0.596 1.881,-1.169 1.854,-1.332c-0.09,-0.557 -1.989,-0.604 -3.897,-0.357c-9.823,-6.258 -23.282,-0.075 -26.178,10.719c-0.088,0.332 0.117,1.631 0.07,1.979c-0.128,1.348 -1.376,2.468 -1.369,2.473c0.079,0.057 0.736,0.13 0.736,0.156c0.007,0.593 0.02,0.332 0.084,0.946c0.058,0.1 0.699,0.945 0.699,0.921c0,-0.375 0.008,-0.746 0.03,-1.116c0.671,-11.504 12.285,-20.205 22.414,-15.293c1.695,0.823 2.98,1.966 3.952,3.237c-0.068,-0.086 0.195,2.335 0.121,2.251c0.261,0.939 0.108,0.8 0.002,1.841c-0.039,0.406 -0.599,0.642 -1.021,2.132c-0.387,1.358 -0.546,10.214 -0.431,10.705c0.174,0.754 -0.249,0.801 -0.641,1.308c-0.316,0.412 -0.662,0.796 -1.198,0.898c-0.765,0.149 -0.425,-0.722 -2.603,-0.975c-0.322,-0.038 -0.959,-3.542 -1.004,-4.175c-0.301,-4.11 -3.913,-8.395 -4.074,-9.022c-0.004,-0.003 -0.173,1.578 -0.137,1.643c0.265,0.465 2.764,4.687 3.081,5.409c0.407,0.922 0.675,1.884 0.891,2.864c0.12,0.541 0.397,3.55 0.714,3.839c0.497,0.451 1.045,0.651 1.672,0.698c0.432,0.032 0.843,1.013 1.573,0.956c1.091,-0.084 1.185,-0.926 1.519,-1.18c1.423,-1.083 0.872,-3.438 0.9,-4.184c0.092,-2.44 0.555,-6.98 0.662,-7.615c0.316,-1.906 0.527,-0.871 0.956,-1.64c0.243,-0.438 -0.255,-3.247 -0.001,-3.476c0.25,-0.823 1.983,-1.619 2.578,-2.28l0,0Z" style="fill:#fff;fill-rule:nonzero;"/><path d="M94.702,44.393c0.043,-0.441 0.628,-0.494 0.918,-0.645c0.472,-0.246 0.415,-0.638 0.41,-1.13c-0.014,-1.197 -0.462,-2.662 0.333,-3.714c0.779,-1.029 1.799,-1.903 3,-2.401c1.675,-0.691 3.365,-1.345 5.006,-2.121c0.331,-0.156 0.597,-0.355 0.947,-0.459c0.401,-0.12 0.805,-0.233 1.207,-0.354c0.801,-0.241 1.598,-0.505 2.363,-0.852c0.341,-0.156 0.647,-0.305 0.938,-0.545c0.205,-0.169 0.51,-0.367 0.781,-0.265c0.15,-0.212 0.192,-0.69 -0.083,-0.835c-0.546,-0.284 -0.865,0.397 -1.156,0.703c-0.415,0.43 -1.031,0.669 -1.579,0.906c-0.581,0.248 -1.098,0.467 -1.67,0.726c-0.647,0.297 -1.346,0.443 -2.001,0.711c-2.003,0.815 -4.202,1.377 -6.077,2.478c-0.808,0.473 -1.812,1.115 -2.281,1.952c-0.514,0.921 -0.343,1.74 -0.262,2.74c0.055,0.682 0.103,1.134 -0.301,1.682c-0.39,0.528 -0.495,0.741 -0.493,1.423Z" style="fill:#fff;fill-rule:nonzero;"/><path d="M100.755,57.731c-0.028,0.09 -0.102,0.16 -0.17,0.233c-0.468,0.512 -1.164,0.173 -1.737,0.059c-0.302,-0.061 -0.704,-0.079 -0.964,0.101c0.39,-0.269 0.368,-0.401 0.847,-0.478c0.352,-0.056 0.862,0.068 1.172,-0.164c0.345,-0.26 0.362,-0.765 0.703,-1.046c0.305,-0.251 0.74,-0.313 1.111,-0.4c1.204,-0.279 0.821,-1.142 1.256,-1.93c0.165,-0.304 0.501,-0.555 0.777,-0.75c-0.355,0.252 -0.364,1.171 -0.436,1.544c-0.101,0.496 -0.309,1.11 -0.776,1.37c-0.89,0.495 -1.397,0.175 -1.783,1.461l0,0Z" style="fill:#fff;fill-rule:nonzero;"/><path d="M105.937,31.843c-0.906,0.634 -1.789,1.171 -2.804,1.587c-2.001,0.815 -4.202,1.377 -6.078,2.477c-1.81,1.063 -3.412,2.737 -3.665,4.903c-0.099,0.847 0.635,2.126 0.356,2.774c-0.354,0.818 -1.973,0.815 -2.488,0.961c-1.547,0.438 -2.692,1.402 -2.462,2.537c0.231,1.136 0.291,1.456 0.131,2.173c-0.216,0.979 -1.317,0.963 -2.011,1.432c-1.04,0.707 -1.024,1.289 -1.141,2.454c-0.109,1.092 -0.878,1.135 -1.528,1.855c-0.65,0.724 -0.421,1.214 -0.626,2.075c-0.132,0.556 -0.348,0.868 -0.801,1.056c-0.036,0.014 -0.029,0.057 0.01,0.062c1.032,0.132 1.035,-1.154 1.188,-1.667c0.268,-0.905 0.414,-1.283 1.381,-1.738c0.426,-0.2 1.096,-0.242 1.302,-0.727c0.438,-1.026 -0.31,-1.838 0.547,-2.69c0.654,-0.649 1.811,-0.538 2.447,-1.237c0.793,-0.868 0.127,-2.003 0.09,-2.408c-0.078,-0.808 0.09,-1.903 0.987,-2.476c0.371,-0.238 1.28,-0.315 2.017,-0.327c0.37,-0.006 0.755,-0.024 1.09,-0.197c0.181,-0.094 0.298,-0.236 0.399,-0.354c0.553,-0.654 0.195,-1.34 0.118,-2.254c-0.233,-2.71 1.477,-5.262 3.984,-6.299c1.675,-0.693 3.365,-1.345 5.005,-2.121c1.078,-0.511 2.024,-1.258 3.087,-1.801c0.842,-0.432 2.226,-1.112 3.126,-0.458c0.029,-1.925 -3.178,0.068 -3.661,0.408l0,0Z" style="fill:#fff;fill-rule:nonzero;"/><path d="M94.641,51.382c0.299,0.004 0.501,-0.09 0.757,-0.24c0.825,-0.476 1.193,-1.337 1.346,-2.189c0.414,-2.316 3.324,-4.566 5.872,-5.637c1.409,-0.592 3.958,-3.084 4.674,-4.709c-2.949,1.27 -6.722,2.902 -8.989,6.086c0,0 -0.356,0.234 -0.358,0.234c0.419,-0.275 0.884,-1.567 1.289,-2.01c0.749,-0.827 1.651,-1.518 2.575,-2.135c1.093,-0.729 2.256,-1.361 3.445,-1.918c0.86,-0.403 2.224,-0.471 2.522,-1.556c1.186,1.925 -3.092,5.996 -4.634,6.666c-3.084,1.342 -5.26,2.338 -6.111,5.276c-0.266,0.921 -0.768,1.924 -1.653,2.39c-0.102,0.056 -0.752,0.227 -1.119,0.069c-0.506,-0.219 -1.48,-0.623 -1.658,-0.4c0.188,-0.237 0.457,-0.355 0.897,-0.254c0.019,0.004 0.72,0.32 1.145,0.327l0,0Z" style="fill:#fff;fill-rule:nonzero;"/><path d="M92.076,47.779c0.007,-0.159 0.023,-0.325 0.072,-0.498c0.216,-0.737 0.748,-1.123 1.494,-1.198c0.736,-0.075 1.369,0.498 2.01,0.419c0.348,-0.041 0.682,-0.267 0.927,-0.506c0.498,-0.491 0.797,-1.193 0.918,-1.872c0.414,-2.314 3.185,-4.85 5.808,-5.724c3.074,-1.027 4.745,-3.533 4.673,-4.709c-2.949,1.268 -6.722,2.902 -8.989,6.085l-0.357,0.236c0.417,-0.276 0.885,-1.566 1.287,-2.011c0.75,-0.828 1.653,-1.516 2.576,-2.135c1.094,-0.73 2.256,-1.363 3.445,-1.918c0.861,-0.402 2.225,-0.472 2.522,-1.556c1.187,1.925 -1.149,5.178 -4.635,6.669c-3.092,1.319 -5.259,2.335 -6.111,5.272c-0.293,1.013 -0.842,2.274 -1.949,2.58c-0.814,0.224 -1.432,-0.611 -2.274,-0.257c-0.646,0.272 -0.782,0.904 -0.883,1.546c-0.197,1.255 -1.372,0.926 -1.834,1.778c-0.047,-0.658 0.609,-0.714 0.967,-1.075c0.352,-0.356 0.318,-0.722 0.333,-1.126l0,0Z" style="fill:#fff;fill-rule:nonzero;"/><path d="M93.453,52.006c-0.096,-0.018 -0.197,-0.023 -0.31,-0.016c0.012,0.171 0.411,0.278 0.543,0.368c0.285,0.191 0.485,0.473 0.77,0.673c0.282,0.201 0.6,0.35 0.932,0.442c0.726,0.204 1.511,0.125 2.168,-0.25c0.123,-0.07 0.241,-0.149 0.354,-0.237c5.108,-3.979 5.064,-8.197 8.072,-11.536c-0.476,0.225 -0.982,0.423 -0.982,0.423c-1.08,0.961 -2.769,7.43 -7.156,10.471c-0.607,0.419 -1.34,0.638 -2.076,0.595c-0.304,-0.019 -0.611,-0.08 -0.897,-0.192c-0.285,-0.112 -0.487,-0.309 -0.749,-0.457c-0.108,-0.062 -0.222,-0.129 -0.335,-0.177c-0.117,-0.052 -0.223,-0.088 -0.334,-0.107l0,0Z" style="fill:#fff;fill-rule:nonzero;"/><path d="M88.202,57.821c0.404,-1.273 1.713,-0.572 2.67,-0.594c1.424,-0.038 1.588,-1.098 1.978,-2.164c0.435,-1.182 2.902,-0.56 4.047,-0.513c1.605,0.065 2.038,0.228 3.354,-0.811c1.47,-1.16 0.679,-3.806 1.564,-5.205c-0.45,0.711 -1.109,0.83 -1.322,1.803c-0.15,0.692 -0.307,2.331 -0.797,2.931c-1.023,1.259 -1.524,1.002 -3.037,0.957c-0.974,-0.031 -3.295,-0.747 -3.915,0.06c-0.729,0.945 -0.503,2.209 -1.874,2.423c-0.962,0.149 -2.257,-0.936 -2.877,1.097c-0.039,0.132 0.172,0.13 0.209,0.016Z" style="fill:#fff;fill-rule:nonzero;"/><path d="M92.494,57.786c-0.521,0.129 -1.037,0.067 -1.535,-0.123c-0.242,-0.092 -0.474,-0.204 -0.708,-0.314c-0.224,-0.105 -0.471,-0.164 -0.69,-0.267c0.051,-0.104 0.339,-0.011 0.433,0.021c0.15,0.049 0.304,0.082 0.46,0.116c0.469,0.103 1.018,0.341 1.502,0.226c1.448,-0.337 0.966,-2.127 2.172,-2.616c0.889,-0.363 2.038,0.051 2.896,0.332c5.817,1.902 8.22,-3.426 5.942,-6.484c-0.18,-0.242 -0.498,-1.413 -0.206,-2.098l0.883,-1.468c-0.807,1.934 -0.417,3.157 -0.179,3.561c2.654,4.528 -2.098,9.066 -6.403,6.87c-0.871,-0.443 -2.204,-0.85 -3.022,-0.07c-0.793,0.757 -0.169,1.97 -1.545,2.314l0,0Z" style="fill:#fff;fill-rule:nonzero;"/><path d="M94.873,63.855c0.26,0.694 1.14,0.116 1.638,0.203c0.299,0.053 0.479,0.351 0.753,0.359c0.39,0.01 0.713,-0.423 1.11,-0.463c0.669,-0.067 1.066,0.58 1.673,0.689c0.763,0.139 1.042,-0.703 1.452,-1.177c1.016,-1.181 1.87,-0.311 3,-0.987c0.809,-0.486 0.73,-1.793 0.935,-2.609c0.233,-0.92 0.791,-1.599 1.739,-1.801c0.874,-0.186 1.785,-0.056 2.67,-0.126c0.439,-0.034 1.006,-0.113 1.38,-0.353c0.678,-0.429 0.762,-1.251 0.818,-2.153c0.086,0.339 0.255,1.184 -0.224,1.989c-0.503,0.85 -1.521,1.223 -2.454,1.324c-1.383,0.152 -2.51,-0.211 -3.353,1.188c-0.492,0.811 -0.096,1.988 -0.69,2.734c-0.66,0.832 -1.713,0.37 -2.565,0.815c-0.557,0.291 -0.73,0.724 -1.059,1.232c-0.406,0.626 -1.017,1.044 -1.762,0.585c-0.517,-0.315 -0.899,-0.611 -1.522,-0.642c-0.471,-0.024 -0.926,0.361 -1.386,0.235c-0.199,-0.057 -0.361,-0.213 -0.556,-0.264c-0.367,-0.097 -0.989,-0.017 -1.375,-0.181c-0.35,-0.149 -0.114,-0.307 -0.222,-0.597l0,0Z" style="fill:#fff;fill-rule:nonzero;"/><path d="M110.64,32.023c-0.065,0.07 -0.129,0.141 -0.191,0.207c-0.198,-0.179 -0.066,-0.477 0.06,-0.647c0.738,-0.978 1.983,-0.453 2.963,-0.352c0.843,0.087 0.553,-0.606 0.866,-0.996c0.241,-0.303 0.762,-0.15 0.963,0.141c0.263,0.381 -0.229,1.233 0.079,1.276c0.069,0.335 -0.337,0.395 -0.517,0.174c-0.252,-0.314 0.161,-0.403 0.223,-0.629c0.064,-0.247 -0.009,-0.668 -0.283,-0.674c-0.37,-0.009 -0.298,0.442 -0.457,0.638c-0.203,0.255 -0.581,0.359 -0.89,0.373c-0.503,0.022 -0.923,-0.272 -1.417,-0.289c-0.593,-0.023 -1.028,0.378 -1.399,0.778l0,0Z" style="fill:#fff;fill-rule:nonzero;"/><path d="M110.319,30.864c0.168,-0.423 0.5,-0.809 0.833,-0.996c0.544,-0.306 1.32,-0.229 1.859,0.063c0.22,0.12 1.079,0.842 0.907,1.169c-0.509,0.097 -0.535,-0.551 -0.85,-0.772c-0.401,-0.282 -1.138,-0.111 -1.545,0.114c-0.276,0.153 -0.505,0.374 -0.695,0.622c-0.038,0.051 -0.459,0.82 -0.413,0.824c-0.019,-0.001 -0.061,0 -0.079,0c-0.18,-0.302 -0.155,-0.675 -0.017,-1.024l0,0Z" style="fill:#fff;fill-rule:nonzero;"/><path d="M104.357,31.544c0.714,-0.174 1.039,-0.609 1.429,-1.189c0.212,-0.317 0.532,-0.539 0.851,-0.736c0.196,-0.121 0.465,-0.222 0.695,-0.107c0.18,0.088 0.295,0.345 0.497,0.376c0.592,0.092 0.95,-0.717 1.581,-0.443c0.589,0.255 0.528,0.999 0.723,1.509c0.071,0.186 0.213,0.338 0.304,0.511c0.171,-0.73 0.164,-1.466 -0.291,-2.076c-0.436,-0.59 -1.064,-0.685 -1.675,-0.34c-0.632,0.357 -1.379,-0.14 -1.985,0.203c-0.416,0.232 -0.767,0.814 -1.062,1.172c-0.413,0.496 -0.805,0.662 -1.442,0.496c-0.663,-0.171 -1.222,0.397 -1.337,1.013c-0.093,0.491 -0.081,1.36 -0.639,1.596c0.577,0.279 0.801,-0.359 0.953,-0.79c0.24,-0.678 0.667,-1.017 1.398,-1.195l0,0Z" style="fill:#fff;fill-rule:nonzero;"/><path d="M87.64,55.357c1.042,-0.014 1.107,-1.167 2.271,-1.371c1.237,-0.217 0.508,-2.07 3.129,-2.036c0.234,0.005 0.424,0.103 0.644,0.161c0.188,0.05 0.344,0.111 0.47,0.271c0.052,0.066 0.129,0.134 0.169,0.207c0.062,0.102 0.033,0.121 0.026,0.228c-0.655,-0.348 -1.504,-0.605 -2.22,-0.267c-0.566,0.271 -0.942,0.744 -1.108,1.344c-0.304,1.101 -0.845,0.691 -1.405,0.957c-0.72,0.342 -1.116,1.021 -1.976,0.506Z" style="fill:#fff;fill-rule:nonzero;"/><path d="M79.381,60.169c-0.283,-0.006 -0.56,-0.011 -0.837,-0.015c-4.578,-0.265 -6.011,-1.765 -9.468,-0.122c-0.097,0.047 -0.19,0.094 -0.279,0.142c-3.379,1.805 -2.204,4.839 -4.418,6.719c-1.992,1.692 -5.661,2.631 -7.351,3.978c-1.072,0.852 -1.484,2.149 -1.607,2.712c-0.308,1.4 -0.112,3.229 0.941,4.947c0.821,1.338 -0.547,2.16 -0.235,3.498c0.288,-1.01 0.982,-1.568 1.175,-2.483c0.157,-0.765 -0.143,-1.52 -0.576,-2.183c-0.527,-0.806 -0.809,-2.533 -0.65,-3.495c0.207,-1.263 1.645,-2.071 2.904,-2.565c3.358,-1.318 6.687,-3.441 7.502,-6.761c1.25,-5.097 6.219,-4.959 9.634,-4.368c-2.284,0.095 -4.355,0.477 -6.227,1.69c-1.988,1.291 -2.683,4.248 -3.44,5.081c-3.979,4.378 -8.982,4.683 -8.709,12.845c0.015,0.421 -0.598,1.694 -0.81,2.297c-0.199,0.568 -0.406,1.131 -0.368,1.739c0.013,0.242 0.109,1.083 0.751,1.375c-0.2,-0.352 -0.439,-0.828 -0.439,-1.228c0,-0.532 0.184,-0.849 0.36,-1.34c0.233,-0.652 0.5,-1.289 0.692,-1.957c0.312,-1.072 0.476,-2.183 0.571,-3.293c0.418,-4.862 3.687,-6.095 7.968,-8.758c1.076,-0.671 1.509,-1.602 1.81,-2.507c0.166,-0.498 0.305,-1.012 0.355,-1.528c0.059,-0.606 0.188,-1.244 0.653,-1.734c0.105,-0.112 0.854,-0.684 0.984,-0.773c1.246,-0.871 2.832,-1.122 4.359,-1.411c1.244,-0.233 2.293,-0.146 3.436,-0.1c0.099,0.023 0.195,0.043 0.286,0.065c-1.763,0.11 -3.656,0.409 -5.516,1.179c-0.284,0.117 -0.656,0.255 -0.912,0.411c-0.248,0.15 -0.484,0.287 -0.736,0.436c-1.215,0.709 -1.7,1.833 -1.884,3.027c-0.224,1.462 -0.549,2.851 -2.009,3.534c-9.658,4.517 -7.124,8.145 -8.467,11.155c-0.781,1.75 -1.415,3.181 -0.909,5.047c0.307,1.134 2.49,3.944 7.418,4.578c-2.338,-1.127 -7.831,-2.232 -6.952,-6.906c0.301,-1.597 1.628,-4.178 1.812,-6.17c0.06,-0.654 0.496,-1.277 0.953,-1.918c1.76,-2.278 5.158,-2.896 7.078,-4.929c1.205,-1.107 1.865,-2.506 2.132,-3.987c0.118,-0.66 0.314,-2.483 1.882,-3.431c0.823,-0.494 1.859,-0.833 2.827,-1.052c0.846,-0.193 1.787,-0.272 2.754,-0.392c-0.202,0.045 -0.455,0.133 -0.582,0.168c-0.352,0.089 -0.698,0.197 -1.04,0.313c-0.695,0.239 -1.369,0.517 -2.032,0.816c-1.37,0.621 -2.585,1.571 -2.76,2.619c-0.979,5.925 -5.805,7.15 -9.167,10.982c-0.402,0.481 -0.679,0.981 -0.845,1.489c-0.184,0.515 -0.257,1.04 -0.69,1.741c-2.192,3.554 -1.827,9.727 4.6,8.997c-2.882,-0.41 -5.68,-2.477 -5.478,-5.14c0.366,-1.79 1.575,-3.436 2.209,-4.834c0.635,-1.394 0.856,-2.166 1.889,-2.878c4.063,-2.803 7.642,-5.026 7.704,-9.023c0.026,-1.575 1.286,-2.849 2.329,-3.385c1.159,-0.596 2.244,-0.991 3.488,-1.324c-0.26,0.125 -2.349,1.199 -3.956,2.394c-0.789,0.585 -1.641,2.582 -1.724,4.016c-0.253,4.435 -2.96,5.898 -7.119,8.498c-2.031,1.271 -3.295,4.062 -3.504,6.122c-0.118,1.159 0.089,2.396 1.102,3.248c0.541,0.455 1.217,0.691 1.932,0.875c1.239,0.318 1.536,0.417 2.281,1.375c0.664,0.856 1.119,1.025 2.266,1.43c-1.013,-0.974 -0.919,-2.212 -1.86,-3.107c-0.765,-0.727 -2.059,-0.587 -2.957,-1.117c-0.904,-0.536 -1.251,-1.427 -1.366,-2.319c-0.294,-2.293 0.969,-4.606 2.918,-6.145c0.217,-0.187 0.607,-0.281 0.878,-0.392c1.678,-0.691 3.244,-1.584 4.394,-2.854c0.793,-0.872 1.349,-1.887 1.646,-2.96c0.18,-0.651 0.269,-1.316 0.283,-1.984c0.017,-0.817 0.075,-1.495 0.284,-2.331c0.438,-1.763 1.862,-2.67 2.704,-3.274c0.568,-0.409 1.249,-0.659 1.938,-0.878c0.31,-0.099 1.478,-0.478 1.478,-0.478c0,0 1.12,-1.247 1.214,-1.427c0.108,-0.209 -0.716,-0.321 -0.895,-0.282l0,0Z" style="fill:#fff;fill-rule:nonzero;"/><path d="M107.153,82.907c0.006,-0.01 0.139,-1.193 0.128,-1.2c-3.289,-0.224 -8.024,-1.18 -10.155,-1.868c-0.1,-0.026 -0.128,-2.721 -2.229,-4.165c-0.275,-0.19 0.187,0.773 0.326,1.822c0.184,1.412 0.107,3.094 0.107,3.253c-0.005,3.686 -1.74,10.507 -1.704,10.722c0.2,1.169 0.298,2.157 2.236,3.453c2.918,1.952 8.291,7.405 8.385,7.845c-5.931,-4.532 -10.18,-7.105 -13.033,-7.861c-0.863,-0.228 -1.772,-10.692 -6.61,-14.39c-2.383,-1.822 -5.018,-3.379 -6.071,-5.441c-3.001,-5.881 -1.159,-13.111 6.569,-16.152c6.108,-2.399 14.937,0.325 18.038,1.41c0.086,0.031 0.087,-0.645 -0.055,-0.706c-2.467,-1.041 -11.951,-4.041 -19.333,-1.402c-8.292,2.962 -10.546,10.977 -6.153,18.148c2.865,4.674 9.541,5.262 10.334,13.625c0.169,1.77 0.31,2.982 0.34,3.804c0.053,1.521 1.123,1.985 1.966,2.122c2.443,0.399 14.874,6.888 15.771,10.475c0.071,0.29 -0.04,0.754 -0.182,1.021l4.316,0.03c0.012,-0.375 -0.943,-1.766 -1.369,-2.428c-1.025,-1.591 -8.346,-7.016 -9.027,-7.66c-4.37,-4.118 -4.718,-7.211 -4.701,-7.727c0.009,-0.258 1.2,-7.921 1.31,-8.653c0.006,-0.05 0.009,-0.069 0.003,-0.048c0.118,0.043 -0.121,-2.021 0.003,-1.978c0.09,0.03 0.543,2.17 0.637,2.2c2.471,0.844 8.277,1.699 10.153,1.749l0,0Z" style="fill:#fff;fill-rule:nonzero;"/><path d="M108.954,83.058l0.791,-1.208c0,0 4.257,0.114 6.299,-0.554c0,0 4.197,4.827 5.819,6.266c1.1,0.972 4.128,3.823 4.624,4.184c0.526,0.387 1.067,0.912 1.136,1.603c0.062,0.581 -0.369,1.048 -0.631,1.532c-0.292,0.543 -1.509,3.121 -1.835,3.863c0.393,0 4.445,-5.052 3.759,-6.277c-0.949,-1.692 -1.903,-3.378 -2.928,-5.026c-0.68,-1.087 -1.38,-2.163 -2.141,-3.193c-0.185,-0.248 0.789,-0.864 1.482,-1.836c0.717,-1.005 1.158,-2.36 1.238,-2.254c0.028,0.041 0.515,1.771 0.126,2.776c-0.17,0.441 -0.983,1.35 -0.927,1.439c1.352,2.202 2.84,5.53 3.336,6.478c0.36,0.683 1.11,1.362 1.161,2.273c0.067,1.216 -2.977,4.741 -3.758,5.562c-1.109,1.166 -1.772,2.53 -2.783,3.491c-0.516,0.492 -3.956,2.451 -3.956,2.451c0.098,-0.344 -0.157,-3.726 -0.058,-4.217c0.008,-0.048 3.309,-0.417 3.565,-0.65c1.048,-0.953 1.733,-2.714 2.427,-3.922c0.375,-0.652 0.953,-1.377 1.029,-2.144c0.085,-0.862 -0.86,-1.487 -1.482,-1.882c-1.62,-1.021 -4.745,-3.977 -5.687,-4.716c-0.965,-0.758 -3.618,-3.376 -3.908,-4.037c-2.279,0.175 -6.698,-0.002 -6.698,-0.002l0,0Z" style="fill:#fff;fill-rule:nonzero;"/><path d="M73.869,83.97c0.084,-0.016 -0.084,-0.016 0,0Z" style="fill:#fff;fill-rule:nonzero;"/><path d="M86.594,84.317c-1.367,-1.547 -7.455,-6.366 -7.455,-6.366c-0.192,0.408 -0.457,1.058 -0.782,1.493c-1.85,2.466 -4.426,3.979 -4.684,3.936c-0.515,0.098 -1.104,0.41 -1.429,0.872c-0.429,0.609 -0.462,1.427 -0.196,2.068c0.767,1.858 1.211,5.826 1.147,7.511c-0.065,1.73 0.129,3.221 -0.523,4.824c-0.774,1.903 -4.266,1.839 -4.536,1.903l1.841,3.891c0.287,-0.208 2.052,-1.462 2.339,-2.116c0.696,-1.575 0.732,-1.566 1.184,-2.762c0.289,-0.769 1.701,-4.193 1.926,-5.353c0.352,-1.812 0.48,-3.597 0.47,-3.907c-0.002,-0.029 0.122,-1.607 0.237,-1.791c0.17,-0.269 0.439,-0.585 0.724,-0.715c0.377,-0.171 2.025,-0.307 2.509,-0.271c0.305,0.024 4.357,0.335 6.524,-1.573c0,0 1.182,-1.103 0.704,-1.644l0,0ZM76.957,85.617c-1.228,-0.097 -1.597,1.365 -1.724,1.565c-0.058,0.092 -0.183,3.146 -0.369,5.364c-0.084,0.996 -0.359,2.139 -0.701,3.226c0.508,-3.542 -0.425,-7.748 -0.877,-9.322c-0.289,-1.005 0.311,-2.066 0.698,-2.14c0.775,0.064 4.097,-2.669 6.159,-5.186c0,0 2.844,0.985 3.769,2.011c0.925,1.025 2.346,2.681 2.346,2.681c-2.513,2.512 -4.642,2.168 -9.301,1.801l0,0Z" style="fill:#fff;fill-rule:nonzero;"/><path d="M134.047,105.46l0.227,0c0.26,0 0.479,-0.094 0.479,-0.337c0,-0.173 -0.126,-0.348 -0.479,-0.348c-0.103,0 -0.173,0.009 -0.227,0.017l0,0.668ZM134.047,106.554l-0.315,0l0,-1.973c0.163,-0.024 0.322,-0.048 0.558,-0.048c0.299,0 0.494,0.063 0.614,0.149c0.118,0.087 0.18,0.221 0.18,0.408c0,0.261 -0.173,0.417 -0.385,0.481l0,0.016c0.174,0.03 0.29,0.188 0.33,0.479c0.046,0.306 0.094,0.424 0.125,0.488l-0.329,0c-0.048,-0.064 -0.094,-0.244 -0.134,-0.503c-0.048,-0.252 -0.174,-0.346 -0.426,-0.346l-0.218,0l0,0.849ZM134.376,104.03c-0.778,0 -1.416,0.666 -1.416,1.493c0,0.842 0.638,1.503 1.424,1.503c0.787,0.008 1.415,-0.661 1.415,-1.494c0,-0.836 -0.628,-1.502 -1.415,-1.502l-0.008,0ZM134.384,103.754c0.966,0 1.738,0.787 1.738,1.769c0,0.998 -0.772,1.778 -1.746,1.778c-0.968,0 -1.754,-0.78 -1.754,-1.778c0,-0.982 0.786,-1.769 1.754,-1.769l0.008,0Z" style="fill:#fff;fill-rule:nonzero;"/><path d="M112.388,46.051c-0.35,0.151 -1.362,0.981 -1.415,1.08c-0.167,0.319 -0.278,0.679 -0.342,1.051c-0.152,0.876 -0.126,1.194 -0.602,1.668c-0.208,0.207 -2.139,1.467 -3.018,1.927c0.1,-0.239 0.179,-0.517 0.242,-0.726l0.165,-0.583c0.139,-0.688 0.023,-1.403 -0.334,-1.891c-0.153,-0.205 -0.162,-0.544 -0.211,-0.782c0.036,-0.27 0.073,-0.539 0.085,-0.797c0.024,-0.476 -0.22,-0.938 -0.22,-1.366c0,0.288 -0.265,0.592 -0.277,0.906c-0.026,0.669 -0.609,4.598 0.004,6.216c0.124,0.328 2.975,-2.005 3.707,-2.609c0.916,-0.755 0.738,-1.545 1.056,-2.574c0.086,-0.275 0.981,-1.143 1.282,-1.353c0.396,-0.278 1.166,-0.481 1.323,-0.589c-0.225,-0.065 -1.166,0.305 -1.445,0.422l0,0ZM106.911,50.365l-0.151,0.538c-0.006,0.015 -0.01,0.03 -0.015,0.046c-0.009,-0.595 -0.013,-1.195 0.007,-1.79c0.144,0.397 0.241,0.801 0.159,1.206l0,0Z" style="fill:#fff;fill-rule:nonzero;"/><path d="M112.174,33.851c-0.308,0.115 -0.874,0.594 -0.899,0.768c-0.037,0.257 0.057,0.615 0.158,0.81c0.166,0.322 0.181,0.272 0.402,0.636c0.057,-0.159 -0.166,-0.458 -0.188,-0.561c-0.053,-0.244 -0.093,-0.251 -0.098,-0.398c-0.021,-0.558 0.565,-0.323 0.505,-1.015" style="fill:#fff;fill-rule:nonzero;"/><path d="M112.236,48.459c-0.293,0.639 -0.112,1.067 -0.579,1.67c-1.21,1.565 -5.713,5.455 -5.934,5.227c-1.078,-1.116 -1.459,-4.534 -1.46,-7.009c-0.001,-1.817 0.138,-3.7 0.493,-4.757c0.4,-1.192 1.016,-1.885 1.882,-2.115c0.197,-0.052 0.426,-0.077 0.669,-0.073c0.741,0.005 2.401,0.511 2.7,1.34c-0.209,-0.579 -0.662,-1.055 -1.216,-1.38c0.077,-0.563 -0.089,-2.579 -0.406,-3.863c0,0 -0.015,0.1 -0.297,0.049c-0.284,-0.053 -0.396,-0.449 -0.396,-0.449c0.146,0.531 0.7,3.443 0.711,4.07c-0.617,-0.265 -1.303,-0.349 -1.897,-0.192c-1.031,0.272 -1.785,1.097 -2.24,2.449c-0.425,1.258 -0.564,3.518 -0.549,5.541c0.019,2.219 0.372,5.974 1.69,7.295c0.636,0.632 6.194,-5.275 6.656,-6.369c0.19,-0.447 0.333,-1.087 0.749,-1.862c0.368,-0.685 0.654,-1.739 1.022,-2.401c-0.341,0.26 -1.218,1.997 -1.598,2.829l0,0Z" style="fill:#fff;fill-rule:nonzero;"/><path d="M113.551,58.923c-0.612,2.133 -0.521,1.785 -1.803,2.584c-1.497,0.933 -1.417,1.574 -1.186,2.871c0.212,1.183 -0.502,1.487 -1.531,1.277c-1.22,-0.245 -1.496,1.352 -2.6,1.215c-0.559,-0.069 -0.982,0.339 -1.517,0.618c-0.267,0.138 -0.892,0.366 -1.145,-0.014c0.664,0.096 0.823,-0.509 1.271,-0.814c0.498,-0.341 1.138,-0.207 1.683,-0.485c0.411,-0.209 0.545,-0.714 0.976,-0.883c0.494,-0.195 1.056,0.202 1.547,0.039c0.746,-0.248 0.584,-1.357 0.43,-1.927c-0.395,-1.478 1.446,-2.044 1.931,-2.46c0.493,-0.421 1.039,-0.996 1.31,-1.935c0.514,-1.79 -0.047,-2.882 0.032,-4.074c0.038,-0.55 0.039,-0.87 0.345,-1.349c0.317,-0.498 0.931,-0.755 1.362,-1.155c0.346,-0.323 0.959,-0.733 1.335,-0.943c-0.48,0.592 -1.439,1.184 -1.897,1.655c-0.567,0.578 -0.876,1.203 -0.754,2.07c0.165,1.176 0.545,2.55 0.211,3.71l0,0Z" style="fill:#fff;fill-rule:nonzero;"/><path d="M121.294,42.935c-0.54,-0.424 -1.149,-0.56 -0.821,-1.458c0.169,-0.457 0.45,-0.878 0.318,-1.475c-0.089,-0.405 -0.298,-0.77 -0.652,-0.996c-0.372,-0.238 -0.828,-0.309 -1.259,-0.351c-0.483,-0.044 -0.968,-0.046 -1.449,-0.106c-0.229,-0.029 -0.533,-0.075 -0.752,-0.147c-0.105,-0.034 -0.366,-0.137 -0.511,-0.423c-0.228,-0.443 0.364,-0.574 0.633,-0.78c0.209,-0.157 0.381,-0.363 0.499,-0.598c0.307,-0.606 0.166,-1.366 -0.499,-1.65c-0.279,-0.122 -0.277,-0.353 -0.113,-0.54c0.494,-0.559 0.414,-2.072 -1.025,-2.021c-0.743,0.026 -0.909,0.489 -1.763,0.396c-0.457,-0.048 -0.739,-0.223 -0.905,-0.87c-0.152,-0.592 -0.737,-0.876 -1.28,-0.56c-0.289,0.167 -0.4,0.417 -0.522,0.71c-0.039,0.09 -0.227,0.342 -0.034,0.374c0.171,0.029 0.15,-0.221 0.22,-0.308c0.05,-0.064 0.131,-0.116 0.203,-0.154c0.297,-0.156 0.7,-0.092 0.771,0.281c0.28,1.43 0.596,1.947 0.961,2.522c0.201,0.316 0.463,0.729 0.177,1.017c-0.206,0.205 -0.559,0.231 -0.585,0.622c-0.024,0.372 0.225,0.748 0.647,0.687c0.501,-0.071 0.452,-0.82 -0.074,-0.723c0.175,0.006 0.28,0.266 0.136,0.367c-0.281,0.199 -0.526,-0.158 -0.352,-0.394c0.122,-0.162 0.408,-0.303 0.557,-0.421c0.588,-0.472 0.215,-1.045 -0.159,-1.547c-0.501,-0.676 -0.928,-1.319 -0.957,-1.947c0.642,1.326 2.16,0.402 2.999,0.248c0.931,-0.171 1.17,0.982 0.434,1.471c-0.719,0.478 -0.346,0.894 0.463,1.142c0.129,0.04 0.256,0.102 0.347,0.207c0.215,0.241 0.135,0.589 -0.014,0.842c-0.095,0.162 -0.223,0.308 -0.369,0.429c-0.352,0.3 -0.877,0.681 -0.653,1.218c0.166,0.389 0.664,0.566 1.03,0.692c0.172,0.06 0.361,0.11 0.536,0.149c0.612,0.144 1.29,0.227 1.854,0.53c0.627,0.336 1.03,0.721 0.846,1.854c-0.099,0.599 -0.66,0.886 -0.278,1.468c0.259,0.392 1.082,0.467 1.315,0.972c0.426,0.917 -0.236,1.199 -0.804,1.589c-0.408,0.278 -0.724,0.471 -0.828,0.949c-0.149,0.679 0.508,1.175 0.097,1.887c-0.257,0.445 -0.796,0.647 -1.251,0.806c-0.614,0.216 -0.67,0.561 -1.204,0.934c-0.6,0.421 -1.149,1.041 -1.67,1.54c-1.12,1.079 -2.895,0.401 -3.458,1.535c-0.664,1.335 0.475,3.527 0.216,4.894c-0.287,1.508 -2.074,1.662 -3.294,1.768c-1.492,0.128 -2.518,0.734 -2.045,2.308c0.332,1.109 0.45,1.147 0.453,1.879c0.001,1.126 -1.429,0.705 -2.133,0.982c-0.912,0.361 -1.292,1.611 -2.957,1.641c-0.683,0.01 -1.187,-0.157 -1.874,0.093c-0.727,0.265 -1.377,0.766 -2.191,0.167c-0.252,-0.184 -0.26,-0.621 -0.596,-0.722c-0.288,-0.085 -0.577,0.086 -0.859,0.014c-0.226,-0.058 -0.358,-0.301 -0.579,-0.349c-0.19,-0.041 -0.576,0.096 -0.608,-0.201c-0.009,0.179 0.166,0.362 0.331,0.393c0.149,0.029 0.295,-0.034 0.394,0.107c0.111,0.16 0.195,0.372 0.407,0.412c0.231,0.045 0.481,-0.035 0.705,0.059c0.472,0.195 0.82,0.835 1.282,1.044c0.66,0.299 1.422,-0.009 2.072,-0.17c0.714,-0.176 1.097,-0.039 1.769,0.026c1.111,0.11 1.73,-0.583 2.354,-1.348c0.872,-1.07 2.253,-0.485 2.948,-1.248c0.791,-0.867 -0.016,-2.02 -0.132,-2.411c-0.405,-1.369 0.106,-2.31 2.729,-2.52c1.213,-0.096 1.842,-0.719 1.943,-0.839c1.059,-1.251 -0.1,-3.542 -0.023,-4.867c0.071,-1.223 1.378,-0.983 2.248,-1.585c0.832,-0.576 1.287,-1.267 1.972,-1.991c0.072,-0.075 0.142,-0.146 0.216,-0.212c0.669,-0.613 1.403,-0.888 2.216,-1.355c0.523,-0.303 1.025,-0.732 1.091,-1.363c0.069,-0.653 -0.2,-1.254 0.433,-1.722c0.497,-0.368 1.234,-0.68 1.417,-1.371c0.187,-0.702 -0.155,-1.049 -0.707,-1.482l0,0Z" style="fill:#fff;fill-rule:nonzero;"/><path d="M112.733,33.079c0.667,1.436 1.998,1.147 2.524,0.766c1.341,-0.974 1.471,-0.271 1.113,0.105l0.331,-0.054c0.163,-0.709 -0.184,-1.059 -1.316,-0.491c-0.784,0.393 -1.949,0.165 -2.693,-1.279l0.041,0.953Z" style="fill:#fff;fill-rule:nonzero;"/><path d="M112.627,36.847c-0.286,1.519 0.621,2.39 2.262,2.85c0.621,0.175 2.134,0.39 2.592,0.851c0.711,0.71 -0.325,1.413 0.038,2.255c0.231,0.537 0.84,0.633 1.019,1.213c0.268,0.888 -0.257,1.24 -0.579,1.927c-0.303,0.647 -0.056,1.155 0.258,1.678c0.3,0.498 0.274,1.652 -0.402,1.955c0.441,-0.77 -0.015,-1.296 -0.353,-1.975c-0.441,-0.886 -0.197,-1.441 0.324,-2.248c0.356,-0.554 0.355,-1.077 -0.008,-1.638c-0.271,-0.421 -0.729,-0.518 -0.808,-1.037c-0.083,-0.546 0.27,-0.7 0.4,-1.152c0.265,-0.938 -2.291,-1.382 -2.929,-1.525c1.384,0.725 0.728,2.845 0.271,3.661c-0.28,0.507 -0.434,0.647 -0.774,1.137c-0.222,0.314 -0.468,0.714 -0.65,0.995l-0.506,0.192c0.255,-0.681 0.761,-1.277 1.147,-1.9c0.539,-0.864 0.943,-2.293 0.661,-3.302c-0.212,-0.762 -1.067,-0.943 -1.575,-1.448c-0.635,-0.63 -0.647,-2.194 -0.192,-2.883" style="fill:#fff;fill-rule:nonzero;"/><path d="M112.81,47.641c0.203,0.369 0.486,0.692 0.481,1.191c-0.01,0.671 -0.57,1.212 -0.543,1.865c0.021,0.524 0.359,1.092 0.035,1.581c-0.214,0.326 -0.575,0.358 -0.582,0.808c0.243,-0.358 0.925,-0.279 1.233,-0.633c0.526,-0.601 0.028,-1.046 -0.112,-1.626c-0.181,-0.744 0.373,-1.225 0.477,-1.927c0.106,-0.722 -0.534,-1.035 -0.767,-1.593l-0.222,0.334l0,0Z" style="fill:#fff;fill-rule:nonzero;"/><path d="M115.692,46.983c-0.007,-0.06 -0.02,-0.119 -0.039,-0.179c-0.079,-0.229 -0.292,-0.414 -0.458,-0.583c-0.429,-0.433 -0.663,-0.854 -0.581,-1.489c0.064,-0.486 0.361,-0.91 0.574,-1.339c0.244,-0.498 0.405,-1.123 0.248,-1.667c-0.106,-0.36 -0.312,-0.656 -0.534,-0.95c-0.235,-0.306 -0.534,-0.428 -0.387,-0.837c0.309,0.173 0.893,0.647 1.083,0.943c0.446,0.7 0.45,1.546 0.13,2.336c-0.26,0.638 -0.688,1.196 -0.489,1.925c0.14,0.517 0.59,0.813 0.877,1.237c0.187,0.278 0.269,0.564 0.148,0.876c-0.23,0.587 -0.621,0.874 -0.202,1.47c0.438,0.626 0.922,0.667 0.739,1.518c-0.054,0.255 -0.07,0.527 -0.279,0.715c-0.104,0.096 -0.657,0.18 -0.659,0.183c0.428,-0.713 0.558,-1.182 -0.017,-1.779c-0.322,-0.334 -0.57,-0.72 -0.512,-1.201c0.054,-0.436 0.415,-0.716 0.358,-1.179l0,0Z" style="fill:#fff;fill-rule:nonzero;"/><path d="M58.517,145.934c3.865,0 11.429,-2.449 11.435,-14.433c0.003,-9.263 -5.855,-15.557 -12.64,-15.557c-7.17,0 -12.113,4.764 -12.124,13.833c-0.006,9.317 5.598,16.157 13.329,16.157l0,0ZM57.612,114.192c9.659,0 17.249,6.095 17.249,16.1c0,9.62 -7.154,17.57 -17.508,17.57c-11.759,0 -16.945,-9.152 -16.945,-16.878c0,-6.96 5.356,-16.792 17.204,-16.792l0,0Z" style="fill:#fff;fill-rule:nonzero;"/><path d="M90.314,131.864c0,4.551 0.048,8.501 0.087,9.311c0.043,1.078 0.294,2.507 0.638,2.98c0.558,0.823 1.652,1.714 6.72,1.714c4.001,0 7.179,-1.164 9.706,-3.701c2.237,-2.186 3.44,-6.31 3.44,-10.261c0,-5.451 -2.361,-8.977 -4.116,-10.823c-4.047,-4.257 -8.428,-4.565 -13.541,-4.565c-0.855,0 -2.025,0.133 -2.376,0.303c-0.382,0.172 -0.51,0.395 -0.51,0.855c-0.048,1.461 -0.048,5.558 -0.048,8.864l0,5.323ZM85.873,134.78l0,-7.552c0,-6.707 -0.102,-12.328 -0.102,-12.328c0.517,0 5.548,-0.127 8.123,-0.127c4.253,0 12.475,-0.39 17.58,4.892c2.15,2.235 4.169,5.799 4.169,10.911c0,5.411 -2.23,9.572 -4.636,12.108c-1.846,1.936 -6.08,4.937 -13.381,4.937c-3.69,0 -11.628,-0.512 -12.06,-0.512c0,0 0.307,-8.205 0.307,-12.329Z" style="fill:#fff;fill-rule:nonzero;"/><path d="M126.66,134.767l0,-7.553c0,-6.707 -0.347,-12.455 -0.347,-12.455c0.6,0.001 1.687,0.124 2.574,0.129c0.645,0.005 1.856,-0.167 2.373,-0.129c0,0 -0.157,5.748 -0.157,12.455l0,7.553c0,4.125 0.482,12.452 0.482,12.452c-0.928,-0.024 -1.449,-0.141 -2.698,-0.126c-1.132,0.013 -1.82,0.186 -2.588,0.126c0,0 0.361,-8.327 0.361,-12.452l0,0Z" style="fill:#fff;fill-rule:nonzero;"/><path d="M25.462,136.276c0,-3.48 -0.009,-5.155 -0.009,-5.155c0.728,-0.004 1.41,0.118 2.225,0.13c0.676,0.004 1.566,-0.134 2.291,-0.13l0.014,3.181c-0.086,1.375 -0.086,2.666 -0.086,4.467l0,4.807c0,1.934 -0.043,2.02 -0.558,2.321c-2.753,1.458 -7.027,1.92 -9.524,1.931c-4.081,0.023 -10.402,-0.709 -14.701,-4.813c-2.513,-2.396 -5.111,-6.758 -5.114,-12.018c-0.01,-6.876 3.389,-11.731 7.212,-14.123c3.868,-2.414 8.657,-2.714 11.963,-2.714c2.706,0 5.962,0.559 6.776,0.734c0.906,0.211 2.403,0.381 3.482,0.421c0.428,0.047 0.515,0.219 0.515,0.388c0,0.606 -0.259,0.306 -0.305,4.619c-0.004,0.468 -0.444,0.282 -0.996,-0.249c0,0 -0.572,-0.432 -0.978,-0.802c-1.451,-1.303 -4.37,-3.311 -9.912,-3.311c-2.706,0 -5.615,0.248 -8.671,2.626c-2.507,1.949 -4.331,5.881 -4.331,10.909c0,6.051 3.044,10.43 4.546,11.894c3.396,3.307 6.799,4.315 10.821,4.428c1.545,0.041 3.468,-0.185 4.481,-0.731c0.555,-0.315 0.859,-0.777 0.859,-1.51l0,-7.3l0,0Z" style="fill:#fff;fill-rule:nonzero;"/><path d="M167.501,114.759c0.282,0.036 1.346,0.125 1.861,0.125c0.258,0 0.317,-0.041 1.565,-0.041c0,0 -13.331,31.31 -13.576,31.807c-0.413,0.834 -0.73,1.167 -1.003,1.167c-0.521,0.012 -0.809,-0.6 -1.628,-2.658l-10.665,-26.32l-1.646,-4.084c0.797,-0.034 2.214,0.128 2.728,0.128c0.439,0 2.177,-0.124 2.707,-0.128c0,0 1.104,3.569 1.746,5.238l7.886,20.718c1.064,-2.466 8.359,-20.796 8.901,-22.568c0.218,-0.641 1.124,-3.384 1.124,-3.384l0,0Z" style="fill:#fff;fill-rule:nonzero;"/><path d="M189.865,133.424c0.207,0 0.207,-0.131 0.171,-0.302l-3.987,-11.561c-0.17,-0.337 -0.296,-0.337 -0.484,0l-3.852,11.561c-0.086,0.214 0,0.302 0.128,0.302l8.024,0ZM194.631,145.389l-3.736,-9.779c-0.093,-0.173 -0.181,-0.257 -0.394,-0.257l-9.235,0c-0.21,0 -0.339,0.127 -0.424,0.344l-2.519,6.811c-0.384,1.078 -1.669,4.726 -1.669,4.726c0,0 -0.864,-0.04 -1.342,-0.04c-0.466,0 -1.261,0.085 -1.76,0.04l1.862,-4.726l10.117,-26.61c0.518,-1.42 0.886,-1.68 1.139,-1.68c0.26,0 0.657,0.306 1.169,1.643c0.648,1.634 7.455,19.208 10.045,25.752l2.116,5.621c-0.835,0.005 -1.595,-0.115 -2.38,-0.115c-0.781,0 -1.345,0.056 -2.365,0.027l-0.624,-1.757l0,0Z" style="fill:#fff;fill-rule:nonzero;"/><path d="M133.521,155.641c0.178,0.15 0.279,0.406 0.279,0.765c0,0.335 -0.11,0.624 -0.321,0.882c-0.216,0.254 -0.479,0.383 -0.79,0.383c-0.342,0 -0.595,-0.076 -0.777,-0.233c-0.19,-0.152 -0.279,-0.413 -0.279,-0.755c0,-0.341 0.108,-0.636 0.327,-0.897c0.218,-0.248 0.469,-0.377 0.778,-0.377c0.341,0 0.6,0.08 0.783,0.232Z" style="fill:#fff;fill-rule:nonzero;"/><path d="M66.153,160.33c-0.167,-2.776 -1.03,-4.528 -3.203,-4.528c-2.165,0 -4.672,2.348 -5.989,5.775c-0.529,1.375 -0.832,2.769 -0.856,4.02c-0.059,3.051 1.453,4.423 3.572,4.423c1.976,0 3.923,-1.586 4.892,-2.811c0.416,-0.516 0.797,-1.034 1.134,-1.556l0.301,0.204c-0.937,1.848 -2.885,3.868 -5.07,4.793c-3.044,1.325 -5.767,-0.141 -6.646,-2.514c-0.552,-1.515 -0.417,-3.841 0.5,-6.004c0.549,-1.314 1.309,-2.485 2.26,-3.515c0.95,-1.032 2.066,-1.854 3.332,-2.482c1.806,-0.88 3.896,-1.149 5.549,-0.747c0.511,0.124 0.977,0.289 1.409,0.505c-0.184,0.743 -0.811,3.699 -0.95,4.437l-0.235,0l0,0Z" style="fill:#fff;fill-rule:nonzero;"/><path d="M81.812,164.44c-0.906,1.52 -1.408,3.744 -1.408,4.665c0,1.611 1.632,1.47 2.292,0.934c1.267,-1.042 2.901,-5.296 2.449,-6.776c-0.155,-0.511 -0.691,-0.857 -1.218,-0.809c-0.808,0.072 -1.342,0.689 -2.115,1.986l0,0ZM86.759,165.437c-0.367,1.134 -1.02,2.191 -1.839,3.134c-0.963,1.109 -2.91,3.029 -5.31,2.235c-0.931,-0.402 -1.007,-1.218 -1.007,-1.966c0,-2.157 1.961,-4.687 3.712,-5.969c0.482,-0.357 1.614,-1.078 2.724,-1.158c0.395,-0.03 0.725,0.048 0.979,0.154c0.611,0.262 1.492,1.23 0.741,3.57Z" style="fill:#fff;fill-rule:nonzero;"/><path d="M98.719,164.44c-0.905,1.52 -1.408,3.744 -1.408,4.665c0,1.611 1.632,1.47 2.295,0.934c1.264,-1.042 2.9,-5.296 2.446,-6.776c-0.157,-0.511 -0.69,-0.857 -1.218,-0.809c-0.807,0.072 -1.341,0.689 -2.115,1.986l0,0ZM103.666,165.437c-0.366,1.134 -1.02,2.191 -1.839,3.134c-0.96,1.109 -2.909,3.029 -5.308,2.235c-0.935,-0.402 -1.008,-1.218 -1.008,-1.966c0,-2.157 1.961,-4.687 3.711,-5.969c0.483,-0.357 1.615,-1.078 2.724,-1.158c0.392,-0.03 0.727,0.048 0.979,0.154c0.611,0.262 1.491,1.23 0.741,3.57l0,0Z" style="fill:#fff;fill-rule:nonzero;"/><path d="M91.452,170.729c1.06,-0.359 2.346,-1.478 2.359,-1.637c0.004,-0.092 -0.034,-0.141 -0.127,-0.146c-1.288,0.985 -1.996,1.166 -2.801,0.971c-0.677,-0.164 -1.095,-0.632 -1.086,-1.665c0.024,-2.42 1.812,-6.541 3.624,-5.579c0.203,0.108 0.344,0.294 0.421,0.548c-0.279,0.159 -0.558,0.821 -0.11,1.201c0.512,0.397 1.667,0.352 1.667,-1.201c0,-1.486 -1.345,-1.788 -2.801,-1.2c-0.875,0.353 -1.802,1.025 -2.556,1.872c-0.592,0.673 -1.237,1.622 -1.624,2.409c-0.382,0.776 -0.576,1.503 -0.576,2.179c0,0.691 0.206,1.278 0.612,1.781c0.784,0.918 2.055,0.788 2.998,0.467l0,0Z" style="fill:#fff;fill-rule:nonzero;"/><path d="M143.168,162.044l1.713,0l-1.268,3.358c0,0 1.191,-2.443 2.559,-3.236c0.526,-0.362 1.508,-0.735 2.261,-0.007c0.774,0.952 0.448,2.035 -0.193,2.406c-0.568,0.331 -1.327,0.161 -1.391,-0.688c-0.022,-0.277 0.117,-0.593 0.265,-0.76c-0.1,-0.105 -0.227,-0.167 -0.385,-0.19c-1.391,-0.12 -2.685,2.14 -3.089,3.067c-0.804,1.839 -1.677,4.538 -1.735,4.734l-1.572,0l2.835,-8.684l0,0Z" style="fill:#fff;fill-rule:nonzero;"/><path d="M77.74,168.93c-0.257,0.247 -2.477,1.863 -2.677,0.53c-0.047,-0.31 0.039,-0.668 0.253,-1.357c0.173,-0.584 0.909,-2.982 0.943,-3.102c0.15,-0.485 0.409,-1.917 -0.228,-2.624c-2.035,-2.3 -5.624,1.985 -6.17,3.447c0.706,-1.893 3.622,-9.7 4.315,-11.527l-1.776,0l-5.796,16.431l1.573,0c0.106,-0.457 0.77,-2.306 1.164,-3.234c0.555,-1.332 1.536,-2.754 2.876,-3.967c0.773,-0.702 1.732,-0.775 2.269,-0.296c0.474,0.727 0.06,1.627 -1.087,5.527c-0.214,0.707 -0.145,1.606 0.256,1.923c0.935,0.741 2.296,0.002 3.016,-0.537c0.323,-0.25 1.207,-1.009 1.207,-1.075c0,-0.092 -0.072,-0.201 -0.138,-0.139l0,0Z" style="fill:#fff;fill-rule:nonzero;"/><path d="M135.563,165.048c0.281,-0.668 0.774,-1.44 1.339,-1.975c0.277,-0.243 0.617,-0.386 0.909,-0.385c0.828,0.007 0.912,0.757 0.329,1.488c-0.779,0.981 -2.134,1.644 -2.922,1.776c0.076,-0.229 0.189,-0.531 0.345,-0.904l0,0ZM135.06,166.365c0.39,-0.093 0.833,-0.15 1.415,-0.341c1.061,-0.329 3.727,-1.537 3.727,-3.185c0,-0.737 -0.369,-1.145 -1.104,-1.107c-1.521,0.084 -3.558,1.66 -4.803,3.38c-1.116,1.545 -1.585,3.037 -1.523,3.831c0.073,0.922 0.724,2.019 2.132,2.019c0.683,0 1.557,-0.22 2.587,-0.932c0.343,-0.232 1.181,-0.925 1.189,-0.988c0.002,-0.038 -0.054,-0.162 -0.132,-0.148c-0.029,0.004 -0.305,0.23 -0.408,0.299c-0.681,0.583 -2.403,1.202 -3.139,0.246c-0.645,-0.825 -0.347,-2.005 0.059,-3.074l0,0Z" style="fill:#fff;fill-rule:nonzero;"/><path d="M120.995,168.707c-0.241,0.694 -0.2,1.586 0.184,1.925c0.663,0.608 1.947,0.327 3.074,-0.519c0.46,-0.35 1.147,-0.923 1.147,-1.095c0,-0.094 -0.05,-0.138 -0.14,-0.138c-0.012,0 -1.049,1.175 -2.045,1.151c-0.511,-0.009 -0.647,-0.268 -0.647,-0.809c0,-0.193 0.087,-0.591 0.269,-1.172c0,0 1.724,-5.152 1.814,-5.514l2.975,0l0.146,-0.55l-2.94,0l1.28,-3.717l-1.79,0.438c-0.245,0.737 -3.327,10 -3.327,10l0,0Z" style="fill:#fff;fill-rule:nonzero;"/><path d="M116.563,166.151c-0.137,0.275 -1.064,2.016 -1.982,2.817c-0.745,0.646 -1.457,0.869 -1.606,0.869c-1.244,0 -1.356,-1.451 -0.196,-3.825c0.234,-0.48 0.51,-0.92 0.783,-1.363c0.802,-1.284 1.851,-2.355 2.893,-2.017c1.311,0.395 1.061,1.413 0.108,3.519l0,0ZM119.912,168.881c-0.015,0 -1.056,1.175 -2.052,1.151c-0.501,-0.01 -0.651,-0.269 -0.64,-0.811c0.013,-0.541 0.432,-1.68 1.006,-3.308c0.68,-1.927 1.519,-3.935 1.578,-4.044l-1.523,0.005c-0.084,0.228 -0.196,0.468 -0.329,0.73c-0.397,-1.282 -1.597,-0.85 -2.225,-0.561c-1.568,0.718 -3.286,2.283 -4.248,3.618c-1.086,1.529 -1.309,2.397 -1.309,3.654c0,0.468 0.238,2.168 2.458,1.388c2.219,-0.737 3.459,-3.042 3.673,-3.381l0.043,0.044c-0.058,0.135 -0.151,0.324 -0.277,0.56c-0.124,0.241 -0.216,0.451 -0.329,0.782c-0.263,0.758 -0.172,1.585 0.215,1.925c1.346,1.194 4.089,-1.373 4.089,-1.613c0,-0.095 -0.04,-0.139 -0.13,-0.139l0,0Z" style="fill:#fff;fill-rule:nonzero;"/><path d="M127.491,168.757c-0.207,0.707 -0.207,1.548 0.259,1.924c0.292,0.24 0.65,0.328 1.047,0.338c1.282,0.036 3.176,-1.741 3.176,-1.95c0,-0.093 -0.045,-0.139 -0.135,-0.139c-0.016,0 -1.054,1.176 -2.049,1.154c-0.51,-0.012 -0.643,-0.269 -0.643,-0.812c0,-0.192 0.085,-0.586 0.265,-1.171c0,0 2.243,-5.852 2.408,-6.316l-1.785,0c-0.38,1.142 -2.543,6.972 -2.543,6.972l0,0Z" style="fill:#fff;fill-rule:nonzero;"/><path d="M105.078,167.975l-0.213,0.781c-0.216,0.705 -0.167,1.588 0.213,1.925c0.276,0.251 0.596,0.339 1.002,0.339c1.483,0 3.177,-1.846 3.177,-1.95c0,-0.093 -0.049,-0.139 -0.141,-0.139c-0.015,0 -1.051,1.174 -2.049,1.151c-0.506,-0.01 -0.666,-0.274 -0.675,-0.748c0,-0.196 0.124,-0.65 0.298,-1.231l0.401,-1.357c0.207,-0.643 4.259,-12.203 4.348,-12.461l-1.731,0c-0.388,1.229 -4.63,13.69 -4.63,13.69l0,0Z" style="fill:#fff;fill-rule:nonzero;"/></svg>