<?xml version="1.0" standalone="no"?><!DOCTYPE svg PUBLIC "-//W3C//DTD SVG 1.1//EN" "http://www.w3.org/Graphics/SVG/1.1/DTD/svg11.dtd"><svg width="100%" height="100%" viewBox="0 0 200 200" version="1.1" xmlns="http://www.w3.org/2000/svg" xmlns:xlink="http://www.w3.org/1999/xlink" xml:space="preserve" style="fill-rule:evenodd;clip-rule:evenodd;stroke-linejoin:round;stroke-miterlimit:1.41421;"><path d="M109.978,78.066c0,0 3.72,6.37 8.917,7.999l-3.791,-7.999l-5.126,0Z" style="fill:#fff;fill-rule:nonzero;"/><path d="M27.072,108.513l-3.507,0c-2.732,-0.115 -4.156,-1.049 -3.552,-3.876c0.881,-4.152 4.115,-5.213 9.113,-5.806l-2.054,9.682ZM26.057,88.147c-2.252,0.205 -4.162,0.764 -5.533,1.283l-0.528,2.474l8.45,0c0,0 2.167,0.002 1.729,2.108l-0.525,2.362c-7.096,0.678 -13.269,2.416 -14.549,8.435c-0.912,4.292 1.5,6.82 7.387,6.947l8.725,0l2.79,-13.141c2.403,-10.803 -6.739,-10.545 -7.946,-10.468Z" style="fill:#fff;"/><path d="M65.906,108.513l-3.508,0c-2.731,-0.115 -4.156,-1.049 -3.552,-3.876c0.881,-4.152 4.116,-5.213 9.114,-5.806l-2.054,9.682ZM64.891,88.147c-2.253,0.205 -4.162,0.764 -5.534,1.283l-0.528,2.474l8.45,0c0,0 2.167,0.002 1.729,2.108l-0.525,2.362c-7.096,0.678 -13.269,2.416 -14.549,8.435c-0.912,4.292 1.501,6.82 7.387,6.947l8.725,0l2.791,-13.141c2.402,-10.803 -6.74,-10.545 -7.946,-10.468Z" style="fill:#fff;"/><path d="M87.922,88.184c0,0 -10.594,-1.465 -13.521,12.595l-2.342,10.977l4.838,0l3.661,-17.856c0.396,-1.719 1.696,-1.969 2.085,-1.998l4.488,-0.002l0.791,-3.716Z" style="fill:#fff;"/><path d="M139.553,88.184c0,0 -10.595,-1.465 -13.522,12.595l-2.341,10.977l4.838,0l3.661,-17.856c0.396,-1.719 1.695,-1.969 2.084,-1.998l4.488,-0.002l0.792,-3.716Z" style="fill:#fff;"/><path d="M111.897,94.974c1.316,-2.459 3.224,-3.854 5.298,-3.854c2.161,0 3.391,1.352 3.391,4.024c0,0.764 -0.103,1.744 -0.314,2.677l-9.813,1.348c0.338,-1.65 0.848,-3.049 1.438,-4.195ZM120.977,106.895c-1.301,0.612 -3.478,1.299 -5.814,1.299c-4.156,0.005 -5.172,-2.922 -4.832,-6.396l14.368,-1.992c0.335,-1.484 0.507,-2.841 0.507,-4.07c0,-4.957 -2.798,-7.605 -7.459,-7.605c-3.815,0 -7.038,1.801 -9.24,4.978c-1.905,2.758 -3.135,6.783 -3.135,10.174c0,5.55 3.392,8.471 8.733,8.471c2.317,0 4.406,-0.407 6.043,-0.97l0.829,-3.889Z" style="fill:#fff;"/><path d="M142.519,94.974c1.316,-2.459 3.224,-3.854 5.299,-3.854c2.16,0 3.39,1.352 3.39,4.024c0,0.764 -0.103,1.744 -0.314,2.677l-9.812,1.348c0.337,-1.65 0.847,-3.049 1.437,-4.195ZM151.599,106.895c-1.301,0.612 -3.478,1.299 -5.814,1.299c-4.156,0.005 -5.171,-2.922 -4.832,-6.396l14.368,-1.992c0.335,-1.484 0.507,-2.841 0.507,-4.07c0,-4.957 -2.798,-7.605 -7.459,-7.605c-3.815,0 -7.038,1.801 -9.239,4.978c-1.905,2.758 -3.135,6.783 -3.135,10.174c0,5.55 3.392,8.471 8.732,8.471c2.317,0 4.406,-0.407 6.043,-0.97l0.829,-3.889Z" style="fill:#fff;"/><path d="M97.029,108.513l-2.934,0.003c-2.851,-0.098 -4.067,-2.091 -4.067,-5.107c0,-2.711 0.893,-6.316 2.292,-8.603c1.356,-2.247 3.301,-3.685 6.019,-3.685l2.378,0l-3.688,17.392ZM103.488,78.067l-2.136,10.07l-3.717,0l0,0.001c-3.78,0.024 -7.029,1.73 -9.302,4.76c-2.075,2.756 -3.429,6.951 -3.429,10.468c0,5.342 3.39,8.39 8.814,8.39l7.78,0l7.114,-33.691l-5.124,0.002Z" style="fill:#fff;"/><path d="M5.549,108.153c-0.436,-0.026 -1.675,-0.226 -1.377,-1.955l5.105,-24.024l-5.424,0l-3.56,16.784c-0.049,0.198 -2.511,12.798 7.752,12.798l5.215,0l0.765,-3.603l-8.476,0Z" style="fill:#fff;"/><path d="M46.902,108.025c-0.805,0.421 -1.904,0.723 -3.09,0.723c-2.882,0 -4.152,-1.668 -4.152,-4.632c0,-2.669 0.931,-6.586 2.204,-8.916c1.438,-2.629 3.343,-4.067 5.886,-4.067c1.311,0 2.073,0.211 2.54,0.462l-3.388,16.43ZM48.428,88.139c-4.573,0 -8.049,1.808 -10.38,4.984c-2.032,2.753 -3.427,7.18 -3.427,10.656c0,4.912 2.878,7.983 7.412,7.983c1.822,0 3.26,-0.326 4.234,-0.793l-0.253,1.177c-0.636,2.835 -2.623,5.04 -6.309,5.04c-2.079,0 -4.039,-0.516 -5.203,-1.118l-0.799,3.778c1.627,0.62 3.845,1.015 6.162,1.019c2.572,-0.058 9.504,-1.093 11.486,-10.204l4.319,-20.968c-1.396,-0.851 -4.025,-1.554 -7.242,-1.554Z" style="fill:#fff;"/><path d="M103.638,127.367c-1.143,0 -2.123,-0.241 -2.762,-0.644l0.826,-1.385c0.554,0.353 1.292,0.515 2.017,0.515c1.176,0 1.977,-0.661 2.169,-1.563c0.504,-2.367 -4.019,-1.707 -3.259,-5.282c0.388,-1.821 2.071,-3.076 4.181,-3.076c0.999,0 1.85,0.24 2.429,0.627l-0.767,1.256c-0.425,-0.273 -1.09,-0.482 -1.718,-0.482c-1.079,0 -1.852,0.531 -2.058,1.498c-0.497,2.335 4.088,1.61 3.307,5.283c-0.393,1.851 -2.125,3.253 -4.365,3.253Z" style="fill:#fff;fill-rule:nonzero;"/><path d="M113.913,117.122c-0.387,0 -0.806,0.082 -1.117,0.177l-0.914,4.302c0.218,0.032 0.566,0.064 0.888,0.064c1.676,0 2.464,-0.982 2.745,-2.303c0.294,-1.386 -0.119,-2.24 -1.602,-2.24ZM112.517,122.857c-0.322,0 -0.67,-0.031 -0.889,-0.065l-0.934,4.398l-1.998,0l2.26,-10.631c0.884,-0.371 2.018,-0.628 3.194,-0.628c2.851,0 3.741,1.497 3.323,3.463c-0.41,1.933 -2.008,3.463 -4.956,3.463Z" style="fill:#fff;fill-rule:nonzero;"/><path d="M123.01,117.333c-1.611,0 -2.514,1.9 -3.018,4.268c-0.503,2.368 -0.41,4.285 1.2,4.285c1.611,0 2.518,-1.917 3.021,-4.285c0.504,-2.368 0.409,-4.268 -1.203,-4.268ZM120.878,127.367c-2.868,0 -3.649,-2.464 -2.957,-5.718c0.691,-3.253 2.52,-5.718 5.387,-5.718c2.867,0 3.648,2.465 2.957,5.718c-0.692,3.254 -2.521,5.718 -5.387,5.718Z" style="fill:#fff;fill-rule:nonzero;"/><path d="M131.816,117.122c-0.403,0 -0.823,0.082 -1.133,0.177l-0.877,4.124c0.232,0.049 0.531,0.081 0.837,0.081c1.466,0 2.557,-0.966 2.831,-2.256c0.305,-1.433 -0.257,-2.126 -1.658,-2.126ZM131.899,127.19l-1.064,-3.48c-0.211,-0.676 -0.582,-1.207 -1.21,-1.433l-1.044,4.913l-1.998,0l2.26,-10.631c0.9,-0.371 2.05,-0.628 3.178,-0.628c2.626,0 3.904,1.111 3.445,3.27c-0.325,1.53 -1.67,2.625 -3.42,2.979l-0.007,0.033c0.356,0.37 0.617,0.885 0.804,1.37l1.328,3.607l-2.272,0Z" style="fill:#fff;fill-rule:nonzero;"/><path d="M140.847,117.478l-2.064,9.712l-2.046,0l2.064,-9.712l-2.159,0l0.292,-1.37l6.362,0l-0.291,1.37l-2.158,0Z" style="fill:#fff;fill-rule:nonzero;"/><path d="M144.463,127.367c-1.143,0 -2.123,-0.241 -2.762,-0.644l0.825,-1.385c0.553,0.353 1.293,0.515 2.018,0.515c1.176,0 1.977,-0.661 2.168,-1.563c0.503,-2.367 -4.019,-1.707 -3.258,-5.282c0.386,-1.821 2.071,-3.076 4.181,-3.076c0.999,0 1.849,0.24 2.429,0.627l-0.767,1.256c-0.425,-0.273 -1.089,-0.482 -1.717,-0.482c-1.08,0 -1.854,0.531 -2.059,1.498c-0.497,2.335 4.087,1.61 3.307,5.283c-0.394,1.851 -2.126,3.253 -4.365,3.253Z" style="fill:#fff;fill-rule:nonzero;"/><path d="M189.923,72.639c-0.081,-1.48 -0.708,-2.527 -1.205,-3.134l-16.677,15.188c-0.079,0.072 -7.849,7.399 -7.497,14.869c0.161,3.37 1.978,6.329 5.401,8.794l8.176,5.867l2.996,-2.719l-12.352,-8.877c-0.519,-0.418 -1.396,-1.314 -1.459,-2.624c-0.051,-1.051 0.433,-2.081 1.454,-3.08l15.852,-14.396c4.66,-4.234 5.477,-6.832 5.311,-9.888Z" style="fill:#fff;fill-rule:nonzero;"/><path d="M199.988,100.368c-0.159,-3.37 -1.976,-6.329 -5.4,-8.794l-8.176,-5.867l-2.997,2.72l12.353,8.876c0.518,0.417 1.396,1.314 1.458,2.624c0.051,1.05 -0.432,2.081 -1.453,3.08l-15.851,14.396c-4.662,4.235 -5.478,6.832 -5.312,9.888c0.081,1.48 0.709,2.528 1.204,3.133l16.679,-15.188c0.078,-0.071 7.847,-7.398 7.495,-14.868Z" style="fill:#fff;fill-rule:nonzero;"/></svg>