<?xml version="1.0" standalone="no"?><!DOCTYPE svg PUBLIC "-//W3C//DTD SVG 1.1//EN" "http://www.w3.org/Graphics/SVG/1.1/DTD/svg11.dtd"><svg width="100%" height="100%" viewBox="0 0 200 200" version="1.1" xmlns="http://www.w3.org/2000/svg" xmlns:xlink="http://www.w3.org/1999/xlink" xml:space="preserve" style="fill-rule:evenodd;clip-rule:evenodd;stroke-linejoin:round;stroke-miterlimit:1.41421;"><path d="M109.145,155.738c-2.801,1.371 -5.709,2.523 -8.643,3.444c-19.472,-6.104 -34.145,-20.987 -40.264,-39.562c-0.008,-0.024 -0.015,-0.05 -0.023,-0.076c-0.245,-0.747 -0.479,-1.502 -0.695,-2.261c-0.028,-0.094 -0.05,-0.19 -0.077,-0.285c-0.117,-0.417 -0.222,-0.836 -0.331,-1.254l-1.708,0c0.083,0.325 0.164,0.653 0.251,0.978c0.057,0.214 0.111,0.431 0.171,0.644c0.174,0.62 0.36,1.234 0.552,1.849c0.049,0.156 0.095,0.314 0.146,0.471c0.212,0.66 0.437,1.315 0.671,1.968c0.036,0.102 0.07,0.203 0.108,0.306c0.255,0.703 0.525,1.399 0.805,2.091c0.018,0.044 0.033,0.087 0.051,0.13c6.682,16.432 20.067,29.584 37.474,35.783c-2.181,0.568 -4.4,1.058 -6.664,1.388c-20.751,-3.022 -37.987,-16.42 -46.734,-34.445c-0.006,-0.013 -0.011,-0.028 -0.018,-0.041c-0.39,-0.807 -0.765,-1.622 -1.121,-2.444c-0.022,-0.053 -0.041,-0.106 -0.064,-0.158c-0.337,-0.785 -0.661,-1.578 -0.965,-2.379c-0.066,-0.168 -0.121,-0.343 -0.183,-0.513c-0.255,-0.688 -0.507,-1.378 -0.738,-2.079c-0.068,-0.202 -0.124,-0.41 -0.189,-0.614c-0.215,-0.67 -0.428,-1.344 -0.619,-2.024c-0.067,-0.237 -0.121,-0.48 -0.185,-0.719c-0.018,-0.064 -0.033,-0.129 -0.05,-0.192l-1.71,0c0.075,0.295 0.147,0.589 0.227,0.882c0.109,0.4 0.225,0.797 0.341,1.192c0.144,0.486 0.29,0.969 0.445,1.45c0.127,0.394 0.258,0.789 0.392,1.181c0.163,0.476 0.332,0.948 0.505,1.418c0.143,0.388 0.289,0.774 0.439,1.159c0.184,0.468 0.375,0.934 0.569,1.397c0.159,0.377 0.318,0.755 0.483,1.129c0.204,0.461 0.416,0.919 0.631,1.374c0.173,0.368 0.346,0.736 0.525,1.1c0.226,0.456 0.461,0.906 0.696,1.356c0.186,0.353 0.369,0.709 0.56,1.058c0.251,0.457 0.512,0.907 0.773,1.357c0.193,0.333 0.383,0.668 0.582,0.998c0.281,0.466 0.575,0.922 0.867,1.379c0.195,0.305 0.384,0.613 0.584,0.914c0.333,0.501 0.679,0.992 1.025,1.484c0.174,0.247 0.341,0.498 0.518,0.744c0.531,0.729 1.074,1.449 1.634,2.157c0.009,0.009 0.018,0.021 0.027,0.031c0.552,0.696 1.118,1.381 1.699,2.055c0.198,0.229 0.404,0.45 0.606,0.676c0.398,0.447 0.794,0.897 1.205,1.334c0.247,0.264 0.505,0.519 0.757,0.779c0.376,0.388 0.751,0.777 1.136,1.154c0.276,0.27 0.559,0.532 0.838,0.795c0.377,0.357 0.753,0.713 1.139,1.061c0.295,0.265 0.596,0.523 0.896,0.783c0.382,0.333 0.766,0.664 1.157,0.987c0.312,0.259 0.629,0.51 0.945,0.762c0.393,0.312 0.786,0.622 1.185,0.925c0.325,0.247 0.654,0.487 0.983,0.728c0.405,0.294 0.812,0.585 1.224,0.871c0.335,0.232 0.673,0.461 1.014,0.686c0.418,0.278 0.838,0.551 1.261,0.819c0.346,0.218 0.693,0.434 1.044,0.646c0.431,0.261 0.867,0.514 1.304,0.765c0.354,0.203 0.708,0.404 1.065,0.6c0.448,0.245 0.899,0.479 1.352,0.714c0.359,0.184 0.717,0.371 1.079,0.549c0.466,0.229 0.938,0.449 1.41,0.666c0.36,0.167 0.718,0.337 1.082,0.495c0.49,0.216 0.985,0.418 1.481,0.62c0.355,0.145 0.709,0.295 1.068,0.435c0.527,0.203 1.059,0.392 1.591,0.582c0.339,0.12 0.672,0.247 1.014,0.363c0.603,0.202 1.214,0.389 1.825,0.574c0.278,0.084 0.551,0.175 0.829,0.258c0.896,0.257 1.799,0.498 2.711,0.717c-1.048,0.055 -2.098,0.116 -3.132,0.116c-28.708,0 -52.91,-19.679 -59.883,-46.275l-1.715,0c7.015,27.513 31.97,47.917 61.598,47.917c2.949,0 5.966,-0.218 8.974,-0.644l0.009,0.001l0.118,-0.017c3.214,-0.463 6.376,-1.167 9.408,-2.089l0.009,0.002l0.246,-0.077l2.539,-0.783l-0.096,-0.03c2.268,-0.806 4.51,-1.746 6.688,-2.814l-0.734,-1.472l0,0ZM103.178,39.98l0.109,-0.033l-2.539,-0.784l-0.246,-0.076l-0.01,0.003c-3.034,-0.924 -6.195,-1.63 -9.407,-2.089l-0.118,-0.018l-0.009,0.001c-3.007,-0.426 -6.025,-0.645 -8.974,-0.645c-29.92,0 -55.062,20.815 -61.788,48.739l1.7,0c6.688,-27.011 31.086,-47.095 60.088,-47.095c1.034,0 2.084,0.06 3.132,0.114c-0.912,0.219 -1.815,0.46 -2.711,0.719c-0.278,0.079 -0.55,0.172 -0.828,0.256c-0.611,0.186 -1.223,0.372 -1.827,0.575c-0.338,0.115 -0.671,0.241 -1.007,0.361c-0.535,0.191 -1.069,0.38 -1.598,0.584c-0.357,0.14 -0.709,0.288 -1.063,0.433c-0.498,0.203 -0.994,0.405 -1.485,0.621c-0.363,0.16 -0.721,0.328 -1.08,0.494c-0.473,0.218 -0.946,0.438 -1.413,0.668c-0.361,0.178 -0.717,0.363 -1.075,0.547c-0.455,0.235 -0.908,0.471 -1.356,0.717c-0.356,0.194 -0.709,0.395 -1.061,0.597c-0.439,0.252 -0.876,0.507 -1.309,0.768c-0.35,0.211 -0.695,0.427 -1.039,0.644c-0.425,0.268 -0.847,0.541 -1.265,0.82c-0.34,0.225 -0.677,0.453 -1.012,0.685c-0.413,0.286 -0.821,0.578 -1.227,0.875c-0.328,0.238 -0.654,0.478 -0.978,0.723c-0.403,0.305 -0.799,0.618 -1.193,0.93c-0.314,0.25 -0.628,0.499 -0.937,0.756c-0.393,0.326 -0.78,0.658 -1.165,0.993c-0.297,0.259 -0.597,0.514 -0.89,0.779c-0.388,0.349 -0.767,0.708 -1.146,1.067c-0.277,0.262 -0.557,0.52 -0.829,0.787c-0.388,0.381 -0.766,0.772 -1.146,1.164c-0.25,0.257 -0.504,0.511 -0.75,0.77c-0.412,0.44 -0.811,0.891 -1.211,1.342c-0.199,0.225 -0.403,0.444 -0.599,0.67c-1.18,1.367 -2.301,2.783 -3.362,4.246c-0.174,0.237 -0.335,0.484 -0.505,0.725c-0.352,0.497 -0.702,0.995 -1.039,1.502c-0.196,0.297 -0.382,0.6 -0.574,0.899c-0.295,0.462 -0.592,0.923 -0.876,1.392c-0.198,0.328 -0.386,0.661 -0.578,0.993c-0.262,0.452 -0.525,0.904 -0.776,1.363c-0.191,0.348 -0.373,0.701 -0.557,1.052c-0.237,0.453 -0.473,0.904 -0.699,1.361c-0.18,0.364 -0.352,0.732 -0.525,1.1c-0.215,0.456 -0.427,0.911 -0.63,1.372c-0.166,0.376 -0.325,0.753 -0.484,1.133c-0.195,0.463 -0.385,0.927 -0.568,1.393c-0.15,0.386 -0.296,0.772 -0.44,1.16c-0.173,0.47 -0.342,0.944 -0.505,1.418c-0.135,0.393 -0.265,0.787 -0.392,1.182c-0.155,0.48 -0.301,0.963 -0.445,1.449c-0.116,0.396 -0.232,0.793 -0.341,1.194c-0.135,0.491 -0.26,0.987 -0.383,1.485c-0.018,0.072 -0.035,0.145 -0.053,0.217l1.708,0c0.105,-0.408 0.204,-0.816 0.314,-1.222c0.047,-0.169 0.084,-0.34 0.132,-0.508c0.211,-0.752 0.443,-1.495 0.683,-2.234c0.043,-0.135 0.079,-0.272 0.124,-0.405c0.258,-0.785 0.538,-1.561 0.828,-2.333c0.032,-0.085 0.059,-0.172 0.093,-0.257c7.812,-20.528 26.266,-36.174 48.903,-39.471c2.263,0.329 4.482,0.821 6.664,1.389c-17.407,6.199 -30.792,19.351 -37.474,35.782c-0.018,0.043 -0.033,0.086 -0.051,0.128c-0.28,0.694 -0.55,1.391 -0.806,2.097c-0.035,0.098 -0.07,0.197 -0.104,0.296c-0.234,0.654 -0.461,1.312 -0.674,1.975c-0.051,0.156 -0.097,0.313 -0.145,0.469c-0.191,0.614 -0.379,1.23 -0.554,1.851c-0.059,0.211 -0.112,0.425 -0.168,0.638c-0.155,0.573 -0.307,1.149 -0.446,1.73c-0.005,0.024 -0.01,0.05 -0.016,0.075l1.699,0c0.167,-0.683 0.349,-1.361 0.538,-2.034c0.03,-0.11 0.057,-0.219 0.088,-0.327c0.221,-0.774 0.457,-1.54 0.707,-2.302c0.004,-0.011 0.007,-0.021 0.011,-0.033c6.118,-18.574 20.79,-33.456 40.259,-39.562c3.753,1.176 7.41,2.71 10.87,4.583l0.795,-1.442c-2.88,-1.559 -5.894,-2.885 -8.984,-3.981" style="fill:#fff;fill-rule:nonzero;"/><path d="M47.076,93.083c-1.578,0 -2.865,0.499 -4.124,1.572l0,-1.116l-3.659,0l0,17.968l3.726,0l0,-11.844c0,-1.219 0.155,-1.967 1.003,-2.673c0.605,-0.527 1.391,-0.813 2.225,-0.813c1.583,0 2.2,0.678 2.2,2.422l0,12.908l3.725,0l0,-13.577c0,-3.081 -1.857,-4.847 -5.096,-4.847" style="fill:#fff;fill-rule:nonzero;"/><path d="M16.024,93.083c-1.949,0 -3.339,0.723 -4.656,2.332c-0.969,-1.45 -2.475,-2.332 -4.213,-2.332c-1.352,0 -2.663,0.596 -3.704,1.636l0,-1.18l-3.451,0l0,17.968l3.545,0l0,-11.844c0,-1.178 0.061,-1.945 0.893,-2.673c0.576,-0.527 1.324,-0.813 2.117,-0.813c1.507,0 2.094,0.678 2.094,2.422l0,12.908l3.545,0l0,-11.844c0,-1.219 0.148,-1.967 0.955,-2.673c0.54,-0.494 1.268,-0.787 2.01,-0.813c1.614,0 2.138,0.588 2.138,2.422l0,12.908l3.546,0l0,-12.914c0.003,-1.152 0.008,-3.08 -1.252,-4.192c-0.999,-0.863 -2.231,-1.318 -3.567,-1.318" style="fill:#fff;fill-rule:nonzero;"/><path d="M63.814,104.349c0,0.184 -0.034,4.52 -2.84,4.52c-2.853,0 -3.066,-2.548 -3.066,-6.437c0,-5.545 1.586,-6.255 2.968,-6.255c2.582,0 2.938,2.918 2.938,6.072l0,2.1ZM63.814,87.637l0,6.866c-0.939,-0.879 -2.028,-1.42 -3.644,-1.42c-1.459,0 -2.697,0.51 -3.678,1.515c-1.572,1.609 -2.364,4.421 -2.228,7.915c0,0.003 0.009,0.489 0.009,0.489c0.022,2.218 0.091,8.962 5.767,8.962c1.762,0 2.908,-0.433 3.87,-1.553l0,1.096l3.515,0l0,-23.87l-3.611,0l0,0Z" style="fill:#fff;fill-rule:nonzero;"/><path d="M33.2,104.926c0,0.791 -0.115,1.899 -0.662,2.687c-0.588,0.794 -1.562,1.256 -2.661,1.256c-1.526,0 -1.783,-0.513 -1.783,-1.661l0,-13.669l-3.685,0l0,13.578c0,3.125 1.756,4.847 4.943,4.847c1.501,0 2.851,-0.601 3.848,-1.633l0,1.176l3.685,0l0,-17.968l-3.685,0l0,11.387Z" style="fill:#fff;fill-rule:nonzero;"/><path d="M69.708,91.098l3.726,0l0,-4.29l-3.726,0l0,4.29ZM69.708,111.793l3.726,0l0,-18.808l-3.726,0l0,18.808Z" style="fill:#fff;fill-rule:nonzero;"/><path d="M109.84,157.132c-20.909,-10.109 -35.319,-31.419 -35.319,-56.072c0,-34.421 28.089,-62.325 62.74,-62.325c34.65,0 62.739,27.904 62.739,62.325c0,34.42 -28.089,62.324 -62.739,62.324c-9.793,0 -19.062,-2.229 -27.321,-6.204c17.119,-8.408 29.182,-23.567 33.673,-41.436l-1.717,0c-4.459,17.255 -16.174,31.872 -32.751,39.994l0.695,1.394ZM83.748,93.083c-1.355,0.081 -2.478,0.576 -3.328,1.381l0,-0.925l-3.626,0l0,23.687l3.725,0l0,-6.575c0.795,0.75 1.811,1.313 3.361,1.313c6.457,0 6.457,-7.953 6.457,-10.566c0,-4.021 -1.732,-8.315 -6.589,-8.315ZM170.486,108.69l-0.941,-0.015c-0.038,-0.03 -0.059,-0.223 -0.052,-0.632l0.001,-9.839c0.064,-1.585 -0.356,-2.801 -1.245,-3.684c-0.961,-0.954 -2.412,-1.437 -4.316,-1.437c-2.161,0 -3.705,0.487 -4.716,1.488c-0.935,0.929 -1.377,2.3 -1.309,4.077l0.019,0.51l3.449,0l-0.008,-0.536c-0.015,-0.951 0.051,-1.658 0.425,-2.022c0.294,-0.285 0.853,-0.423 1.709,-0.423c1.813,0 2.366,0.494 2.366,2.118l0.001,0.254c0.005,0.776 -0.017,1.087 -0.273,1.268c-0.217,0.13 -1.715,0.68 -2.807,1.081l-2.621,0.987c-2.699,1.094 -2.99,3.575 -2.99,4.592c0,2.355 0.549,5.487 5.296,5.487c1.478,0 2.953,-0.783 3.899,-1.957c0.57,1.563 1.788,1.696 3.586,1.623l0.046,-0.003l0.099,-0.023l0.954,-0.191l0.028,-0.433l0,-2.283l-0.6,-0.007l0,0ZM121.099,108.69l-0.941,-0.015c-0.037,-0.03 -0.057,-0.223 -0.052,-0.632l0.001,-9.839c0.065,-1.585 -0.356,-2.801 -1.244,-3.684c-0.961,-0.954 -2.413,-1.437 -4.316,-1.437c-2.162,0 -3.704,0.487 -4.717,1.488c-0.935,0.929 -1.376,2.3 -1.309,4.077l0.019,0.51l3.451,0l-0.009,-0.536c-0.016,-0.951 0.051,-1.658 0.425,-2.022c0.293,-0.285 0.853,-0.423 1.708,-0.423c1.814,0 2.366,0.494 2.366,2.118l0.001,0.254c0.006,0.776 -0.016,1.087 -0.273,1.268c-0.216,0.13 -1.714,0.68 -2.807,1.081l-2.621,0.987c-2.698,1.094 -2.989,3.575 -2.989,4.592c0,2.355 0.548,5.487 5.295,5.487c1.478,0 2.953,-0.783 3.9,-1.957c0.57,1.563 1.787,1.696 3.586,1.623l0.045,-0.003l0.1,-0.023l0.954,-0.191l0.027,-0.433l0,-2.283l-0.6,-0.007l0,0ZM100.304,93.083c-1.595,0 -2.912,0.497 -4.146,1.538l0,-6.984l-3.804,0l0,23.87l3.804,0l0,-11.844c0,-1.219 0.159,-1.967 1.026,-2.673c0.619,-0.527 1.422,-0.813 2.273,-0.813c1.616,0 2.247,0.678 2.247,2.422l0,12.908l3.805,0l0,-13.577c0,-3.081 -1.897,-4.847 -5.205,-4.847ZM126.768,95.101l0,-1.562l-3.626,0l0,17.968l3.726,0l0,-10.779c0,-1.423 0.47,-2.587 1.326,-3.278c0.826,-0.667 2.003,-0.9 3.401,-0.672l0.646,0.104l0,-3.485l-0.509,-0.04c-2.206,-0.17 -3.793,0.382 -4.964,1.744ZM149.864,93.083c-1.983,0 -3.397,0.723 -4.736,2.332c-0.987,-1.45 -2.52,-2.332 -4.29,-2.332c-1.375,0 -2.709,0.596 -3.768,1.636l0,-1.18l-3.512,0l0,17.968l3.609,0l0,-11.844c0,-1.178 0.061,-1.946 0.908,-2.673c0.586,-0.527 1.346,-0.813 2.154,-0.813c1.533,0 2.13,0.678 2.13,2.422l0,12.908l3.609,0l0,-11.844c0,-1.219 0.15,-1.967 0.972,-2.673c0.548,-0.494 1.29,-0.787 2.045,-0.813c1.642,0 2.175,0.588 2.175,2.422l0,12.908l3.608,0l0,-12.915c0.003,-1.152 0.01,-3.079 -1.273,-4.191c-1.016,-0.863 -2.27,-1.318 -3.631,-1.318ZM83.482,108.869c-0.715,0 -1.274,-0.203 -1.711,-0.621c-1.257,-1.202 -1.254,-3.938 -1.252,-5.571l0,-0.185c0,-3.123 0.349,-6.315 2.93,-6.315c2.032,0 3.062,2.033 3.062,6.042c0,5.86 -1.531,6.65 -3.029,6.65ZM165.669,105.96c0,2.386 -1.898,2.909 -2.631,2.909c-1.54,0 -2.035,-0.553 -2.035,-2.27c0,-0.707 0.168,-1.962 1.295,-2.436c0.008,-0.003 1.355,-0.567 1.355,-0.567c0,0 1.185,-0.534 2.016,-0.91l0,3.274ZM116.282,105.96c0,2.386 -1.898,2.909 -2.63,2.909c-1.541,0 -2.035,-0.553 -2.035,-2.27c0,-0.707 0.168,-1.962 1.296,-2.436c0.006,-0.003 1.354,-0.567 1.354,-0.567c0,0 1.185,-0.534 2.015,-0.91l0,3.274ZM142.076,85.078l1.71,0c-4.171,-17.351 -15.509,-32.395 -31.624,-41.117l-0.795,1.442c15.58,8.43 26.572,22.931 30.709,39.675Z" style="fill:#fff;"/></svg>