<?xml version="1.0" standalone="no"?><!DOCTYPE svg PUBLIC "-//W3C//DTD SVG 1.1//EN" "http://www.w3.org/Graphics/SVG/1.1/DTD/svg11.dtd"><svg width="100%" height="100%" viewBox="0 0 200 200" version="1.1" xmlns="http://www.w3.org/2000/svg" xmlns:xlink="http://www.w3.org/1999/xlink" xml:space="preserve" style="fill-rule:evenodd;clip-rule:evenodd;stroke-linejoin:round;stroke-miterlimit:1.41421;"><path d="M127.81,59.442c-1.818,0 -3.293,1.474 -3.293,3.292c0,1.146 0.562,2.152 1.449,2.742l-11.166,23.963l2.333,-31.911c1.688,-0.14 3.013,-1.559 3.013,-3.284c0,-1.819 -1.473,-3.293 -3.291,-3.293c-1.819,0 -3.293,1.474 -3.293,3.293c0,1.431 0.913,2.625 2.189,3.08l-7.661,31.156l-3.79,-34.371c1.404,-0.376 2.426,-1.629 2.426,-3.152c0,-1.819 -1.474,-3.293 -3.293,-3.293c-1.818,0 -3.292,1.474 -3.292,3.293c0,1.644 1.213,2.969 2.788,3.216l-3.056,33.486l-8.879,-30.238c1.049,-0.551 1.763,-1.637 1.763,-2.904c0,-1.818 -1.474,-3.292 -3.293,-3.292c-1.817,0 -3.291,1.474 -3.291,3.292c0,1.819 1.474,3.293 3.291,3.293c0.047,0 0.1,-0.005 0.146,-0.007l3.826,31.636l-12.896,-23.017c0.768,-0.603 1.262,-1.539 1.262,-2.592c0,-1.819 -1.475,-3.293 -3.293,-3.293c-1.818,0 -3.293,1.474 -3.293,3.293c0,1.818 1.475,3.292 3.293,3.292c0.24,0 0.475,-0.025 0.7,-0.074l10.804,32.389c2.465,7.532 24.377,7.669 27.663,0l9.757,-33.45c0.134,0.016 0.237,0.04 0.377,0.04c1.818,0 3.293,-1.475 3.293,-3.293c0,-1.818 -1.475,-3.292 -3.293,-3.292l0,0ZM103.571,102.899c-5.583,0 -10.11,-1.682 -10.11,-3.757c0,-2.076 4.527,-3.051 10.11,-3.051c5.584,0 9.518,0.975 9.518,3.051c0,2.075 -3.934,3.757 -9.518,3.757Z" style="fill:#fff;"/><path d="M119.444,122.189l3.258,0c1.978,0 2.671,0.445 2.671,2.176l0,21.307c0,1.681 -0.693,2.324 -2.671,2.324l-3.258,0l0,3.444l33.319,0l0,-14.147l-3.15,0c0,6.974 -2.763,10.642 -7.413,10.642l-9.35,0l0,-11.335l1.836,0c3.018,0 4.74,1.337 4.74,3.809l0,1.979l3.613,0l0,-15.731l-3.613,0l0,1.732c0,2.428 -1.822,3.907 -4.74,3.907l-1.836,0l0,-10.107l8.707,0c6.382,0 7.709,3.676 8.056,9.168l3.15,0l0,-12.912l-33.319,0l0,3.744Z" style="fill:#fff;"/><path d="M104.785,147.936l-7.894,0l0,-23.422c0,-1.731 0.692,-2.324 2.67,-2.324l2.969,0l0,-3.662l-18.424,0l0,3.662l2.573,0c1.979,0 2.672,0.593 2.672,2.324l0,21.158c0,1.682 -0.693,2.324 -2.672,2.324l-2.573,0l0,3.529l31.224,0l0,-14.494l-3.56,0c-0.099,5.688 -0.059,10.905 -6.985,10.905l0,0Z" style="fill:#fff;"/><path d="M60.741,117.522c-11.379,0 -18.462,8.775 -18.502,17.029c-0.052,10.686 7.024,17.413 18.155,17.413c11.823,0 18.7,-6.628 18.7,-17.957c0,-8.395 -7.421,-16.485 -18.353,-16.485l0,0ZM60.493,148.072c-5.937,0 -9.35,-5.308 -9.35,-13.767c0,-8.261 3.561,-12.527 9.647,-12.527c5.837,0 9.25,4.365 9.25,12.873c0,8.311 -3.462,13.421 -9.547,13.421l0,0Z" style="fill:#fff;"/><path d="M196.534,122.189l3.466,0l0,-3.707l-16.749,0l0,3.707l2.191,0c0.821,0.127 1.369,0.969 0.547,1.791l-4.655,5.341l-3.698,-4.52c-0.822,-0.958 -0.685,-2.602 0.821,-2.602l1.691,-0.01l0,-3.707l-19.083,0l0,3.707c4.794,0.138 5.989,0.697 7.72,2.922l7.755,9.414l-10.545,11.093c-1.88,2.128 -2.06,2.317 -4.93,2.317l0,3.543l16.708,0l0,-3.543l-3.998,0c-1.188,0 -1.435,-0.861 -1.435,-1.502c0,-0.644 0.84,-1.386 1.188,-1.831l5.888,-6.663l5.889,7.009c0.296,0.397 0.79,0.841 0.79,1.336c0,0.644 -0.543,1.651 -1.681,1.651l-3.312,0l0,3.543l18.898,0l0,-3.543c-2.986,0 -3.253,-0.14 -5.931,-3.412l-9.86,-11.641l6.711,-7.259c2.472,-2.621 3.439,-3.434 5.614,-3.434l0,0Z" style="fill:#fff;"/><path d="M34.381,141.999l0,1.693c0,2.029 -1.185,3.067 -2.174,3.067c-1.583,0 -1.68,-1.929 -1.779,-3.067l0,-1.369c0,-4.519 -2.055,-6.3 -4.657,-7.67c4.848,-1.137 8.066,-4.033 8.066,-8.04c0,-5.194 -3.562,-8.162 -9.894,-8.162l-23.943,0l0,3.74l3.242,0c1.979,0 2.672,0.457 2.672,2.188l0,21.234c0,1.682 -0.693,2.324 -2.672,2.324l-3.242,0l0,3.509l18.65,0l0,-3.509l-2.573,0c-1.979,0 -2.671,-0.642 -2.671,-2.324l0,-9.452l3.326,0c3.562,0 6.172,1.991 6.37,5.75l0.297,4.341c0.198,3.958 2.869,6.084 7.568,6.084c4.997,0 6.171,-2.423 6.171,-7.568l0,-2.769l-2.757,0l0,0ZM19.199,131.864l-5.789,0l0,-9.703l5.145,0c4.947,0 6.727,1.64 6.727,4.855c0,3.314 -1.928,4.848 -6.083,4.848l0,0Z" style="fill:#fff;"/></svg>