<?xml version="1.0" standalone="no"?><!DOCTYPE svg PUBLIC "-//W3C//DTD SVG 1.1//EN" "http://www.w3.org/Graphics/SVG/1.1/DTD/svg11.dtd"><svg width="100%" height="100%" viewBox="0 0 200 200" version="1.1" xmlns="http://www.w3.org/2000/svg" xmlns:xlink="http://www.w3.org/1999/xlink" xml:space="preserve" style="fill-rule:evenodd;clip-rule:evenodd;stroke-linejoin:round;stroke-miterlimit:1.41421;"><g><text x="0.985px" y="123.094px" style="font-family:'AvenirNext-HeavyItalic';font-size:29.557px;fill:#fff;">T</text><text x="19.547px" y="123.094px" style="font-family:'AvenirNext-HeavyItalic';font-size:29.557px;fill:#fff;">R</text><text x="39.911px" y="123.094px" style="font-family:'AvenirNext-HeavyItalic';font-size:29.557px;fill:#fff;">I</text><text x="49.428px" y="123.094px" style="font-family:'AvenirNext-HeavyItalic';font-size:29.557px;fill:#fff;">B</text><text x="69.379px" y="123.094px" style="font-family:'AvenirNext-HeavyItalic';font-size:29.557px;fill:#fff;">U</text><text x="91.133px" y="123.094px" style="font-family:'AvenirNext-HeavyItalic';font-size:29.557px;fill:#fff;">N</text><text x="112.887px" y="123.094px" style="font-family:'AvenirNext-HeavyItalic';font-size:29.557px;fill:#fff;">E</text></g><g><text x="0px" y="100.433px" style="font-family:'AvenirNext-HeavyItalic';font-size:29.557px;fill:#fff;">T</text><text x="17.675px" y="100.433px" style="font-family:'AvenirNext-HeavyItalic';font-size:29.557px;fill:#fff;">H</text><text x="39.931px" y="100.433px" style="font-family:'AvenirNext-HeavyItalic';font-size:29.557px;fill:#fff;">E</text></g><path d="M64.64,100.433l-6.798,0l3.695,-20.926l7.803,0c2.699,0 4.763,0.562 6.192,1.685c1.429,1.123 2.143,2.67 2.143,4.641c0,1.339 -0.222,2.502 -0.665,3.487c-0.443,0.985 -1.089,1.793 -1.936,2.424c-0.847,0.63 -1.872,1.098 -3.074,1.404c-1.202,0.305 -2.571,0.458 -4.108,0.458l-2.01,0l-1.242,6.827ZM67.862,88.463c0.946,0 1.685,-0.158 2.217,-0.473c0.532,-0.315 0.798,-0.808 0.798,-1.478c0,-0.63 -0.217,-1.064 -0.65,-1.3c-0.434,-0.237 -1.025,-0.355 -1.774,-0.355l-1.034,0l-0.651,3.606l1.094,0Z" style="fill:#fff;fill-rule:nonzero;"/><path d="M77.498,100.433l3.694,-20.926l6.887,0l-2.66,15.074l8.542,0l-2.513,5.852l-13.95,0Z" style="fill:#fff;fill-rule:nonzero;"/><path d="M108.483,100.433l0.019,-3.192l-5.812,0l-1.744,3.192l-7.133,0l9.901,-20.926l9.675,0l2.68,20.926l-7.586,0l0,0ZM107.32,85.645l-2.985,6.365l3.113,0l-0.128,-6.365Z" style="fill:#fff;fill-rule:nonzero;"/><path d="M127.695,91.34l-1.015,9.093l-7.32,0l1.014,-9.093l-4.049,-11.833l7.133,0l1.754,5.488l3.478,-5.488l7.349,0l-8.344,11.833l0,0Z" style="fill:#fff;fill-rule:nonzero;"/><path d="M135.251,100.433l3.202,-20.926l14.67,0l-1.005,5.705l-7.734,0l-0.354,2.01l6.916,0l-0.453,5.32l-7.409,0l-0.384,2.187l8.098,0l-0.512,5.704l-15.035,0l0,0Z" style="fill:#fff;fill-rule:nonzero;"/><path d="M164.483,100.433l-2.867,-7.655l-0.828,0l-1.3,7.655l-6.591,0l3.202,-20.926l9.093,0c1.143,0 2.177,0.128 3.104,0.385c0.926,0.256 1.714,0.63 2.364,1.123c0.65,0.492 1.148,1.098 1.493,1.818c0.345,0.719 0.517,1.541 0.517,2.467c0,1.734 -0.409,3.163 -1.227,4.286c-0.817,1.123 -1.936,1.892 -3.354,2.306l4.078,8.541l-7.684,0l0,0ZM162.975,88.433c0.907,0 1.616,-0.152 2.128,-0.458c0.513,-0.305 0.769,-0.793 0.769,-1.463c0,-0.611 -0.212,-1.029 -0.636,-1.256c-0.423,-0.226 -1,-0.34 -1.729,-0.34l-1.271,0l-0.128,3.517l0.867,0Z" style="fill:#fff;fill-rule:nonzero;"/><path d="M187.98,85.744c-0.368,-0.394 -0.845,-0.714 -1.43,-0.961c-0.584,-0.246 -1.267,-0.369 -2.046,-0.369c-0.607,0 -1.154,0.118 -1.641,0.354c-0.488,0.237 -0.731,0.601 -0.731,1.094c0,0.394 0.206,0.7 0.617,0.916c0.412,0.217 1.018,0.444 1.819,0.68c0.997,0.296 1.885,0.631 2.665,1.005c0.779,0.374 1.44,0.808 1.981,1.301c0.542,0.492 0.959,1.054 1.251,1.684c0.293,0.631 0.439,1.34 0.439,2.128c0,1.34 -0.325,2.483 -0.975,3.429c-0.65,0.946 -1.478,1.714 -2.485,2.305c-1.007,0.591 -2.117,1.025 -3.33,1.301c-1.213,0.276 -2.394,0.414 -3.542,0.414c-0.909,0 -1.819,-0.069 -2.729,-0.207c-0.909,-0.138 -1.781,-0.335 -2.615,-0.591c-0.834,-0.257 -1.619,-0.572 -2.355,-0.946c-0.737,-0.375 -1.376,-0.798 -1.917,-1.271l5.133,-4.315c0.26,0.275 0.574,0.522 0.942,0.738c0.368,0.217 0.753,0.4 1.153,0.547c0.401,0.148 0.807,0.266 1.219,0.355c0.411,0.089 0.79,0.133 1.137,0.133c0.758,0 1.364,-0.113 1.819,-0.34c0.455,-0.227 0.683,-0.557 0.683,-0.99c0,-0.355 -0.19,-0.67 -0.569,-0.946c-0.379,-0.276 -1.088,-0.561 -2.128,-0.857c-0.823,-0.236 -1.597,-0.512 -2.323,-0.828c-0.726,-0.315 -1.354,-0.694 -1.884,-1.138c-0.531,-0.443 -0.948,-0.975 -1.251,-1.596c-0.303,-0.62 -0.455,-1.374 -0.455,-2.261c0,-1.083 0.244,-2.088 0.731,-3.014c0.487,-0.927 1.18,-1.73 2.079,-2.409c0.899,-0.68 1.971,-1.212 3.217,-1.596c1.245,-0.385 2.615,-0.577 4.109,-0.577c0.824,0 1.636,0.064 2.437,0.192c0.802,0.128 1.56,0.306 2.274,0.532c0.715,0.227 1.376,0.498 1.982,0.813c0.607,0.315 1.116,0.67 1.527,1.064l-4.808,4.227l0,0Z" style="fill:#fff;fill-rule:nonzero;"/><path d="M197.279,86.327c-0.234,0.05 -0.478,0.077 -0.727,0.077c-1.903,0 -3.449,-1.545 -3.449,-3.448c0,-1.903 1.546,-3.449 3.449,-3.449c1.903,0 3.448,1.546 3.448,3.449c0,0.202 -0.017,0.4 -0.051,0.592c-0.182,1.301 -1.021,4.298 -4.875,4.393c0,0 1.567,-0.383 2.205,-1.614l0,0Z" style="fill:#fff;"/></svg>