<?xml version="1.0" standalone="no"?><!DOCTYPE svg PUBLIC "-//W3C//DTD SVG 1.1//EN" "http://www.w3.org/Graphics/SVG/1.1/DTD/svg11.dtd"><svg width="100%" height="100%" viewBox="0 0 200 200" version="1.1" xmlns="http://www.w3.org/2000/svg" xmlns:xlink="http://www.w3.org/1999/xlink" xml:space="preserve" style="fill-rule:evenodd;clip-rule:evenodd;stroke-linejoin:round;stroke-miterlimit:1.41421;"><path d="M5.041,84.061l-5.041,0l0.98,-5.928l17.83,0l-0.98,5.928l-5.041,0l-2.334,14.842l-7.748,0l2.334,-14.842Z" style="fill:#fff;fill-rule:nonzero;"/><path d="M20.723,78.133l7.748,0l-1.12,7.141l4.481,0l1.12,-7.188l7.701,0l-3.267,20.77l-7.701,0l1.167,-7.654l-4.481,0l-1.167,7.701l-7.748,0l3.267,-20.77Z" style="fill:#fff;fill-rule:nonzero;"/><path d="M42.66,78.133l15.636,0l-0.933,5.881l-7.795,0l-0.28,1.774l6.628,0l-0.84,5.274l-6.628,0l-0.327,1.913l7.795,0l-0.934,5.881l-15.589,0l3.267,-20.723Z" style="fill:#fff;fill-rule:nonzero;"/><path d="M137.55,78.133l15.636,0l-0.934,5.881l-7.795,0l-0.28,1.774l6.628,0l-0.793,5.274l-6.628,0l-0.327,1.913l7.795,0l-0.934,5.881l-15.636,0l3.268,-20.723Z" style="fill:#fff;fill-opacity:0.5;fill-rule:nonzero;"/><path d="M115.706,101.004l15.636,0l-0.934,5.88l-7.794,0l-0.28,1.774l6.627,0l-0.793,5.274l-6.628,0l-0.326,1.914l7.794,0l-0.933,5.881l-15.636,0l3.267,-20.723Z" style="fill:#fff;fill-rule:nonzero;"/><path d="M60.303,78.133l8.308,0c5.601,0 8.355,2.52 8.402,6.208c0,5.181 -3.267,8.261 -9.102,8.261l-2.1,0l-0.98,6.254l-7.748,0l3.22,-20.723ZM67.491,87.515c1.4,0 2.241,-0.747 2.241,-2.194c0,-0.934 -0.654,-1.54 -1.914,-1.54l-0.7,0l-0.56,3.734l0.933,0Z" style="fill:#fff;fill-opacity:0.5;fill-rule:nonzero;"/><path d="M80.14,78.133l7.748,0l-2.334,14.842l8.402,0l-2.801,5.928l-14.282,0l3.267,-20.77Z" style="fill:#fff;fill-opacity:0.5;fill-rule:nonzero;"/><path d="M107.771,96.103l-5.881,0l-1.12,2.753l-7.374,0l9.661,-20.77l9.942,0l3.08,20.77l-8.074,0l-0.234,-2.753ZM103.991,90.968l3.267,0l-0.56,-6.627l-2.707,6.627Z" style="fill:#fff;fill-opacity:0.5;fill-rule:nonzero;"/><path d="M119.953,90.035l-4.76,-11.902l8.028,0l1.726,5.508l3.408,-5.508l7.701,0l-8.355,12.322l-1.353,8.448l-7.795,0l1.4,-8.868Z" style="fill:#fff;fill-opacity:0.5;fill-rule:nonzero;"/><path d="M155.239,78.133l8.775,0c5.788,0 8.308,2.474 8.308,6.208c0,3.314 -1.727,5.461 -4.247,6.347l3.314,8.215l-7.702,0l-2.613,-6.628l-0.421,0l-1.026,6.628l-7.702,0l3.314,-20.77ZM162.614,87.421c1.307,0 2.193,-0.56 2.193,-2.007c0,-1.027 -0.606,-1.587 -1.867,-1.587l-0.933,0l-0.56,3.548l1.167,0l0,0.046Z" style="fill:#fff;fill-opacity:0.5;fill-rule:nonzero;"/><path d="M171.855,92.135l7.235,0c0.047,0.981 0.513,1.774 2.194,1.774c1.12,0 1.633,-0.327 1.633,-1.12c0,-0.56 -0.653,-0.887 -2.147,-1.167c-5.414,-0.98 -7.281,-2.801 -7.281,-6.348c0,-4.294 3.174,-7.468 9.008,-7.468c5.321,0 8.542,2.054 8.495,6.861l-7.095,0c-0.046,-0.98 -0.56,-1.493 -1.587,-1.493c-0.886,0 -1.4,0.327 -1.4,0.98c0,0.653 0.56,0.934 2.147,1.214c4.761,0.793 7.421,2.427 7.421,6.254c0,4.574 -3.173,7.655 -9.334,7.701c-5.881,-0.046 -9.335,-2.38 -9.289,-7.188Z" style="fill:#fff;fill-opacity:0.5;fill-rule:nonzero;"/><path d="M6.441,106.931l-5.041,0l0.98,-5.927l17.83,0l-0.98,5.927l-5.041,0l-2.334,14.843l-7.748,0l2.334,-14.843Z" style="fill:#fff;fill-rule:nonzero;"/><path d="M22.217,101.004l8.775,0c5.787,0 8.308,2.473 8.308,6.207c0,3.314 -1.727,5.461 -4.247,6.348l3.313,8.215l-7.701,0l-2.614,-6.628l-0.42,0l-1.027,6.628l-7.701,0l3.314,-20.77ZM29.592,110.292c1.306,0 2.193,-0.56 2.193,-2.007c0,-1.027 -0.606,-1.587 -1.867,-1.587l-0.933,0l-0.56,3.547l1.167,0l0,0.047Z" style="fill:#fff;fill-rule:nonzero;"/><path d="M42.38,101.004l7.795,0l-3.267,20.77l-7.795,0l3.267,-20.77Z" style="fill:#fff;fill-rule:nonzero;"/><path d="M52.182,101.004l9.662,0c5.227,0 6.954,2.473 6.954,5.18c0,2.754 -1.867,4.434 -4.107,4.855c1.96,0.42 3.594,1.726 3.594,4.247c0,3.781 -3.221,6.394 -8.308,6.394l-11.109,0l3.314,-20.676ZM58.67,116.779c1.307,0 2.147,-0.793 2.147,-1.913c0,-1.027 -0.607,-1.54 -1.914,-1.54l-1.167,0l-0.56,3.453l1.494,0ZM59.977,108.845c1.26,0 1.82,-0.56 1.82,-1.587c0,-0.98 -0.56,-1.307 -1.634,-1.307l-1.26,0l-0.467,2.894l1.541,0Z" style="fill:#fff;fill-rule:nonzero;"/><path d="M69.825,112.439l1.82,-11.435l7.702,0l-1.867,11.668c-0.327,2.194 0.093,3.454 1.96,3.454c1.96,0 2.287,-1.214 2.567,-3.174l1.867,-11.948l7.795,0l-1.961,12.555c-0.98,6.161 -4.247,8.635 -10.361,8.635c-6.815,-0.047 -10.549,-3.268 -9.522,-9.755Z" style="fill:#fff;fill-rule:nonzero;"/><path d="M93.722,101.004l8.542,0l3.127,9.194l1.447,-9.194l6.861,0l-3.267,20.77l-7.281,0l-4.108,-10.876l-1.727,10.876l-6.861,0l3.267,-20.77Z" style="fill:#fff;fill-rule:nonzero;"/><path d="M200,81.774c0,-2.054 -1.68,-3.734 -3.687,-3.734c-2.007,0 -3.734,1.493 -3.734,3.734c0,1.4 1.213,3.454 3.734,3.454c0,0.42 -0.42,0.98 -1.867,1.213l0.046,0.467c2.941,0 5.508,-2.427 5.508,-5.134Z" style="fill:#fff;fill-opacity:0.5;fill-rule:nonzero;"/></svg>